<svg width="20" height="20" viewBox="0 0 20 20" fill="none" xmlns="http://www.w3.org/2000/svg">
<path d="M8 10.8333C8 9.72871 8.89546 8.83325 10 8.83325C11.1045 8.83325 12 9.72871 12 10.8333C12 11.9378 11.1045 12.8333 10 12.8333C8.89546 12.8333 8 11.9378 8 10.8333Z" stroke="#47525D" stroke-linecap="round" stroke-linejoin="round"/>
<path fill-rule="evenodd" clip-rule="evenodd" d="M15 7.5C14.5397 7.5 14.1666 7.87311 14.1666 8.33333C14.1666 8.79356 14.5397 9.16667 15 9.16667C15.4602 9.16667 15.8333 8.79356 15.8333 8.33333C15.8333 7.87311 15.4602 7.5 15 7.5Z" fill="#47525D"/>
<path d="M2.5 5.73538V5.23538C2.36739 5.23538 2.24021 5.28805 2.14645 5.38182C2.05268 5.47559 2 5.60277 2 5.73538H2.5ZM7 5.73538V6.23538H7.31515L7.45109 5.95105L7 5.73538ZM7.75 4.16675V3.66675H7.43485L7.29891 3.95107L7.75 4.16675ZM12.25 4.16675L12.7011 3.95107L12.5651 3.66675H12.25V4.16675ZM13 5.73538L12.5489 5.95105L12.6848 6.23538H13V5.73538ZM17.5 5.73538H18C18 5.45923 17.7761 5.23538 17.5 5.23538V5.73538ZM17.5 15.8334V16.3334C17.7761 16.3334 18 16.1096 18 15.8334H17.5ZM2.5 15.8334H2C2 16.1096 2.22386 16.3334 2.5 16.3334V15.8334ZM2.5 6.23538H7V5.23538H2.5V6.23538ZM7.45109 5.95105L8.20109 4.38243L7.29891 3.95107L6.54891 5.5197L7.45109 5.95105ZM7.75 4.66675H12.25V3.66675H7.75V4.66675ZM11.7989 4.38243L12.5489 5.95105L13.4511 5.5197L12.7011 3.95107L11.7989 4.38243ZM13 6.23538H17.5V5.23538H13V6.23538ZM17 5.73538V15.8334H18V5.73538H17ZM17.5 15.3334H2.5V16.3334H17.5V15.3334ZM3 15.8334V5.73538H2V15.8334H3Z" fill="#47525D"/>
</svg>
