<svg width="20" height="20" viewBox="0 0 20 20" fill="none" xmlns="http://www.w3.org/2000/svg">
<mask id="path-1-inside-1" fill="white">
<path fill-rule="evenodd" clip-rule="evenodd" d="M12 3H8V7H4C3.44772 7 3 7.44772 3 8V11C3 11.5523 3.44772 12 4 12H16C16.5523 12 17 11.5523 17 11V8C17 7.44772 16.5523 7 16 7H12V3Z"/>
</mask>
<path d="M8 3V2H7V3H8ZM12 3H13V2H12V3ZM8 7V8H9V7H8ZM12 7H11V8H12V7ZM8 4H12V2H8V4ZM9 7V3H7V7H9ZM4 8H8V6H4V8ZM4 8V6C2.89543 6 2 6.89543 2 8H4ZM4 11V8H2V11H4ZM4 11H4H2C2 12.1046 2.89543 13 4 13V11ZM16 11H4V13H16V11ZM16 11V13C17.1046 13 18 12.1046 18 11H16ZM16 8V11H18V8H16ZM16 8H18C18 6.89543 17.1046 6 16 6V8ZM12 8H16V6H12V8ZM11 3V7H13V3H11Z" fill="#47525D" mask="url(#path-1-inside-1)"/>
<rect x="5" y="11" width="2" height="6" fill="#47525D"/>
<rect x="9" y="11" width="2" height="6" fill="#47525D"/>
<rect x="13" y="11" width="2" height="6" fill="#47525D"/>
</svg>
