<svg width="24" height="24" viewBox="0 0 24 24" fill="none" xmlns="http://www.w3.org/2000/svg">
<path d="M11.8909 9.13193L11.6513 9.36601C10.2616 10.7234 10.2616 12.9242 11.6513 14.2816V14.2816C13.0409 15.639 15.294 15.639 16.6837 14.2816V14.2816C18.0734 12.9242 18.0734 10.7234 16.6837 9.36601L16.444 9.13193" stroke="white" stroke-width="1.2" stroke-linecap="round" stroke-linejoin="round"/>
<path d="M13.0075 11.8036L13.2472 11.5695C14.6368 10.2121 14.6368 8.01133 13.2472 6.65393V6.65393C11.8575 5.29652 9.60441 5.29652 8.21475 6.65393V6.65393C6.82509 8.01134 6.82509 10.2121 8.21475 11.5695L8.45439 11.8036" stroke="white" stroke-width="1.2" stroke-linecap="round" stroke-linejoin="round"/>
<path d="M7.76518 6.49665L5.98596 4.75872L4.7998 3.6001M4.7998 3.6001H7.76518M4.7998 3.6001V6.49665" stroke="white" stroke-width="1.2" stroke-linecap="round" stroke-linejoin="round"/>
<path d="M14.289 15.7651V18.6617M14.289 20.3996V18.6617M14.289 18.6617H16.0682H12.5098" stroke="white" stroke-width="1.2" stroke-linecap="round" stroke-linejoin="round"/>
</svg>
