<svg width="20" height="20" viewBox="0 0 20 20" fill="none" xmlns="http://www.w3.org/2000/svg">
<path d="M18 16.2222V3.77778C18 2.8 17.2 2 16.2222 2H3.77778C2.8 2 2 2.8 2 3.77778V16.2222C2 17.2 2.8 18 3.77778 18H16.2222C17.2 18 18 17.2 18 16.2222Z" stroke="#47525D"/>
<path d="M7.60158 8.32771L8.27717 9.81604C8.637 10.6088 9.76769 10.595 10.1081 9.79376L11.6041 6.27273C11.7581 5.90678 12.066 5.90678 12.2199 6.28681L14.9217 12.874C15.1141 13.3385 14.9294 14 14.6138 14H5.38478C5.06149 14 4.88446 13.3244 5.08459 12.8599L7.0012 8.35586C7.14745 7.9899 7.43994 7.97583 7.60158 8.32771Z" fill="#47525D"/>
</svg>
