<svg width="24" height="24" viewBox="0 0 24 24" fill="none" xmlns="http://www.w3.org/2000/svg">
<path fill-rule="evenodd" clip-rule="evenodd" d="M7.2 3.6001C6.53726 3.6001 6 4.13736 6 4.8001V19.2001C6 19.8628 6.53726 20.4001 7.2 20.4001H16.8C17.4627 20.4001 18 19.8628 18 19.2001V4.8001C18 4.13736 17.4627 3.6001 16.8 3.6001H7.2ZM16.8 7.2H7.2V16.8H16.8V7.2ZM9.6 4.8H14.4V6H9.6V4.8ZM12 18C11.6686 18 11.4 18.2686 11.4 18.6C11.4 18.9314 11.6686 19.2 12 19.2C12.3314 19.2 12.6 18.9314 12.6 18.6C12.6 18.2686 12.3314 18 12 18Z" fill="white"/>
</svg>
