<svg width="20" height="20" viewBox="0 0 20 20" fill="none" xmlns="http://www.w3.org/2000/svg">
<path d="M9.992 2C5.576 2 2 5.584 2 10C2 14.416 5.576 18 9.992 18C14.416 18 18 14.416 18 10C18 5.584 14.416 2 9.992 2Z" stroke="#47525D"/>
<path d="M12.8006 9.20005C13.4646 9.20005 14.0006 8.66405 14.0006 8.00005C14.0006 7.33605 13.4646 6.80005 12.8006 6.80005C12.1366 6.80005 11.6006 7.33605 11.6006 8.00005C11.6006 8.66405 12.1366 9.20005 12.8006 9.20005Z" fill="#47525D"/>
<path d="M7.2 9.20005C7.864 9.20005 8.4 8.66405 8.4 8.00005C8.4 7.33605 7.864 6.80005 7.2 6.80005C6.536 6.80005 6 7.33605 6 8.00005C6 8.66405 6.536 9.20005 7.2 9.20005Z" fill="#47525D"/>
<path d="M10.0005 14.4001C11.6245 14.4001 13.0405 13.5121 13.8005 12.2001C13.9525 11.9361 13.7605 11.6001 13.4485 11.6001H6.5525C6.2485 11.6001 6.0485 11.9361 6.2005 12.2001C6.9605 13.5121 8.3765 14.4001 10.0005 14.4001Z" fill="#47525D"/>
</svg>
