<svg width="29" height="29" viewBox="0 0 29 29" fill="none" xmlns="http://www.w3.org/2000/svg">
<path fill-rule="evenodd" clip-rule="evenodd" d="M14.4238 4.31934C11.0796 4.31934 8.35075 7.0299 8.35075 10.3787C8.35075 12.5385 9.4858 14.4328 11.1889 15.5057C7.6377 16.6045 4.67795 19.5712 4.3208 24.4059L5.70914 24.5085C6.09396 19.2992 9.9816 16.604 13.991 16.4229C14.134 16.4329 14.2783 16.4381 14.4238 16.4381C14.5695 16.4381 14.714 16.4329 14.8572 16.4228C18.867 16.6035 22.7553 19.2987 23.1402 24.5085L24.5285 24.4059C24.1713 19.5707 21.211 16.6038 17.6592 15.5053C19.362 14.4324 20.4968 12.5382 20.4968 10.3787C20.4968 7.0299 17.768 4.31934 14.4238 4.31934ZM14.8318 15.0284C17.2216 14.8217 19.1047 12.8169 19.1047 10.3787C19.1047 7.80336 17.0037 5.71146 14.4238 5.71146C11.8438 5.71146 9.74287 7.80336 9.74287 10.3787C9.74287 12.817 11.6262 14.822 14.0163 15.0284C14.288 15.0185 14.5601 15.0184 14.8318 15.0284Z" fill="white"/>
</svg>
