<svg width="25" height="25" viewBox="0 0 25 25" fill="none" xmlns="http://www.w3.org/2000/svg">
<path fill-rule="evenodd" clip-rule="evenodd" d="M13.3304 0.490234C9.0805 0.490234 5.6126 3.93491 5.6126 8.19068C5.6126 10.9354 7.05507 13.3428 9.21949 14.7062C4.70645 16.1026 0.945089 19.8728 0.491211 26.017L2.25556 26.1473C2.7446 19.5271 7.68519 16.102 12.7805 15.8718C12.9622 15.8846 13.1456 15.8911 13.3304 15.8911C13.5155 15.8911 13.6992 15.8846 13.8812 15.8717C18.977 16.1013 23.9184 19.5265 24.4075 26.1473L26.1719 26.017C25.7179 19.8722 21.9558 16.1018 17.4421 14.7058C19.6061 13.3422 21.0482 10.9351 21.0482 8.19068C21.0482 3.93491 17.5803 0.490234 13.3304 0.490234ZM13.8488 14.0997C16.886 13.837 19.2791 11.2892 19.2791 8.19068C19.2791 4.91784 16.6091 2.25939 13.3304 2.25939C10.0517 2.25939 7.38175 4.91784 7.38175 8.19068C7.38175 11.2894 9.7752 13.8374 12.8126 14.0997C13.1579 14.087 13.5036 14.087 13.8488 14.0997Z" fill="#47525D"/>
</svg>
