<svg width="24" height="25" viewBox="0 0 24 25" fill="none" xmlns="http://www.w3.org/2000/svg">
<path d="M16.8002 15.1521V10.5022C16.8002 7.85118 14.6512 5.70215 12.0002 5.70215V5.70215C9.34923 5.70215 7.2002 7.85118 7.2002 10.5021V15.1521" stroke="#47525D" stroke-width="1.2"/>
<path d="M7.2002 15.1519L4.8002 17.2519H19.2002L16.8002 15.1519" stroke="#47525D" stroke-width="1.2" stroke-linecap="round" stroke-linejoin="round"/>
<path d="M10.8002 18.3022H13.2002V19.2022C13.2002 19.865 12.6629 20.4022 12.0002 20.4022C11.3375 20.4022 10.8002 19.865 10.8002 19.2022V18.3022Z" fill="#47525D"/>
<path d="M10.8002 5.70215H13.2002V4.80215C13.2002 4.13941 12.6629 3.60215 12.0002 3.60215C11.3375 3.60215 10.8002 4.13941 10.8002 4.80215V5.70215Z" fill="#47525D"/>
</svg>
