<svg width="24" height="24" viewBox="0 0 24 24" fill="none" xmlns="http://www.w3.org/2000/svg">
<path fill-rule="evenodd" clip-rule="evenodd" d="M18.4994 18.2689L15.1385 14.9082L16.0125 14.0346L19.3734 17.3949C19.3734 17.3949 18.4996 18.2691 18.4994 18.2689ZM17.3027 18.7128C16.5625 19.4529 15.2542 19.5752 13.6188 19.057C11.8683 18.5023 9.99844 17.2913 8.35375 15.6469C6.70907 14.0025 5.49785 12.1329 4.94334 10.3829C4.42508 8.74774 4.54736 7.43945 5.28737 6.69906H5.28761L5.38023 6.60621L7.9884 9.21421L7.74925 9.45357C7.74925 9.45382 7.749 9.45406 7.74876 9.45406C6.75783 10.4461 7.94846 12.6746 9.6375 14.3633C10.9016 15.6273 12.4682 16.6122 13.5924 16.6122C13.9705 16.6122 14.2983 16.5007 14.5483 16.2513C14.5483 16.251 14.5483 16.251 14.5483 16.251L14.7874 16.0119L17.3956 18.6199L17.3027 18.7128ZM6.60532 4.62883L9.96648 7.98923L9.09293 8.86362L9.09244 8.86313L9.07994 8.85064L7.41173 7.18294L5.73152 5.50274L6.60532 4.62883ZM16.7402 13.3069C16.3391 12.9059 15.6863 12.9059 15.2852 13.3069L14.4112 14.1808C14.1372 14.4547 14.0507 14.8455 14.1507 15.1936L13.8209 15.5234C13.8209 15.5237 13.8209 15.5237 13.8206 15.5237C13.5866 15.7581 12.1282 15.3985 10.3651 13.636C8.60258 11.8734 8.24287 10.4155 8.47688 10.181L8.80694 9.85098C8.9003 9.87768 8.99635 9.8914 9.09241 9.8914C9.35607 9.8914 9.61948 9.79095 9.82017 9.59054L10.6942 8.71688C11.0953 8.31557 11.0953 7.66314 10.6942 7.26184L7.33305 3.90145C7.13873 3.70716 6.88047 3.6001 6.60553 3.6001C6.3306 3.6001 6.07258 3.70716 5.87802 3.90145L5.00398 4.77535C4.73027 5.04926 4.64377 5.44028 4.7435 5.78842C4.7435 5.78842 4.46416 6.07041 4.45019 6.0883C3.52053 7.12145 3.34606 8.74848 3.96233 10.6935C4.5661 12.5981 5.86724 14.6155 7.62636 16.3743C9.38547 18.1329 11.4033 19.4341 13.308 20.0377C14.0733 20.28 14.789 20.4001 15.4391 20.4001C16.5048 20.4001 17.3935 20.0769 18.0304 19.4402L18.2136 19.2567C18.3055 19.2834 18.4013 19.2974 18.4996 19.2974C18.7745 19.2974 19.0328 19.1905 19.2271 18.9963L20.1012 18.1221C20.5023 17.7213 20.5023 17.0686 20.1012 16.6673L16.7402 13.3069Z" fill="#47525D"/>
<path fill-rule="evenodd" clip-rule="evenodd" d="M16.8464 10.9016C16.8464 11.1396 17.0471 11.3329 17.2948 11.3329C17.5423 11.3329 17.743 11.1396 17.743 10.9016C17.743 9.742 17.2735 8.65178 16.4208 7.83181C15.5682 7.01183 14.4346 6.56006 13.2288 6.56006C12.9811 6.56006 12.7803 6.75309 12.7803 6.9913C12.7803 7.2293 12.9811 7.42233 13.2288 7.42233C14.195 7.42233 15.1033 7.78417 15.7869 8.4415C16.4702 9.09863 16.8464 9.97241 16.8464 10.9016Z" fill="#47525D"/>
<path fill-rule="evenodd" clip-rule="evenodd" d="M17.9892 5.72458C16.5114 4.35457 14.5465 3.6001 12.4569 3.6001C12.1715 3.6001 11.9401 3.81478 11.9401 4.0792C11.9401 4.34362 12.1715 4.5583 12.4569 4.5583C14.2706 4.55808 15.9758 5.21285 17.2585 6.40194C18.5409 7.59103 19.2472 9.17161 19.2472 10.853C19.2472 11.1179 19.4785 11.3321 19.764 11.3321C20.0492 11.3321 20.2806 11.1179 20.2806 10.853C20.2808 8.91586 19.4667 7.09458 17.9892 5.72458Z" fill="#47525D"/>
<path fill-rule="evenodd" clip-rule="evenodd" d="M13.1848 8.98535C12.9614 8.98535 12.7803 9.16052 12.7803 9.3771C12.7805 9.59331 12.9616 9.76867 13.1848 9.76848H13.185C13.5177 9.76848 13.8062 9.88414 14.0418 10.1125C14.2738 10.3375 14.3965 10.6244 14.3965 10.9424C14.3965 11.1586 14.5775 11.3342 14.8009 11.3342C15.0242 11.3342 15.2052 11.1586 15.2052 10.9424C15.2054 10.4121 15.0007 9.93376 14.6134 9.55843C14.2263 9.18347 13.7323 8.98535 13.1848 8.98535Z" fill="#47525D"/>
</svg>
