<svg width="24" height="24" viewBox="0 0 24 24" fill="none" xmlns="http://www.w3.org/2000/svg">
<path d="M9.60341 16.397L9.243 15.9174L9.60341 16.397ZM6.44501 15.0721L7.02957 14.9369L6.97238 14.6897L6.75524 14.5585L6.44501 15.0721ZM4.87873 18.1727L4.63023 17.6265C4.37321 17.7435 4.23252 18.0238 4.29236 18.2998C4.35219 18.5758 4.59636 18.7727 4.87873 18.7727V18.1727ZM9.96383 16.8767C9.91664 16.9122 9.8973 16.907 9.96013 16.8917C10.0111 16.8793 10.0851 16.8676 10.1818 16.8586C10.3755 16.8405 10.601 16.8381 10.8061 16.8381V15.6381C10.6014 15.6381 10.3256 15.64 10.0704 15.6638C9.9427 15.6757 9.80535 15.6943 9.67613 15.7258C9.55874 15.7544 9.39026 15.8067 9.243 15.9174L9.96383 16.8767ZM10.8061 16.8381C14.9806 16.8381 18.6122 14.1309 18.6122 10.519H17.4122C17.4122 13.2243 14.5913 15.6381 10.8061 15.6381V16.8381ZM18.6122 10.519C18.6122 6.90705 14.9806 4.1998 10.8061 4.1998V5.3998C14.5913 5.3998 17.4122 7.81358 17.4122 10.519H18.6122ZM10.8061 4.1998C6.63164 4.1998 2.99998 6.90705 2.99998 10.519H4.19998C4.19998 7.81358 7.02094 5.3998 10.8061 5.3998V4.1998ZM2.99998 10.519C2.99998 12.6345 4.27075 14.4597 6.13479 15.5857L6.75524 14.5585C5.1611 13.5956 4.19998 12.119 4.19998 10.519H2.99998ZM6.44501 15.0721C5.86046 15.2074 5.86039 15.2071 5.86033 15.2068C5.86031 15.2067 5.86025 15.2065 5.86022 15.2063C5.86014 15.206 5.86008 15.2057 5.86002 15.2055C5.8599 15.2049 5.85982 15.2046 5.85976 15.2043C5.85964 15.2038 5.85963 15.2037 5.85972 15.2042C5.85991 15.205 5.8605 15.2078 5.8614 15.2124C5.8632 15.2215 5.86624 15.2379 5.86982 15.2605C5.87701 15.3059 5.88624 15.376 5.89218 15.4645C5.90418 15.6433 5.90206 15.8871 5.84864 16.1506C5.74564 16.6588 5.45487 17.2513 4.63023 17.6265L5.12724 18.7188C6.36876 18.1538 6.86114 17.1961 7.02473 16.389C7.10461 15.9949 7.10665 15.6398 7.08949 15.3842C7.08085 15.2555 7.06717 15.1494 7.05509 15.073C7.04904 15.0348 7.04336 15.0038 7.03885 14.9808C7.03659 14.9694 7.03462 14.9599 7.03305 14.9525C7.03226 14.9488 7.03156 14.9457 7.03098 14.9431C7.03069 14.9418 7.03042 14.9406 7.03019 14.9396C7.03007 14.939 7.02996 14.9386 7.02986 14.9381C7.02981 14.9379 7.02973 14.9376 7.02971 14.9375C7.02964 14.9371 7.02957 14.9369 6.44501 15.0721ZM4.87873 18.7727C5.01494 18.7727 5.62147 18.8264 6.51873 18.6087C7.41422 18.3914 8.58787 17.9106 9.96383 16.8767L9.243 15.9174C7.99007 16.8588 6.96407 17.2658 6.23578 17.4425C5.50926 17.6188 5.06789 17.5727 4.87873 17.5727V18.7727Z" fill="#47525D"/>
<mask id="path-2-inside-1" fill="white">
<path fill-rule="evenodd" clip-rule="evenodd" d="M10.9874 17.6894C10.9874 17.6894 19.0977 18.1528 19.5612 10.0425C19.5612 10.0425 20.8356 10.6218 21.0674 13.4025C21.0674 13.4025 21.0674 16.4149 18.9818 17.8052C18.9818 17.8052 19.0977 19.0797 20.2563 20.2383C20.2563 20.2383 18.055 20.3542 15.9694 18.7321C15.9694 18.7321 14.2315 19.0797 10.9874 17.6894Z"/>
</mask>
<path fill-rule="evenodd" clip-rule="evenodd" d="M10.9874 17.6894C10.9874 17.6894 19.0977 18.1528 19.5612 10.0425C19.5612 10.0425 20.8356 10.6218 21.0674 13.4025C21.0674 13.4025 21.0674 16.4149 18.9818 17.8052C18.9818 17.8052 19.0977 19.0797 20.2563 20.2383C20.2563 20.2383 18.055 20.3542 15.9694 18.7321C15.9694 18.7321 14.2315 19.0797 10.9874 17.6894Z" fill="white"/>
<path d="M19.5612 10.0425L20.5543 7.8576L17.3649 6.4079L17.1651 9.90556L19.5612 10.0425ZM21.0674 13.4025L23.4674 13.4025V13.3027L23.4591 13.2032L21.0674 13.4025ZM18.9818 17.8052L17.6506 15.8083L16.4624 16.6004L16.5917 18.0225L18.9818 17.8052ZM20.2563 20.2383L20.3825 22.635L25.7639 22.3518L21.9534 18.5413L20.2563 20.2383ZM15.9694 18.7321L17.4429 16.8377L16.5758 16.1633L15.4988 16.3787L15.9694 18.7321ZM10.9874 17.6894C10.8504 20.0855 10.8516 20.0855 10.8529 20.0856C10.8533 20.0856 10.8546 20.0857 10.8555 20.0858C10.8573 20.0859 10.8593 20.086 10.8614 20.0861C10.8655 20.0863 10.8702 20.0865 10.8753 20.0868C10.8857 20.0873 10.8981 20.0879 10.9124 20.0884C10.941 20.0896 10.9776 20.0909 11.0215 20.0919C11.1094 20.094 11.2272 20.0953 11.3709 20.0932C11.6575 20.0891 12.052 20.0719 12.5207 20.0211C13.4467 19.9206 14.7241 19.6824 16.0496 19.1117C17.3847 18.5368 18.8134 17.604 19.9437 16.1019C21.0849 14.5854 21.8174 12.6263 21.9573 10.1794L17.1651 9.90556C17.0732 11.5139 16.6181 12.5382 16.1083 13.2158C15.5875 13.9079 14.9018 14.3799 14.1514 14.7029C13.3913 15.0302 12.6122 15.183 12.003 15.2491C11.7041 15.2815 11.4613 15.2914 11.3026 15.2937C11.2237 15.2948 11.1668 15.294 11.1356 15.2933C11.12 15.2929 11.111 15.2926 11.1089 15.2925C11.1079 15.2924 11.1086 15.2925 11.1111 15.2926C11.1124 15.2926 11.1141 15.2927 11.1163 15.2928C11.1174 15.2929 11.1186 15.293 11.12 15.293C11.1206 15.2931 11.1217 15.2931 11.122 15.2932C11.1231 15.2932 11.1243 15.2933 10.9874 17.6894ZM19.5612 10.0425C18.568 12.2274 18.5662 12.2265 18.5643 12.2257C18.5637 12.2254 18.5619 12.2246 18.5607 12.224C18.5582 12.2229 18.5558 12.2218 18.5534 12.2206C18.5486 12.2184 18.5438 12.2162 18.5391 12.214C18.5297 12.2096 18.5206 12.2052 18.5117 12.2008C18.494 12.1922 18.4772 12.1837 18.4614 12.1754C18.4298 12.1588 18.402 12.1431 18.3777 12.1285C18.329 12.0991 18.2944 12.0742 18.2714 12.0559C18.2234 12.0178 18.2302 12.0121 18.2666 12.0638C18.331 12.1549 18.5896 12.5697 18.6757 13.6018L23.4591 13.2032C23.3134 11.4546 22.8189 10.1894 22.1881 9.29568C21.877 8.85496 21.5506 8.5306 21.2564 8.29698C21.1103 8.18095 20.9744 8.08907 20.855 8.01715C20.7954 7.98122 20.74 7.95033 20.6896 7.92392C20.6644 7.91072 20.6405 7.89864 20.6179 7.88761C20.6066 7.88209 20.5957 7.87684 20.5851 7.87184C20.5797 7.86934 20.5745 7.86691 20.5694 7.86453C20.5668 7.86335 20.5643 7.86218 20.5618 7.86102C20.5605 7.86044 20.5586 7.85959 20.558 7.8593C20.5561 7.85845 20.5543 7.8576 19.5612 10.0425ZM21.0674 13.4025C18.6674 13.4025 18.6674 13.4017 18.6674 13.4009C18.6674 13.4006 18.6674 13.3999 18.6674 13.3994C18.6674 13.3984 18.6674 13.3974 18.6674 13.3965C18.6674 13.3947 18.6674 13.393 18.6674 13.3915C18.6674 13.3886 18.6674 13.3862 18.6674 13.3846C18.6675 13.3812 18.6675 13.3805 18.6675 13.3821C18.6674 13.3855 18.6671 13.3984 18.666 13.4199C18.664 13.4631 18.6592 13.5389 18.6484 13.6392C18.6265 13.8439 18.5822 14.1273 18.4963 14.4327C18.3111 15.0914 18.0186 15.563 17.6506 15.8083L20.3131 19.8022C22.0307 18.6571 22.7809 16.9274 23.117 15.7323C23.2918 15.1107 23.3779 14.5541 23.4211 14.1506C23.443 13.9467 23.4545 13.7763 23.4605 13.6494C23.4636 13.5858 23.4653 13.5326 23.4662 13.4912C23.4667 13.4704 23.467 13.4526 23.4672 13.4378C23.4672 13.4304 23.4673 13.4237 23.4673 13.4178C23.4673 13.4149 23.4673 13.4121 23.4674 13.4096C23.4674 13.4083 23.4674 13.4071 23.4674 13.4059C23.4674 13.4053 23.4674 13.4044 23.4674 13.4041C23.4674 13.4033 23.4674 13.4025 21.0674 13.4025ZM18.9818 17.8052C16.5917 18.0225 16.5918 18.0235 16.5919 18.0245C16.5919 18.0248 16.592 18.0258 16.5921 18.0264C16.5922 18.0277 16.5923 18.0291 16.5924 18.0304C16.5927 18.0332 16.593 18.036 16.5932 18.0389C16.5938 18.0447 16.5944 18.0508 16.5951 18.0573C16.5965 18.0703 16.598 18.0846 16.5999 18.1003C16.6036 18.1316 16.6083 18.1682 16.6144 18.2098C16.6265 18.2929 16.6441 18.3963 16.6695 18.5169C16.7201 18.7573 16.8027 19.0709 16.9374 19.43C17.2069 20.1487 17.6926 21.0688 18.5593 21.9354L21.9534 18.5413C21.6614 18.2493 21.5099 17.9529 21.4318 17.7446C21.3927 17.6403 21.3739 17.5628 21.3666 17.5281C21.363 17.5111 21.3625 17.5059 21.3638 17.5147C21.3645 17.5192 21.3656 17.5274 21.367 17.5394C21.3677 17.5455 21.3685 17.5525 21.3693 17.5606C21.3698 17.5646 21.3702 17.5689 21.3706 17.5735C21.3709 17.5757 21.3711 17.5781 21.3713 17.5805C21.3714 17.5817 21.3715 17.5829 21.3716 17.5842C21.3717 17.5848 21.3718 17.5857 21.3718 17.5861C21.3719 17.587 21.372 17.588 18.9818 17.8052ZM20.2563 20.2383C20.1302 17.8417 20.1311 17.8416 20.132 17.8416C20.1323 17.8415 20.1332 17.8415 20.1338 17.8415C20.1349 17.8414 20.1361 17.8414 20.1372 17.8413C20.1394 17.8412 20.1414 17.8411 20.1434 17.841C20.1473 17.8408 20.1508 17.8407 20.1537 17.8406C20.1596 17.8403 20.1636 17.8402 20.1658 17.8401C20.1702 17.84 20.1673 17.8402 20.1577 17.8402C20.1383 17.8402 20.0927 17.8396 20.025 17.8355C19.8883 17.8272 19.6691 17.8049 19.3978 17.7468C18.8523 17.6299 18.1369 17.3775 17.4429 16.8377L14.496 20.6266C15.8875 21.7089 17.3156 22.2096 18.3921 22.4402C18.9318 22.5559 19.3933 22.606 19.7346 22.6267C19.9058 22.6371 20.0485 22.6402 20.1577 22.6402C20.2123 22.6402 20.2588 22.6394 20.2964 22.6384C20.3152 22.6378 20.3318 22.6373 20.3462 22.6367C20.3534 22.6364 20.36 22.6361 20.3661 22.6358C20.3691 22.6357 20.372 22.6356 20.3747 22.6354C20.3761 22.6354 20.3774 22.6353 20.3787 22.6352C20.3793 22.6352 20.3803 22.6351 20.3806 22.6351C20.3815 22.6351 20.3825 22.635 20.2563 20.2383ZM15.9694 18.7321C15.4988 16.3787 15.5 16.3785 15.5013 16.3782C15.5017 16.3781 15.503 16.3779 15.5039 16.3777C15.5055 16.3774 15.5072 16.3771 15.5088 16.3768C15.5121 16.3761 15.5152 16.3755 15.5183 16.3749C15.5244 16.3738 15.5301 16.3727 15.5355 16.3717C15.5461 16.3698 15.5551 16.3682 15.5626 16.367C15.5775 16.3646 15.5861 16.3635 15.5883 16.3632C15.5927 16.3626 15.5716 16.3655 15.5253 16.3678C15.4331 16.3725 15.2378 16.3755 14.9419 16.3449C14.3532 16.284 13.3425 16.0876 11.9328 15.4834L10.042 19.8953C11.8763 20.6815 13.3567 21.0065 14.448 21.1194C14.9921 21.1757 15.4341 21.1787 15.7691 21.1616C15.9364 21.1531 16.0764 21.1397 16.1886 21.1255C16.2446 21.1184 16.2937 21.1112 16.3356 21.1044C16.3566 21.1009 16.3758 21.0976 16.3932 21.0945C16.4019 21.0929 16.4102 21.0913 16.418 21.0898C16.4219 21.0891 16.4257 21.0884 16.4294 21.0876C16.4312 21.0873 16.4331 21.0869 16.4348 21.0866C16.4357 21.0864 16.4371 21.0861 16.4375 21.0861C16.4388 21.0858 16.4401 21.0855 15.9694 18.7321Z" fill="#47525D" mask="url(#path-2-inside-1)"/>
</svg>
