<svg width="18" height="17" viewBox="0 0 18 17" fill="none" xmlns="http://www.w3.org/2000/svg">
<path fill-rule="evenodd" clip-rule="evenodd" d="M9.01987 0.102051C6.23305 0.102051 3.95901 2.36086 3.95901 5.15152C3.95901 6.95143 4.90499 8.53008 6.32439 9.42414C3.36497 10.3398 0.898451 12.8121 0.600822 16.8411L1.75777 16.9265C2.0785 12.5848 5.31907 10.3388 8.66077 10.1884C8.77941 10.1968 8.89916 10.201 9.01987 10.201C9.1408 10.201 9.26077 10.1967 9.37963 10.1884C12.7217 10.3383 15.9629 12.5844 16.2836 16.9265L17.4406 16.8411C17.1429 12.8116 14.6758 10.3391 11.7159 9.4238C13.135 8.52967 14.0807 6.95119 14.0807 5.15152C14.0807 2.36086 11.8067 0.102051 9.01987 0.102051ZM9.35855 9.02637C11.3507 8.85475 12.9206 7.18376 12.9206 5.15152C12.9206 3.0054 11.1698 1.26215 9.01987 1.26215C6.86991 1.26215 5.11911 3.0054 5.11911 5.15152C5.11911 7.18393 6.68929 8.85503 8.68169 9.02641C8.9072 9.01817 9.13304 9.01816 9.35855 9.02637Z" fill="white"/>
</svg>
