<svg width="364" height="115" viewBox="0 0 364 115" fill="none" xmlns="http://www.w3.org/2000/svg">
<path fill-rule="evenodd" clip-rule="evenodd" d="M191.049 50.939C191.049 47.364 193.947 44.4658 197.523 44.4658H197.854C201.429 44.4658 204.327 47.364 204.327 50.939C204.327 54.5141 201.429 57.4123 197.854 57.4123H197.523C193.947 57.4123 191.049 54.5141 191.049 50.939Z" fill="#EC99BA"/>
<path fill-rule="evenodd" clip-rule="evenodd" d="M197.487 19.6348C180.218 19.6348 166.218 33.6342 166.218 50.9035C166.218 68.1727 180.218 82.1722 197.487 82.1722C214.756 82.1722 228.756 68.1727 228.756 50.9035C228.756 33.6342 214.756 19.6348 197.487 19.6348ZM197.487 34.349C188.344 34.349 180.933 41.7605 180.933 50.903C180.933 60.0456 188.344 67.4571 197.487 67.4571C206.629 67.4571 214.041 60.0456 214.041 50.903C214.041 41.7605 206.629 34.349 197.487 34.349Z" fill="#8881B9"/>
<path fill-rule="evenodd" clip-rule="evenodd" d="M228.962 82.2847L226.987 64.9496L211.184 80.3586L228.962 82.2847Z" fill="#8881B9"/>
<path fill-rule="evenodd" clip-rule="evenodd" d="M154.2 0.321289C150.19 0.321289 146.939 3.57237 146.939 7.58279V7.77447C146.939 11.7849 150.19 15.036 154.2 15.036H154.392C158.402 15.036 161.653 11.7849 161.653 7.77447V7.58279C161.653 3.57238 158.402 0.321289 154.392 0.321289H154.2ZM146.939 26.8958C146.939 22.8854 150.19 19.6343 154.2 19.6343H154.392C158.402 19.6343 161.653 22.8854 161.653 26.8958V67.457C161.653 75.5837 155.065 82.1717 146.939 82.1717V26.8958ZM129.892 74.3545C129.892 70.5451 132.98 67.457 136.789 67.457H144.606V75.2742C144.606 79.0836 141.518 82.1717 137.709 82.1717H136.789C132.98 82.1717 129.892 79.0836 129.892 75.2742V74.3545Z" fill="#53A8CB"/>
<path fill-rule="evenodd" clip-rule="evenodd" d="M65.5146 34.3485H50.5457H37.4647H31.5107C22.3681 34.3485 14.9566 41.76 14.9566 50.9025C14.9566 60.045 22.3681 67.4565 31.5107 67.4565L36.545 67.4565L50.5457 67.4565L64.5949 67.4565C64.5949 75.3602 58.3635 81.8084 50.5457 82.1564V82.1716H31.6925C14.4233 82.1716 0.423828 68.1721 0.423828 50.9029C0.423828 33.6337 14.4233 19.6342 31.6925 19.6342H39.9681C39.9836 19.6339 39.9991 19.6338 40.0147 19.6338H50.7999C58.9266 19.6338 65.5146 26.2218 65.5146 34.3485ZM41.0016 44.4648H35.8553H31.3286C27.7731 44.4648 24.8909 47.3471 24.8909 50.9025C24.8909 54.4579 27.7731 57.3402 31.3286 57.3402H35.8553H41.0016H64.5232C64.9465 57.3402 65.2896 56.997 65.2896 56.5738C65.2896 54.014 63.7209 51.8206 61.4923 50.9025C63.7209 49.9844 65.2896 47.791 65.2896 45.2312C65.2896 44.8079 64.9465 44.4648 64.5232 44.4648H41.0016Z" fill="#53A8CB"/>
<path fill-rule="evenodd" clip-rule="evenodd" d="M97.7029 19.6348C112.94 19.6348 125.293 31.9872 125.293 47.2248L125.293 66.6151L125.293 67.8162C125.293 75.7447 118.866 82.172 110.937 82.172C110.739 82.172 110.578 82.0113 110.578 81.8131L110.578 66.6151L110.578 47.2109C110.578 40.1 104.814 34.3356 97.7029 34.3356C90.5921 34.3356 84.8276 40.1 84.8276 47.2109L84.8276 63.7255C84.8276 63.729 84.8276 63.7326 84.8276 63.7362L84.8276 81.8131C84.8276 82.0113 84.6669 82.172 84.4687 82.172C76.5402 82.172 70.1129 75.7447 70.1129 67.8162L70.1129 59.2447C70.1129 59.2425 70.1129 59.2403 70.1129 59.2381L70.1129 47.2248C70.1129 31.9872 82.4654 19.6348 97.7029 19.6348Z" fill="#53A8CB"/>
<path fill-rule="evenodd" clip-rule="evenodd" d="M264.623 43.5461C260.559 43.5461 257.265 46.8401 257.265 50.9035C257.265 54.9668 260.559 58.2608 264.623 58.2608H279.456C279.452 58.268 279.449 58.2752 279.445 58.2824L295.016 58.2824C295.017 58.2752 295.019 58.268 295.021 58.2608C295.59 55.9014 295.891 53.4376 295.891 50.9035C295.891 48.4515 295.609 46.0655 295.075 43.776C295.058 43.6993 295.039 43.6227 295.021 43.5461C291.712 29.827 279.358 19.6348 264.623 19.6348C247.353 19.6348 233.354 33.6342 233.354 50.9035C233.354 68.1727 247.353 82.1722 264.623 82.1722C275.804 82.1722 285.614 76.3038 291.141 67.4791L264.511 67.4791V67.4571C255.42 67.3972 248.069 60.0088 248.069 50.9035C248.069 41.7609 255.48 34.3494 264.623 34.3494C271.111 34.3494 276.75 38.0925 279.461 43.5461H264.623Z" fill="#53A8CB"/>
<path fill-rule="evenodd" clip-rule="evenodd" d="M331.758 43.5461C327.695 43.5461 324.401 46.8401 324.401 50.9035C324.401 54.9668 327.695 58.2608 331.758 58.2608H346.592C346.588 58.268 346.585 58.2752 346.581 58.2824L362.151 58.2824C362.153 58.2752 362.155 58.268 362.157 58.2608C362.726 55.9014 363.027 53.4376 363.027 50.9035C363.027 48.4515 362.745 46.0655 362.211 43.776C362.193 43.6993 362.175 43.6227 362.157 43.5461C358.848 29.827 346.494 19.6348 331.758 19.6348C314.489 19.6348 300.49 33.6342 300.49 50.9035C300.49 68.1727 314.489 82.1722 331.758 82.1722C342.939 82.1722 352.75 76.3038 358.277 67.4791L331.647 67.4791V67.4571C322.556 67.3972 315.204 60.0088 315.204 50.9035C315.204 41.7609 322.616 34.3494 331.758 34.3494C338.247 34.3494 343.886 38.0925 346.597 43.5461H331.758Z" fill="#53A8CB"/>
<path d="M24.0489 99.3728L20.6001 106.436C20.3058 107.024 19.9931 107.447 19.6621 107.705C19.331 107.944 18.9355 108.064 18.4757 108.064C17.8871 108.064 17.3905 107.861 16.9858 107.457C16.5812 107.034 16.057 106.279 15.4132 105.194L12.2128 99.3728V107.181C12.2128 107.972 12.0288 108.551 11.661 108.919C11.3115 109.287 10.7781 109.471 10.0607 109.471C9.25142 109.471 8.66284 109.296 8.29497 108.946C7.9271 108.579 7.74317 107.87 7.74317 106.822V94.7928C7.74317 93.3765 8.06505 92.3097 8.70882 91.5924C9.35259 90.875 10.4378 90.5164 11.9644 90.5164C12.5346 90.5164 13.0313 90.6175 13.4543 90.8198C13.8774 91.0038 14.19 91.2245 14.3924 91.482C14.6131 91.7211 14.8246 92.0246 15.0269 92.3925L18.724 100.476L22.6418 92.5304C23.3223 91.2061 24.5455 90.5439 26.3113 90.5439C27.139 90.5439 27.8471 90.6911 28.4357 90.9854C29.0243 91.2613 29.4841 91.7211 29.8152 92.3649C30.1647 92.9903 30.3394 93.7812 30.3394 94.7376V106.739C30.321 108.56 29.1714 109.471 26.8906 109.471C26.0629 109.471 25.3824 109.25 24.849 108.809C24.334 108.349 24.0673 107.613 24.0489 106.601V99.3728ZM66.2585 98.2692C67.2333 98.2692 67.9139 98.4255 68.3001 98.7382C68.7048 99.0509 68.9071 99.5843 68.9071 100.338C68.9071 100.964 68.668 101.414 68.1898 101.69C67.7299 101.948 67.0034 102.077 66.0101 102.077H61.5406V105.001L67.5276 105.029C68.5576 105.029 69.2934 105.185 69.7348 105.498C70.1946 105.792 70.4246 106.325 70.4246 107.098C70.4246 107.981 70.1578 108.597 69.6244 108.946C69.1094 109.296 68.3185 109.471 67.2517 109.471H58.3125C57.2273 109.471 56.4272 109.186 55.9122 108.615C55.4156 108.027 55.1673 106.997 55.1673 105.525V93.8823C55.1673 91.6751 56.2157 90.5715 58.3125 90.5715H67.2517C68.3185 90.5715 69.1094 90.7371 69.6244 91.0682C70.1578 91.3992 70.4246 91.997 70.4246 92.8615C70.4246 93.6708 70.1946 94.241 69.7348 94.5721C69.2934 94.8848 68.5576 95.0411 67.5276 95.0411H61.513V98.2692H66.2585ZM101.85 90.3784C104.039 90.3784 105.906 90.829 107.451 91.7303C108.996 92.6316 109.768 93.588 109.768 94.5997C109.768 94.8756 109.704 95.1147 109.575 95.317C109.465 95.501 109.318 95.6389 109.134 95.7309C108.968 95.8044 108.784 95.8412 108.582 95.8412C108.251 95.8412 107.754 95.6757 107.092 95.3446C106.43 94.9951 105.694 94.6549 104.885 94.3238C104.075 93.9743 103.331 93.7996 102.65 93.7996C101.565 93.7996 101.022 94.241 101.022 95.1239C101.022 95.3998 101.105 95.6665 101.27 95.924C101.454 96.1631 101.74 96.4206 102.126 96.6965C102.512 96.954 102.889 97.1839 103.257 97.3863C103.625 97.5886 104.131 97.8645 104.774 98.214C105.418 98.5451 105.961 98.8393 106.402 99.0969C107.819 99.9062 108.812 100.679 109.382 101.414C109.952 102.15 110.237 102.996 110.237 103.953C110.237 107.76 107.671 109.664 102.54 109.664C101.528 109.664 100.544 109.563 99.5875 109.36C98.6494 109.158 97.8217 108.891 97.1044 108.56C96.4055 108.229 95.7801 107.861 95.2283 107.457C94.6949 107.052 94.2902 106.638 94.0143 106.215C93.7384 105.792 93.6005 105.397 93.6005 105.029C93.6005 104.624 93.7292 104.284 93.9867 104.008C94.2626 103.714 94.6581 103.566 95.1731 103.566C95.5594 103.566 96.4882 103.815 97.9597 104.311C99.4312 104.79 100.618 105.029 101.519 105.029C102.347 105.029 102.76 104.744 102.76 104.173C102.76 104.008 102.724 103.861 102.65 103.732C102.595 103.585 102.484 103.447 102.319 103.318C102.172 103.171 101.997 103.042 101.795 102.932C101.611 102.803 101.344 102.647 100.995 102.463C100.664 102.279 100.323 102.095 99.9738 101.911C99.6427 101.727 99.2012 101.488 98.6494 101.194C98.0976 100.899 97.5642 100.605 97.0492 100.311C96.3687 99.9246 95.7801 99.4463 95.2835 98.8761C94.8052 98.3059 94.4558 97.7449 94.235 97.1931C94.0143 96.6229 93.904 96.0987 93.904 95.6205C93.904 94.0755 94.5937 92.8155 95.9732 91.8407C97.3527 90.8658 99.3116 90.3784 101.85 90.3784ZM142.159 90.3784C144.348 90.3784 146.215 90.829 147.76 91.7303C149.305 92.6316 150.077 93.588 150.077 94.5997C150.077 94.8756 150.013 95.1147 149.884 95.317C149.774 95.501 149.627 95.6389 149.443 95.7309C149.277 95.8044 149.093 95.8412 148.891 95.8412C148.56 95.8412 148.063 95.6757 147.401 95.3446C146.739 94.9951 146.003 94.6549 145.194 94.3238C144.385 93.9743 143.64 93.7996 142.959 93.7996C141.874 93.7996 141.331 94.241 141.331 95.1239C141.331 95.3998 141.414 95.6665 141.58 95.924C141.764 96.1631 142.049 96.4206 142.435 96.6965C142.821 96.954 143.198 97.1839 143.566 97.3863C143.934 97.5886 144.44 97.8645 145.084 98.214C145.727 98.5451 146.27 98.8393 146.711 99.0969C148.128 99.9062 149.121 100.679 149.691 101.414C150.261 102.15 150.546 102.996 150.546 103.953C150.546 107.76 147.98 109.664 142.849 109.664C141.837 109.664 140.853 109.563 139.897 109.36C138.959 109.158 138.131 108.891 137.413 108.56C136.715 108.229 136.089 107.861 135.537 107.457C135.004 107.052 134.599 106.638 134.323 106.215C134.048 105.792 133.91 105.397 133.91 105.029C133.91 104.624 134.038 104.284 134.296 104.008C134.572 103.714 134.967 103.566 135.482 103.566C135.868 103.566 136.797 103.815 138.269 104.311C139.74 104.79 140.927 105.029 141.828 105.029C142.656 105.029 143.069 104.744 143.069 104.173C143.069 104.008 143.033 103.861 142.959 103.732C142.904 103.585 142.794 103.447 142.628 103.318C142.481 103.171 142.306 103.042 142.104 102.932C141.92 102.803 141.653 102.647 141.304 102.463C140.973 102.279 140.632 102.095 140.283 101.911C139.952 101.727 139.51 101.488 138.959 101.194C138.407 100.899 137.873 100.605 137.358 100.311C136.678 99.9246 136.089 99.4463 135.593 98.8761C135.114 98.3059 134.765 97.7449 134.544 97.1931C134.323 96.6229 134.213 96.0987 134.213 95.6205C134.213 94.0755 134.903 92.8155 136.282 91.8407C137.662 90.8658 139.621 90.3784 142.159 90.3784ZM182.91 95.0687C182.119 95.0687 181.53 95.2986 181.144 95.7585C180.776 96.2183 180.592 97.0368 180.592 98.214V101.47H185.172V98.1588C185.172 97.3863 185.08 96.7701 184.896 96.3103C184.712 95.832 184.455 95.5101 184.123 95.3446C183.811 95.1607 183.406 95.0687 182.91 95.0687ZM185.172 105.277H180.592V106.739C180.592 107.677 180.344 108.367 179.847 108.809C179.35 109.25 178.495 109.471 177.281 109.471C176.766 109.471 176.343 109.397 176.012 109.25C175.681 109.103 175.387 108.855 175.129 108.505C174.89 108.156 174.706 107.65 174.577 106.988C174.467 106.307 174.375 105.498 174.301 104.56C174.246 103.603 174.219 102.398 174.219 100.945C174.219 99.6762 174.347 98.5175 174.605 97.469C174.881 96.4022 175.24 95.501 175.681 94.7652C176.141 94.0295 176.656 93.3857 177.226 92.8339C177.796 92.2637 178.412 91.8223 179.075 91.5096C179.755 91.1969 180.408 90.967 181.033 90.8198C181.677 90.6543 182.321 90.5715 182.965 90.5715C183.737 90.5715 184.501 90.6819 185.255 90.9026C186.009 91.1049 186.772 91.4636 187.545 91.9786C188.317 92.4936 188.989 93.1374 189.559 93.9099C190.147 94.6641 190.626 95.6481 190.993 96.8621C191.361 98.076 191.545 99.4371 191.545 100.945C191.545 103.373 191.453 105.176 191.269 106.353C191.104 107.512 190.809 108.321 190.386 108.781C189.982 109.241 189.347 109.471 188.483 109.471C187.269 109.471 186.413 109.25 185.917 108.809C185.42 108.367 185.172 107.677 185.172 106.739V105.277ZM233.305 106.85C233.305 107.659 233.066 108.303 232.588 108.781C232.109 109.241 231.41 109.471 230.491 109.471C230.252 109.471 230.013 109.443 229.773 109.388C229.534 109.333 229.277 109.232 229.001 109.084C228.743 108.937 228.513 108.799 228.311 108.671C228.109 108.542 227.851 108.349 227.539 108.091C227.244 107.815 227.005 107.604 226.821 107.457C226.656 107.291 226.389 107.034 226.021 106.684C225.653 106.335 225.387 106.077 225.221 105.912L220.172 101.139V107.126C220.172 108.027 219.997 108.643 219.648 108.974C219.317 109.305 218.783 109.471 218.048 109.471C217.238 109.471 216.641 109.287 216.254 108.919C215.868 108.551 215.675 107.935 215.675 107.07V93.7444C215.675 92.696 215.942 91.9051 216.475 91.3716C217.008 90.8382 217.772 90.5715 218.765 90.5715C219.446 90.5715 219.988 90.6819 220.393 90.9026C220.816 91.1049 221.312 91.482 221.883 92.0338L228.863 98.9865V92.9719C228.863 92.181 229.056 91.5924 229.442 91.2061C229.847 90.8014 230.39 90.5991 231.07 90.5991C231.861 90.5991 232.431 90.7831 232.781 91.1509C233.13 91.5188 233.305 92.1166 233.305 92.9443V106.85ZM268.384 95.2067C268.384 94.6365 268.007 94.3514 267.253 94.3514C266.481 94.3514 265.819 94.7836 265.267 95.6481C264.715 96.5126 264.439 97.9565 264.439 99.9797C264.439 101.856 264.752 103.226 265.377 104.091C266.021 104.937 266.775 105.36 267.64 105.36C267.915 105.36 268.164 105.305 268.384 105.194C268.624 105.084 268.817 104.918 268.964 104.698C269.111 104.477 269.185 104.21 269.185 103.898C268.743 103.898 268.357 103.815 268.026 103.649C267.713 103.484 267.483 103.281 267.336 103.042C267.189 102.785 267.115 102.509 267.115 102.215C267.115 101.552 267.29 101.056 267.64 100.725C267.989 100.394 268.587 100.228 269.433 100.228H272.771C273.838 100.228 274.666 100.458 275.254 100.918C275.843 101.378 276.137 102.187 276.137 103.346C276.137 105.038 275.328 106.519 273.709 107.788C272.091 109.038 270.169 109.664 267.943 109.664C265.901 109.664 264.08 109.296 262.48 108.56C260.898 107.824 259.638 106.73 258.7 105.277C257.781 103.806 257.321 102.067 257.321 100.063C257.321 97.0828 258.222 94.7284 260.025 92.9995C261.827 91.2705 264.218 90.406 267.198 90.406C268.375 90.406 269.433 90.498 270.371 90.6819C271.309 90.8474 272.082 91.0773 272.688 91.3716C273.314 91.6659 273.829 92.0246 274.234 92.4477C274.657 92.8523 274.951 93.2846 275.116 93.7444C275.3 94.2042 275.392 94.6824 275.392 95.1791C275.392 95.5285 275.337 95.8688 275.227 96.1999C275.116 96.5126 274.914 96.8345 274.62 97.1656C274.344 97.4782 273.912 97.7357 273.323 97.9381C272.734 98.1404 272.026 98.2416 271.199 98.2416C269.985 98.2416 269.212 98.0668 268.881 97.7174C268.55 97.3495 268.384 96.5126 268.384 95.2067ZM311.643 98.2692C312.618 98.2692 313.298 98.4255 313.684 98.7382C314.089 99.0509 314.291 99.5843 314.291 100.338C314.291 100.964 314.052 101.414 313.574 101.69C313.114 101.948 312.388 102.077 311.394 102.077H306.925V105.001L312.912 105.029C313.942 105.029 314.678 105.185 315.119 105.498C315.579 105.792 315.809 106.325 315.809 107.098C315.809 107.981 315.542 108.597 315.009 108.946C314.494 109.296 313.703 109.471 312.636 109.471H303.697C302.612 109.471 301.811 109.186 301.296 108.615C300.8 108.027 300.551 106.997 300.551 105.525V93.8823C300.551 91.6751 301.6 90.5715 303.697 90.5715H312.636C313.703 90.5715 314.494 90.7371 315.009 91.0682C315.542 91.3992 315.809 91.997 315.809 92.8615C315.809 93.6708 315.579 94.241 315.119 94.5721C314.678 94.8848 313.942 95.0411 312.912 95.0411H306.897V98.2692H311.643ZM350.587 96.0619C350.587 95.1791 350.265 94.5721 349.621 94.241C348.978 93.9099 347.893 93.7444 346.366 93.7444V98.5175C347.801 98.5175 348.858 98.3427 349.539 97.9933C350.238 97.6254 350.587 96.9816 350.587 96.0619ZM346.366 105.332C346.366 108.091 345.29 109.471 343.138 109.471C342.053 109.471 341.253 109.186 340.737 108.615C340.241 108.027 339.993 106.997 339.993 105.525V93.8823C339.993 92.8155 340.278 92.0062 340.848 91.4544C341.436 90.8842 342.2 90.5991 343.138 90.5991H348.932C351.194 90.5991 353.024 91.1325 354.422 92.1993C355.82 93.2478 356.519 94.5997 356.519 96.2551C356.519 97.5058 356.252 98.4899 355.719 99.2072C355.204 99.9062 354.367 100.421 353.208 100.752C354.091 100.807 354.91 101.24 355.664 102.049C356.418 102.84 356.795 103.833 356.795 105.029C356.795 106.243 356.675 107.181 356.436 107.843C356.215 108.487 355.894 108.919 355.471 109.14C355.048 109.36 354.45 109.471 353.677 109.471C352.592 109.471 351.792 109.25 351.277 108.809C350.78 108.349 350.532 107.659 350.532 106.739C350.532 105.599 350.422 104.725 350.201 104.118C349.98 103.493 349.695 103.088 349.346 102.904C348.996 102.72 348.509 102.628 347.883 102.628L346.366 102.656V105.332Z" fill="#53A8CB"/>
</svg>
