<svg width="134" height="43" viewBox="0 0 134 43" fill="none" xmlns="http://www.w3.org/2000/svg">
<path fill-rule="evenodd" clip-rule="evenodd" d="M70.1625 18.9739C70.1625 17.6602 71.2275 16.5952 72.5412 16.5952H72.6628C73.9766 16.5952 75.0415 17.6602 75.0415 18.9739C75.0415 20.2877 73.9766 21.3526 72.6628 21.3526H72.5412C71.2275 21.3526 70.1625 20.2877 70.1625 18.9739Z" fill="#EC99BA"/>
<path fill-rule="evenodd" clip-rule="evenodd" d="M72.5283 7.4707C66.1823 7.4707 61.038 12.6151 61.038 18.961C61.038 25.3069 66.1823 30.4513 72.5283 30.4513C78.8742 30.4513 84.0186 25.3069 84.0186 18.961C84.0186 12.6151 78.8742 7.4707 72.5283 7.4707ZM72.5282 12.8779C69.1686 12.8779 66.4451 15.6014 66.4451 18.961C66.4451 22.3206 69.1686 25.0441 72.5282 25.0441C75.8878 25.0441 78.6113 22.3206 78.6113 18.961C78.6113 15.6014 75.8878 12.8779 72.5282 12.8779Z" fill="#8881B9"/>
<path fill-rule="evenodd" clip-rule="evenodd" d="M84.0944 30.4926L83.3685 24.1224L77.5614 29.7848L84.0944 30.4926Z" fill="#8881B9"/>
<path fill-rule="evenodd" clip-rule="evenodd" d="M56.6217 0.373535C55.148 0.373535 53.9533 1.56821 53.9533 3.04192V3.11235C53.9533 4.58606 55.148 5.78074 56.6217 5.78074H56.6921C58.1658 5.78074 59.3605 4.58606 59.3605 3.11235V3.04192C59.3605 1.56821 58.1658 0.373535 56.6921 0.373535H56.6217ZM53.9533 10.1389C53.9533 8.66516 55.148 7.47049 56.6217 7.47049H56.6921C58.1658 7.47049 59.3605 8.66516 59.3605 10.1389V25.0439C59.3605 28.0302 56.9396 30.4511 53.9533 30.4511V10.1389ZM47.689 27.5785C47.689 26.1787 48.8238 25.0439 50.2236 25.0439H53.0962V27.9165C53.0962 29.3163 51.9614 30.4511 50.5615 30.4511H50.2236C48.8238 30.4511 47.689 29.3163 47.689 27.9165V27.5785Z" fill="#53A8CB"/>
<path fill-rule="evenodd" clip-rule="evenodd" d="M0.113525 18.961C0.113525 12.6151 5.25791 7.4707 11.6038 7.4707H18.5318L18.6253 7.47071C21.6116 7.47071 24.0325 9.89159 24.0325 12.8779H18.5318H13.725H11.537C8.1774 12.8779 5.4539 15.6014 5.4539 18.961C5.4539 22.3206 8.1774 25.0441 11.537 25.0441H13.387H18.5318H23.6945C23.6945 27.9485 21.4046 30.318 18.5318 30.4459V30.4513H18.2938C18.2916 30.4513 18.2895 30.4513 18.2873 30.4513H14.5323C14.5313 30.4513 14.5303 30.4513 14.5293 30.4513H11.6038C5.25792 30.4513 0.113525 25.3069 0.113525 18.961ZM13.132 21.3267L13.1336 21.3267L15.0247 21.3267L23.6682 21.3267C23.8237 21.3267 23.9498 21.2006 23.9498 21.045C23.9498 20.1044 23.3733 19.2984 22.5544 18.961C23.3733 18.6236 23.9498 17.8176 23.9498 16.877C23.9498 16.7214 23.8237 16.5954 23.6682 16.5954H15.0247H13.1336H11.4702C10.1637 16.5954 9.10452 17.6545 9.10452 18.961C9.10452 20.2675 10.1637 21.3267 11.4702 21.3267H13.132Z" fill="#53A8CB"/>
<path fill-rule="evenodd" clip-rule="evenodd" d="M35.8608 7.4707C41.4601 7.4707 45.9993 12.0099 45.9993 17.6092L45.9993 24.7346L45.9992 24.7346L45.9992 25.176C45.9992 28.0895 43.6374 30.4513 40.7239 30.4513C40.6511 30.4513 40.592 30.3923 40.592 30.3194L40.592 24.7346L40.592 17.6042C40.592 14.9912 38.4737 12.8729 35.8607 12.8729C33.2477 12.8729 31.1294 14.9912 31.1294 17.6042L31.1294 23.6702C31.1294 23.6724 31.1294 23.6746 31.1294 23.6767L31.1294 30.3194C31.1294 30.3923 31.0704 30.4513 30.9975 30.4513C28.0841 30.4513 25.7222 28.0895 25.7222 25.176L25.7222 22.0263C25.7222 22.0229 25.7222 22.0195 25.7223 22.0161L25.7223 17.6092C25.7223 12.0099 30.2614 7.4707 35.8608 7.4707Z" fill="#53A8CB"/>
<path fill-rule="evenodd" clip-rule="evenodd" d="M97.1987 16.2574C95.7055 16.2574 94.4951 17.4678 94.4951 18.961C94.4951 20.4542 95.7055 21.6646 97.1987 21.6646H102.649C102.648 21.6673 102.647 21.67 102.645 21.6727L108.367 21.6727C108.368 21.67 108.368 21.6673 108.369 21.6646C108.578 20.7976 108.689 19.8922 108.689 18.961C108.689 18.06 108.585 17.1832 108.389 16.3419C108.383 16.3137 108.376 16.2855 108.369 16.2574C107.153 11.216 102.613 7.4707 97.1987 7.4707C90.8528 7.4707 85.7084 12.6151 85.7084 18.961C85.7084 25.3069 90.8528 30.4513 97.1987 30.4513C101.307 30.4513 104.912 28.2949 106.943 25.0522L97.1579 25.0522V25.044C93.817 25.022 91.1156 22.307 91.1156 18.961C91.1156 15.6014 93.8391 12.8779 97.1987 12.8779C99.5831 12.8779 101.655 14.2534 102.651 16.2574H97.1987Z" fill="#53A8CB"/>
<path fill-rule="evenodd" clip-rule="evenodd" d="M121.869 16.2574C120.376 16.2574 119.165 17.4678 119.165 18.961C119.165 20.4542 120.376 21.6646 121.869 21.6646H127.32C127.318 21.6673 127.317 21.67 127.316 21.6727L133.038 21.6727C133.038 21.67 133.039 21.6673 133.039 21.6646C133.249 20.7976 133.359 19.8922 133.359 18.961C133.359 18.06 133.256 17.1832 133.059 16.3419C133.053 16.3137 133.046 16.2855 133.039 16.2574C131.824 11.216 127.284 7.4707 121.869 7.4707C115.523 7.4707 110.379 12.6151 110.379 18.961C110.379 25.3069 115.523 30.4513 121.869 30.4513C125.978 30.4513 129.583 28.2949 131.614 25.0522L121.828 25.0522V25.044C118.487 25.022 115.786 22.307 115.786 18.961C115.786 15.6014 118.509 12.8779 121.869 12.8779C124.253 12.8779 126.326 14.2534 127.322 16.2574H121.869Z" fill="#53A8CB"/>
<path d="M8.79505 36.5852L7.52774 39.1807C7.4196 39.397 7.30469 39.5524 7.18303 39.647C7.06137 39.7349 6.91605 39.7788 6.74708 39.7788C6.53079 39.7788 6.34829 39.7045 6.1996 39.5558C6.0509 39.4003 5.85827 39.1232 5.6217 38.7244L4.44563 36.5852V39.4544C4.44563 39.745 4.37804 39.9579 4.24286 40.0931C4.11444 40.2283 3.91843 40.2959 3.65483 40.2959C3.35744 40.2959 3.14115 40.2317 3.00597 40.1033C2.87079 39.9681 2.8032 39.7079 2.8032 39.3226V34.9022C2.8032 34.3818 2.92148 33.9897 3.15804 33.7261C3.39461 33.4625 3.79339 33.3307 4.35439 33.3307C4.56392 33.3307 4.74641 33.3679 4.90187 33.4423C5.05732 33.5099 5.17223 33.591 5.24658 33.6856C5.32768 33.7735 5.40541 33.885 5.47976 34.0202L6.83832 36.9907L8.27799 34.0709C8.52807 33.5842 8.97755 33.3409 9.62641 33.3409C9.93057 33.3409 10.1908 33.395 10.4071 33.5031C10.6234 33.6045 10.7923 33.7735 10.914 34.01C11.0424 34.2398 11.1066 34.5305 11.1066 34.8819V39.2922C11.0999 39.9613 10.6774 40.2959 9.83932 40.2959C9.53516 40.2959 9.28508 40.2148 9.08907 40.0526C8.89982 39.8836 8.80181 39.6132 8.79505 39.2415V36.5852ZM24.3058 36.1797C24.664 36.1797 24.9141 36.2371 25.056 36.352C25.2047 36.4669 25.2791 36.6629 25.2791 36.9401C25.2791 37.1699 25.1912 37.3355 25.0155 37.4368C24.8465 37.5315 24.5795 37.5788 24.2146 37.5788H22.5721V38.6535L24.7722 38.6636C25.1507 38.6636 25.421 38.7211 25.5833 38.836C25.7522 38.9441 25.8367 39.1401 25.8367 39.424C25.8367 39.7484 25.7387 39.9748 25.5427 40.1033C25.3534 40.2317 25.0628 40.2959 24.6708 40.2959H21.3859C20.9871 40.2959 20.6931 40.1911 20.5039 39.9816C20.3214 39.7653 20.2301 39.3868 20.2301 38.8461V34.5676C20.2301 33.7566 20.6154 33.351 21.3859 33.351H24.6708C25.0628 33.351 25.3534 33.4119 25.5427 33.5335C25.7387 33.6552 25.8367 33.8748 25.8367 34.1925C25.8367 34.4899 25.7522 34.6994 25.5833 34.8211C25.421 34.936 25.1507 34.9935 24.7722 34.9935H22.562V36.1797H24.3058ZM37.3846 33.2801C38.1889 33.2801 38.8749 33.4456 39.4427 33.7768C40.0104 34.108 40.2943 34.4595 40.2943 34.8312C40.2943 34.9326 40.2707 35.0205 40.2234 35.0948C40.1828 35.1624 40.1287 35.2131 40.0611 35.2469C40.0003 35.274 39.9327 35.2875 39.8584 35.2875C39.7367 35.2875 39.5542 35.2266 39.3109 35.105C39.0676 34.9766 38.7972 34.8515 38.4998 34.7299C38.2024 34.6014 37.9287 34.5372 37.6786 34.5372C37.2798 34.5372 37.0804 34.6994 37.0804 35.0239C37.0804 35.1253 37.1108 35.2233 37.1717 35.3179C37.2393 35.4058 37.344 35.5004 37.486 35.6018C37.6279 35.6964 37.7665 35.7809 37.9016 35.8552C38.0368 35.9296 38.2227 36.031 38.4593 36.1594C38.6958 36.2811 38.8952 36.3892 39.0574 36.4838C39.5779 36.7812 39.9429 37.0651 40.1524 37.3355C40.3619 37.6058 40.4667 37.9167 40.4667 38.2682C40.4667 39.6673 39.5238 40.3669 37.638 40.3669C37.2663 40.3669 36.9047 40.3297 36.5532 40.2553C36.2085 40.181 35.9044 40.083 35.6408 39.9613C35.3839 39.8397 35.1541 39.7045 34.9513 39.5558C34.7553 39.4071 34.6066 39.255 34.5052 39.0996C34.4039 38.9441 34.3532 38.7988 34.3532 38.6636C34.3532 38.5149 34.4005 38.3899 34.4951 38.2885C34.5965 38.1803 34.7418 38.1263 34.9311 38.1263C35.073 38.1263 35.4143 38.2175 35.955 38.4C36.4958 38.5757 36.9317 38.6636 37.2629 38.6636C37.5671 38.6636 37.7191 38.5588 37.7191 38.3493C37.7191 38.2885 37.7056 38.2344 37.6786 38.1871C37.6583 38.133 37.6178 38.0823 37.5569 38.035C37.5029 37.9809 37.4386 37.9336 37.3643 37.8931C37.2967 37.8458 37.1987 37.7883 37.0703 37.7207C36.9486 37.6531 36.8236 37.5855 36.6952 37.5179C36.5735 37.4504 36.4113 37.3625 36.2085 37.2543C36.0057 37.1462 35.8097 37.0381 35.6205 36.9299C35.3704 36.788 35.1541 36.6122 34.9716 36.4027C34.7959 36.1932 34.6675 35.987 34.5863 35.7843C34.5052 35.5747 34.4647 35.3821 34.4647 35.2064C34.4647 34.6386 34.7181 34.1756 35.2251 33.8174C35.732 33.4592 36.4518 33.2801 37.3846 33.2801ZM52.197 33.2801C53.0013 33.2801 53.6873 33.4456 54.2551 33.7768C54.8228 34.108 55.1067 34.4595 55.1067 34.8312C55.1067 34.9326 55.083 35.0205 55.0357 35.0948C54.9952 35.1624 54.9411 35.2131 54.8735 35.2469C54.8127 35.274 54.7451 35.2875 54.6708 35.2875C54.5491 35.2875 54.3666 35.2266 54.1233 35.105C53.8799 34.9766 53.6096 34.8515 53.3122 34.7299C53.0148 34.6014 52.7411 34.5372 52.491 34.5372C52.0922 34.5372 51.8928 34.6994 51.8928 35.0239C51.8928 35.1253 51.9232 35.2233 51.984 35.3179C52.0516 35.4058 52.1564 35.5004 52.2983 35.6018C52.4403 35.6964 52.5788 35.7809 52.714 35.8552C52.8492 35.9296 53.0351 36.031 53.2716 36.1594C53.5082 36.2811 53.7076 36.3892 53.8698 36.4838C54.3903 36.7812 54.7552 37.0651 54.9648 37.3355C55.1743 37.6058 55.2791 37.9167 55.2791 38.2682C55.2791 39.6673 54.3362 40.3669 52.4504 40.3669C52.0787 40.3669 51.7171 40.3297 51.3656 40.2553C51.0209 40.181 50.7167 40.083 50.4531 39.9613C50.1963 39.8397 49.9665 39.7045 49.7637 39.5558C49.5677 39.4071 49.419 39.255 49.3176 39.0996C49.2162 38.9441 49.1655 38.7988 49.1655 38.6636C49.1655 38.5149 49.2129 38.3899 49.3075 38.2885C49.4089 38.1803 49.5542 38.1263 49.7434 38.1263C49.8854 38.1263 50.2267 38.2175 50.7674 38.4C51.3081 38.5757 51.7441 38.6636 52.0753 38.6636C52.3794 38.6636 52.5315 38.5588 52.5315 38.3493C52.5315 38.2885 52.518 38.2344 52.491 38.1871C52.4707 38.133 52.4301 38.0823 52.3693 38.035C52.3152 37.9809 52.251 37.9336 52.1767 37.8931C52.1091 37.8458 52.0111 37.7883 51.8827 37.7207C51.761 37.6531 51.636 37.5855 51.5075 37.5179C51.3859 37.4504 51.2237 37.3625 51.0209 37.2543C50.8181 37.1462 50.6221 37.0381 50.4329 36.9299C50.1828 36.788 49.9665 36.6122 49.784 36.4027C49.6083 36.1932 49.4798 35.987 49.3987 35.7843C49.3176 35.5747 49.2771 35.3821 49.2771 35.2064C49.2771 34.6386 49.5305 34.1756 50.0375 33.8174C50.5444 33.4592 51.2642 33.2801 52.197 33.2801ZM67.1715 35.0036C66.8809 35.0036 66.6646 35.0881 66.5227 35.2571C66.3875 35.426 66.3199 35.7268 66.3199 36.1594V37.3557H68.0029V36.1391C68.0029 35.8552 67.9691 35.6288 67.9015 35.4598C67.8339 35.2841 67.7393 35.1658 67.6176 35.105C67.5027 35.0374 67.354 35.0036 67.1715 35.0036ZM68.0029 38.7548H66.3199V39.2922C66.3199 39.6369 66.2287 39.8904 66.0462 40.0526C65.8637 40.2148 65.5494 40.2959 65.1033 40.2959C64.914 40.2959 64.7586 40.2689 64.6369 40.2148C64.5153 40.1607 64.4071 40.0695 64.3125 39.9411C64.2246 39.8126 64.157 39.6268 64.1097 39.3834C64.0692 39.1334 64.0354 38.836 64.0083 38.4912C63.9881 38.1398 63.9779 37.6971 63.9779 37.1631C63.9779 36.6967 64.0252 36.2709 64.1199 35.8856C64.2212 35.4936 64.353 35.1624 64.5153 34.8921C64.6842 34.6217 64.8735 34.3852 65.083 34.1824C65.2925 33.9729 65.519 33.8106 65.7623 33.6957C66.0124 33.5808 66.2523 33.4963 66.4821 33.4423C66.7187 33.3814 66.9553 33.351 67.1918 33.351C67.4757 33.351 67.7562 33.3916 68.0333 33.4727C68.3104 33.547 68.5909 33.6788 68.8748 33.8681C69.1587 34.0573 69.4054 34.2939 69.6149 34.5778C69.8312 34.8549 70.007 35.2165 70.1421 35.6626C70.2773 36.1087 70.3449 36.6089 70.3449 37.1631C70.3449 38.0553 70.3111 38.7177 70.2435 39.1502C70.1827 39.5761 70.0745 39.8735 69.9191 40.0424C69.7704 40.2114 69.5372 40.2959 69.2195 40.2959C68.7734 40.2959 68.4591 40.2148 68.2766 40.0526C68.0942 39.8904 68.0029 39.6369 68.0029 39.2922V38.7548ZM85.6903 39.3327C85.6903 39.6301 85.6025 39.8667 85.4267 40.0424C85.251 40.2114 84.9942 40.2959 84.6562 40.2959C84.5684 40.2959 84.4805 40.2858 84.3926 40.2655C84.3048 40.2452 84.2101 40.208 84.1087 40.154C84.0141 40.0999 83.9296 40.0492 83.8553 40.0019C83.7809 39.9546 83.6863 39.8836 83.5714 39.789C83.4633 39.6876 83.3754 39.6099 83.3078 39.5558C83.247 39.495 83.149 39.4003 83.0138 39.2719C82.8786 39.1435 82.7806 39.0489 82.7198 38.988L80.8644 37.2341V39.4341C80.8644 39.7653 80.8002 39.9917 80.6718 40.1134C80.5501 40.2351 80.3541 40.2959 80.0838 40.2959C79.7864 40.2959 79.5667 40.2283 79.4248 40.0931C79.2828 39.9579 79.2118 39.7315 79.2118 39.4138V34.517C79.2118 34.1317 79.3098 33.8411 79.5059 33.645C79.7019 33.449 79.9824 33.351 80.3474 33.351C80.5974 33.351 80.7968 33.3916 80.9455 33.4727C81.101 33.547 81.2835 33.6856 81.493 33.8884L84.058 36.4433V34.2331C84.058 33.9424 84.129 33.7261 84.271 33.5842C84.4197 33.4355 84.619 33.3612 84.8691 33.3612C85.1598 33.3612 85.3693 33.4288 85.4977 33.5639C85.6261 33.6991 85.6903 33.9188 85.6903 34.2229V39.3327ZM98.581 35.0543C98.581 34.8448 98.4424 34.74 98.1653 34.74C97.8814 34.74 97.6381 34.8988 97.4354 35.2165C97.2326 35.5342 97.1312 36.0648 97.1312 36.8083C97.1312 37.4977 97.2461 38.0012 97.4759 38.3189C97.7125 38.6298 97.9896 38.7853 98.3073 38.7853C98.4086 38.7853 98.4999 38.765 98.581 38.7244C98.6689 38.6839 98.7398 38.623 98.7939 38.5419C98.848 38.4608 98.875 38.3628 98.875 38.2479C98.7128 38.2479 98.5709 38.2175 98.4492 38.1567C98.3343 38.0958 98.2498 38.0215 98.1957 37.9336C98.1417 37.839 98.1146 37.7376 98.1146 37.6295C98.1146 37.3861 98.1788 37.2037 98.3073 37.082C98.4357 36.9603 98.6554 36.8995 98.9663 36.8995H100.193C100.585 36.8995 100.889 36.984 101.105 37.153C101.322 37.3219 101.43 37.6193 101.43 38.0452C101.43 38.667 101.133 39.2111 100.538 39.6774C99.9429 40.1371 99.2366 40.3669 98.4188 40.3669C97.6685 40.3669 96.9994 40.2317 96.4114 39.9613C95.8301 39.691 95.3671 39.2888 95.0224 38.7548C94.6844 38.2141 94.5155 37.5754 94.5155 36.8387C94.5155 35.7437 94.8467 34.8786 95.509 34.2432C96.1714 33.6079 97.0501 33.2902 98.145 33.2902C98.5776 33.2902 98.9663 33.324 99.311 33.3916C99.6557 33.4524 99.9396 33.5369 100.163 33.645C100.392 33.7532 100.582 33.885 100.73 34.0404C100.886 34.1891 100.994 34.348 101.055 34.517C101.122 34.6859 101.156 34.8617 101.156 35.0442C101.156 35.1726 101.136 35.2976 101.095 35.4193C101.055 35.5342 100.98 35.6525 100.872 35.7741C100.771 35.889 100.612 35.9837 100.396 36.058C100.18 36.1324 99.9193 36.1695 99.6151 36.1695C99.169 36.1695 98.8852 36.1053 98.7635 35.9769C98.6418 35.8417 98.581 35.5342 98.581 35.0543ZM114.477 36.1797C114.835 36.1797 115.085 36.2371 115.227 36.352C115.376 36.4669 115.45 36.6629 115.45 36.9401C115.45 37.1699 115.363 37.3355 115.187 37.4368C115.018 37.5315 114.751 37.5788 114.386 37.5788H112.743V38.6535L114.943 38.6636C115.322 38.6636 115.592 38.7211 115.755 38.836C115.924 38.9441 116.008 39.1401 116.008 39.424C116.008 39.7484 115.91 39.9748 115.714 40.1033C115.525 40.2317 115.234 40.2959 114.842 40.2959H111.557C111.158 40.2959 110.864 40.1911 110.675 39.9816C110.493 39.7653 110.401 39.3868 110.401 38.8461V34.5676C110.401 33.7566 110.787 33.351 111.557 33.351H114.842C115.234 33.351 115.525 33.4119 115.714 33.5335C115.91 33.6552 116.008 33.8748 116.008 34.1925C116.008 34.4899 115.924 34.6994 115.755 34.8211C115.592 34.936 115.322 34.9935 114.943 34.9935H112.733V36.1797H114.477ZM128.788 35.3686C128.788 35.0442 128.67 34.8211 128.433 34.6994C128.197 34.5778 127.798 34.517 127.237 34.517V36.2709C127.764 36.2709 128.153 36.2067 128.403 36.0783C128.66 35.9431 128.788 35.7065 128.788 35.3686ZM127.237 38.7751C127.237 39.789 126.841 40.2959 126.051 40.2959C125.652 40.2959 125.358 40.1911 125.169 39.9816C124.986 39.7653 124.895 39.3868 124.895 38.8461V34.5676C124.895 34.1756 125 33.8782 125.209 33.6755C125.425 33.4659 125.706 33.3612 126.051 33.3612H128.18C129.011 33.3612 129.684 33.5572 130.197 33.9492C130.711 34.3345 130.968 34.8312 130.968 35.4396C130.968 35.8992 130.87 36.2608 130.674 36.5244C130.485 36.7812 130.177 36.9705 129.751 37.0921C130.076 37.1124 130.376 37.2712 130.653 37.5686C130.931 37.8593 131.069 38.2243 131.069 38.6636C131.069 39.1097 131.025 39.4544 130.937 39.6977C130.856 39.9343 130.738 40.0931 130.583 40.1742C130.427 40.2553 130.207 40.2959 129.924 40.2959C129.525 40.2959 129.231 40.2148 129.041 40.0526C128.859 39.8836 128.768 39.6301 128.768 39.2922C128.768 38.8731 128.727 38.5521 128.646 38.329C128.565 38.0992 128.46 37.9505 128.332 37.8829C128.203 37.8153 128.024 37.7815 127.794 37.7815L127.237 37.7917V38.7751Z" fill="#53A8CB"/>
</svg>
