<svg width="101" height="101" viewBox="0 0 101 101" fill="none" xmlns="http://www.w3.org/2000/svg">
<g id="groupicon">
<g id="groupicon_2">
<path id="Stroke 1" fill-rule="evenodd" clip-rule="evenodd" d="M70.8823 35.9412C70.8823 43.0879 65.2327 48.8824 58.2646 48.8824C51.2965 48.8824 45.647 43.0879 45.647 35.9412C45.647 28.7944 51.2965 23 58.2646 23C65.2327 23 70.8823 28.7944 70.8823 35.9412Z" stroke="#4A4A4A" stroke-width="2.4" stroke-linecap="round"/>
<path id="Stroke 3" d="M41.0586 65.3529C41.0586 56.2563 48.7618 48.8823 58.2645 48.8823C67.7672 48.8823 75.4704 56.2563 75.4704 65.3529" stroke="#4A4A4A" stroke-width="2.4" stroke-linecap="round"/>
<path id="Stroke 5" fill-rule="evenodd" clip-rule="evenodd" d="M43.3528 45.353C43.3528 49.9006 39.7581 53.5883 35.3228 53.5883C30.8886 53.5883 27.2939 49.9006 27.2939 45.353C27.2939 40.8042 30.8886 37.1177 35.3228 37.1177C39.7581 37.1177 43.3528 40.8042 43.3528 45.353Z" stroke="#4A4A4A" stroke-width="2.4" stroke-linecap="round"/>
<path id="Stroke 7" d="M25 65.3531C25 58.8556 29.8138 53.5884 35.7519 53.5884C38.7204 53.5884 41.4074 54.9049 43.3529 57.0326" stroke="#4A4A4A" stroke-width="2.4" stroke-linecap="round"/>
</g>
<path id="Stroke 3_2" fill-rule="evenodd" clip-rule="evenodd" d="M98.3191 50.6596C98.3191 76.9813 76.9813 98.3191 50.6596 98.3191C24.3379 98.3191 3 76.9813 3 50.6596C3 24.3379 24.3379 3 50.6596 3C76.9813 3 98.3191 24.3379 98.3191 50.6596Z" stroke="#53A8CB" stroke-width="4.8"/>
<path id="Combined Shape" fill-rule="evenodd" clip-rule="evenodd" d="M51 72C50.4477 72 50 72.4477 50 73V78H45C44.4477 78 44 78.4477 44 79C44 79.5523 44.4477 80 45 80H50V85C50 85.5523 50.4477 86 51 86C51.5523 86 52 85.5523 52 85V80H57C57.5523 80 58 79.5523 58 79C58 78.4477 57.5523 78 57 78H52V73C52 72.4477 51.5523 72 51 72Z" fill="#4A4A4A"/>
</g>
</svg>
