<svg width="24" height="25" viewBox="0 0 24 25" fill="none" xmlns="http://www.w3.org/2000/svg">
<path fill-rule="evenodd" clip-rule="evenodd" d="M18.8734 9.60945C18.8734 11.9884 16.9929 13.9171 14.6734 13.9171C12.354 13.9171 10.4734 11.9884 10.4734 9.60945C10.4734 7.23053 12.354 5.30176 14.6734 5.30176C16.9929 5.30176 18.8734 7.23053 18.8734 9.60945Z" stroke="#47525D" stroke-width="1.2" stroke-linecap="round"/>
<path d="M8.94531 19.3995C8.94531 16.3715 11.5094 13.917 14.6726 13.917C17.8357 13.917 20.3999 16.3715 20.3999 19.3995" stroke="#47525D" stroke-width="1.2" stroke-linecap="round"/>
<path fill-rule="evenodd" clip-rule="evenodd" d="M9.70991 12.7422C9.70991 14.256 8.51338 15.4835 7.037 15.4835C5.56099 15.4835 4.36446 14.256 4.36446 12.7422C4.36446 11.2281 5.56099 10.001 7.037 10.001C8.51338 10.001 9.70991 11.2281 9.70991 12.7422Z" stroke="#47525D" stroke-width="1.2" stroke-linecap="round"/>
<path d="M3.60039 19.3995C3.60039 17.2367 5.20273 15.4834 7.17933 15.4834C8.16746 15.4834 9.06186 15.9216 9.70948 16.6299" stroke="#47525D" stroke-width="1.2" stroke-linecap="round"/>
</svg>
