<svg width="63" height="80" viewBox="0 0 63 80" fill="none" xmlns="http://www.w3.org/2000/svg">
<g id="handsicon">
<path id="Fill 1" fill-rule="evenodd" clip-rule="evenodd" d="M59.1745 79.7588C59.1745 79.7588 67.5688 58.5756 58.0132 36.4087C48.4569 14.2425 34.1062 0 34.1062 0C34.1062 0 30.9531 2.17188 32.7985 7.31812C32.7985 7.31812 49.9453 30.7919 44.9995 47.7425C40.0543 64.6931 35.8747 36.5137 35.8747 36.5137C35.8747 36.5137 29.6682 35.1431 31.9725 44.5925C34.2762 54.0412 40.0601 69.8244 59.1745 79.7588Z" fill="white"/>
<path id="Fill 3" fill-rule="evenodd" clip-rule="evenodd" d="M42.0199 52.4188C42.0199 52.4188 47.7071 45.3738 30.6907 15.7788C30.6907 15.7788 28.5971 9.90195 31.3532 8.5332C31.3532 8.5332 53.1366 33.3126 42.0199 52.4188Z" fill="white"/>
<path id="Fill 5" fill-rule="evenodd" clip-rule="evenodd" d="M3.40938 79.7588C3.40938 79.7588 -4.98553 58.5756 4.57074 36.4087C14.127 14.2425 28.4777 0 28.4777 0C28.4777 0 31.6308 2.17188 29.7854 7.31812C29.7854 7.31812 12.6379 30.7919 17.5837 47.7425C22.5289 64.6931 26.7086 36.5137 26.7086 36.5137C26.7086 36.5137 32.915 35.1431 30.6114 44.5925C28.3077 54.0412 22.5238 69.8244 3.40938 79.7588Z" fill="white"/>
<path id="Fill 7" fill-rule="evenodd" clip-rule="evenodd" d="M20.5633 52.4188C20.5633 52.4188 14.8767 45.3738 31.8931 15.7788C31.8931 15.7788 33.9861 9.90195 31.2306 8.5332C31.2306 8.5332 9.44729 33.3126 20.5633 52.4188Z" fill="white"/>
</g>
</svg>
