<svg width="287" height="86" viewBox="0 0 287 86" fill="none" xmlns="http://www.w3.org/2000/svg">
<path fill-rule="evenodd" clip-rule="evenodd" d="M169.089 34.8817C169.089 32.8467 170.738 31.197 172.773 31.197H176.714C178.749 31.197 180.399 32.8467 180.399 34.8817V38.8567C180.399 40.8917 178.749 42.5414 176.714 42.5414H172.773C170.738 42.5414 169.089 40.8917 169.089 38.8567V34.8817Z" fill="#EC99BA"/>
<path d="M164.151 60.0469L166.707 67.2656L169.25 60.0469H171.944V70H169.886V67.2793L170.091 62.583L167.405 70H165.996L163.317 62.5898L163.522 67.2793V70H161.471V60.0469H164.151ZM180.89 65.6865H176.952V68.3525H181.573V70H174.901V60.0469H181.56V61.708H176.952V64.0801H180.89V65.6865ZM189.104 67.3887C189.104 67.0013 188.967 66.7051 188.694 66.5C188.421 66.2904 187.928 66.0716 187.217 65.8438C186.507 65.6113 185.944 65.3835 185.529 65.1602C184.399 64.5495 183.834 63.7269 183.834 62.6924C183.834 62.1546 183.984 61.6761 184.285 61.2568C184.59 60.833 185.025 60.5026 185.59 60.2656C186.16 60.0286 186.798 59.9102 187.505 59.9102C188.215 59.9102 188.849 60.04 189.405 60.2998C189.961 60.555 190.392 60.9173 190.697 61.3867C191.007 61.8561 191.162 62.3893 191.162 62.9863H189.111C189.111 62.5306 188.967 62.1774 188.68 61.9268C188.393 61.6715 187.99 61.5439 187.47 61.5439C186.969 61.5439 186.579 61.651 186.301 61.8652C186.023 62.0749 185.884 62.3529 185.884 62.6992C185.884 63.0228 186.046 63.2939 186.37 63.5127C186.698 63.7314 187.179 63.9365 187.812 64.1279C188.979 64.4788 189.829 64.9141 190.362 65.4336C190.895 65.9531 191.162 66.6003 191.162 67.375C191.162 68.2363 190.836 68.9131 190.184 69.4053C189.533 69.8929 188.655 70.1367 187.552 70.1367C186.787 70.1367 186.09 69.9977 185.461 69.7197C184.832 69.4372 184.351 69.0521 184.018 68.5645C183.69 68.0768 183.526 67.5117 183.526 66.8691H185.584C185.584 67.9674 186.24 68.5166 187.552 68.5166C188.04 68.5166 188.421 68.4186 188.694 68.2227C188.967 68.0221 189.104 67.7441 189.104 67.3887ZM198.884 67.3887C198.884 67.0013 198.747 66.7051 198.474 66.5C198.201 66.2904 197.708 66.0716 196.997 65.8438C196.286 65.6113 195.724 65.3835 195.309 65.1602C194.179 64.5495 193.614 63.7269 193.614 62.6924C193.614 62.1546 193.764 61.6761 194.065 61.2568C194.37 60.833 194.805 60.5026 195.37 60.2656C195.94 60.0286 196.578 59.9102 197.285 59.9102C197.995 59.9102 198.629 60.04 199.185 60.2998C199.741 60.555 200.172 60.9173 200.477 61.3867C200.787 61.8561 200.942 62.3893 200.942 62.9863H198.891C198.891 62.5306 198.747 62.1774 198.46 61.9268C198.173 61.6715 197.77 61.5439 197.25 61.5439C196.749 61.5439 196.359 61.651 196.081 61.8652C195.803 62.0749 195.664 62.3529 195.664 62.6992C195.664 63.0228 195.826 63.2939 196.15 63.5127C196.478 63.7314 196.959 63.9365 197.592 64.1279C198.759 64.4788 199.609 64.9141 200.142 65.4336C200.675 65.9531 200.942 66.6003 200.942 67.375C200.942 68.2363 200.616 68.9131 199.964 69.4053C199.312 69.8929 198.435 70.1367 197.332 70.1367C196.567 70.1367 195.869 69.9977 195.241 69.7197C194.612 69.4372 194.131 69.0521 193.798 68.5645C193.47 68.0768 193.306 67.5117 193.306 66.8691H195.364C195.364 67.9674 196.02 68.5166 197.332 68.5166C197.82 68.5166 198.201 68.4186 198.474 68.2227C198.747 68.0221 198.884 67.7441 198.884 67.3887ZM209.122 67.9492H205.526L204.843 70H202.662L206.367 60.0469H208.268L211.993 70H209.812L209.122 67.9492ZM206.08 66.2881H208.568L207.317 62.5625L206.08 66.2881ZM222.183 70H220.132L216.14 63.4512V70H214.09V60.0469H216.14L220.139 66.6094V60.0469H222.183V70ZM233.016 68.7422C232.647 69.1842 232.125 69.5283 231.451 69.7744C230.776 70.016 230.029 70.1367 229.208 70.1367C228.347 70.1367 227.59 69.9499 226.939 69.5762C226.292 69.1979 225.79 68.651 225.435 67.9355C225.084 67.2201 224.904 66.3792 224.895 65.4131V64.7363C224.895 63.7428 225.061 62.8838 225.394 62.1592C225.731 61.43 226.214 60.874 226.843 60.4912C227.477 60.1038 228.217 59.9102 229.065 59.9102C230.245 59.9102 231.168 60.1927 231.833 60.7578C232.499 61.3184 232.893 62.1364 233.016 63.2119H231.02C230.929 62.6423 230.726 62.2253 230.411 61.9609C230.102 61.6966 229.673 61.5645 229.126 61.5645C228.429 61.5645 227.898 61.8265 227.534 62.3506C227.169 62.8747 226.984 63.654 226.98 64.6885V65.3242C226.98 66.3678 227.178 67.1562 227.575 67.6895C227.971 68.2227 228.552 68.4893 229.318 68.4893C230.088 68.4893 230.637 68.3252 230.965 67.9971V66.2812H229.099V64.7705H233.016V68.7422ZM241.839 65.6865H237.901V68.3525H242.522V70H235.851V60.0469H242.509V61.708H237.901V64.0801H241.839V65.6865ZM248.577 66.3564H246.943V70H244.892V60.0469H248.59C249.766 60.0469 250.673 60.3089 251.311 60.833C251.949 61.3571 252.268 62.0977 252.268 63.0547C252.268 63.7337 252.12 64.3011 251.824 64.7568C251.532 65.208 251.088 65.568 250.491 65.8369L252.644 69.9043V70H250.443L248.577 66.3564ZM246.943 64.6953H248.597C249.112 64.6953 249.511 64.5654 249.794 64.3057C250.076 64.0413 250.217 63.679 250.217 63.2188C250.217 62.7493 250.083 62.3802 249.814 62.1113C249.55 61.8424 249.142 61.708 248.59 61.708H246.943V64.6953Z" fill="#53A8CB"/>
<path fill-rule="evenodd" clip-rule="evenodd" d="M166.936 14.3333C158.796 14.3333 152.197 20.932 152.197 29.0721V44.972C152.197 53.112 158.796 59.7108 166.936 59.7108H182.699C190.839 59.7108 197.438 53.112 197.438 44.972V29.0721C197.438 20.932 190.839 14.3333 182.699 14.3333H166.936ZM170.877 25.6776C166.807 25.6776 163.507 28.977 163.507 33.0471V40.997C163.507 45.067 166.807 48.3664 170.877 48.3664H178.758C182.828 48.3664 186.128 45.067 186.128 40.997V33.0471C186.128 28.977 182.828 25.6776 178.758 25.6776H170.877Z" fill="#8881B9"/>
<path fill-rule="evenodd" clip-rule="evenodd" d="M198.252 60.4174L196.733 46.7349L184.578 58.8971L198.252 60.4174Z" fill="#8881B9"/>
<path d="M73.7993 31.2161C73.7993 29.5592 75.1425 28.2161 76.7993 28.2161H85.1096V56.558C85.1096 58.2148 83.7664 59.558 82.1096 59.558H76.7993C75.1425 59.558 73.7993 58.2148 73.7993 56.558V31.2161Z" fill="#53A8CB"/>
<path d="M99.2478 11.0376C99.2478 9.38074 100.591 8.0376 102.248 8.0376H107.558C109.215 8.0376 110.558 9.38074 110.558 11.0376V40.359C110.558 42.0159 109.215 43.359 107.558 43.359H99.2478V11.0376Z" fill="#53A8CB"/>
<path d="M133.178 17.8651C133.178 15.8301 134.828 14.1804 136.863 14.1804H140.804C142.839 14.1804 144.488 15.8301 144.488 17.8651V55.8733C144.488 57.9083 142.839 59.558 140.804 59.558H133.178V17.8651Z" fill="#53A8CB"/>
<path d="M86.5234 28.1257H94.3337C96.2667 28.1257 97.8337 29.6927 97.8337 31.6257V43.4829H90.0234C88.0904 43.4829 86.5234 41.9159 86.5234 39.9829V28.1257Z" fill="#53A8CB"/>
<path d="M119.041 51.7136C119.041 49.7806 120.608 48.2136 122.541 48.2136H130.351V56.058C130.351 57.991 128.784 59.558 126.851 59.558H122.541C120.608 59.558 119.041 57.991 119.041 56.058V51.7136Z" fill="#53A8CB"/>
<rect x="133.178" width="11.3103" height="11.3444" rx="3.6847" fill="#53A8CB"/>
<path d="M205.847 17.1804C205.847 15.5236 207.19 14.1804 208.847 14.1804H228.295C229.952 14.1804 231.295 15.5236 231.295 17.1804V25.5248H208.847C207.19 25.5248 205.847 24.1817 205.847 22.5248V17.1804Z" fill="#53A8CB"/>
<rect x="205.847" y="14.1804" width="11.3103" height="45.3776" rx="3.6847" fill="#53A8CB"/>
<rect x="208.675" y="31.197" width="25.4481" height="11.3444" rx="3.6847" fill="#53A8CB"/>
<path d="M205.847 51.2136C205.847 49.5568 207.19 48.2136 208.847 48.2136H239.777V56.558C239.777 58.2149 238.434 59.558 236.777 59.558H208.847C207.19 59.558 205.847 58.2149 205.847 56.558V51.2136Z" fill="#53A8CB"/>
<path d="M248.26 17.1804C248.26 15.5236 249.604 14.1804 251.26 14.1804H270.709C272.365 14.1804 273.709 15.5236 273.709 17.1804V25.5248H251.26C249.604 25.5248 248.26 24.1817 248.26 22.5248V17.1804Z" fill="#53A8CB"/>
<rect x="248.26" y="14.1804" width="11.3103" height="45.3776" rx="3.6847" fill="#53A8CB"/>
<rect x="251.088" y="31.197" width="25.4481" height="11.3444" rx="3.6847" fill="#53A8CB"/>
<path d="M248.26 51.2136C248.26 49.5568 249.604 48.2136 251.26 48.2136H282.191V56.558C282.191 58.2149 280.848 59.558 279.191 59.558H251.26C249.604 59.558 248.26 58.2149 248.26 56.558V51.2136Z" fill="#53A8CB"/>
<path fill-rule="evenodd" clip-rule="evenodd" d="M51.4975 59.7968C59.8746 53.8682 65.3452 44.0891 65.3452 33.0294C65.3452 14.9444 50.7172 0.283691 32.6726 0.283691C14.628 0.283691 0 14.9444 0 33.0294C0 44.1171 5.49839 53.9178 13.9115 59.8419V23.2466V18.7646V17.3735C13.9115 15.8472 15.1488 14.6099 16.675 14.6099H18.0662H23.9107H35.2823C37.5769 14.6099 39.437 16.47 39.437 18.7646V23.2466C39.437 25.5411 37.5769 27.4012 35.2823 27.4012H26.6742V33.7969H41.5997C43.8943 33.7969 45.7544 35.657 45.7544 37.9515V42.4335C45.7544 44.7281 43.8943 46.5882 41.5997 46.5882H26.6742V52.9838H47.3428C49.6374 52.9838 51.4975 54.8439 51.4975 57.1385V59.7968Z" fill="#53A8CB"/>
</svg>
