<svg width="912" height="751" viewBox="0 0 912 751" fill="none" xmlns="http://www.w3.org/2000/svg">
<path d="M517 471L705.5 601L814 481" stroke="#47525D" stroke-width="2" stroke-linejoin="round" stroke-dasharray="2 2"/>
<path d="M247.5 467H49L50.5 597" stroke="#47525D" stroke-width="2" stroke-linejoin="round"/>
<path d="M651.5 701H383L384.5 511" stroke="#47525D" stroke-width="2" stroke-linejoin="round" stroke-dasharray="2 2"/>
<rect y="617" width="100" height="100" rx="50" fill="url(#paint0_linear)"/>
<rect x="672" y="651" width="100" height="100" rx="50" fill="url(#paint1_linear)"/>
<rect x="812" y="381" width="100" height="100" rx="50" fill="url(#paint2_linear)"/>
<line x1="416.5" y1="70" x2="416.5" y2="229" stroke="#164664" stroke-dasharray="2 2"/>
<path d="M419 191.5L544 151.5H669" stroke="black" stroke-dasharray="2 2"/>
<path d="M164 151.5H289L414 191.5" stroke="black" stroke-dasharray="2 2"/>
<path fill-rule="evenodd" clip-rule="evenodd" d="M448.331 159.3C498.2 152.434 546.784 173.887 591.31 197.371C639.031 222.541 686.508 251.992 713.088 298.941C740.81 347.909 780.362 421.642 741.094 461.945C690.099 514.283 581.004 438.581 528.011 488.895C483.268 531.377 570.705 632.492 521.82 670.135C482.011 700.789 448.344 597.035 398.856 588.347C338.321 577.719 270.121 653.552 220.533 617.24C175.544 584.296 230.385 506.943 214.639 453.452C194.636 385.496 85.4379 331.904 118.031 269.009C151.457 204.506 259.652 256.443 328.598 233.543C374.086 218.434 400.847 165.838 448.331 159.3Z" fill="#164664"/>
<path d="M278.104 329H270.78V313.766H256.498V329H249.174V293.453H256.498V307.857H270.78V293.453H278.104V329ZM296.22 329.488C292.346 329.488 289.188 328.3 286.747 325.924C284.322 323.548 283.109 320.382 283.109 316.427V315.743C283.109 313.09 283.622 310.722 284.647 308.639C285.673 306.539 287.121 304.928 288.993 303.805C290.881 302.665 293.03 302.096 295.438 302.096C299.052 302.096 301.892 303.235 303.959 305.514C306.042 307.792 307.084 311.023 307.084 315.206V318.087H290.263C290.491 319.812 291.174 321.196 292.313 322.237C293.469 323.279 294.926 323.8 296.684 323.8C299.402 323.8 301.526 322.815 303.056 320.846L306.522 324.728C305.465 326.225 304.032 327.397 302.226 328.243C300.419 329.073 298.417 329.488 296.22 329.488ZM295.414 307.809C294.014 307.809 292.875 308.281 291.996 309.225C291.133 310.169 290.58 311.52 290.336 313.277H300.15V312.716C300.118 311.153 299.695 309.949 298.881 309.103C298.067 308.24 296.911 307.809 295.414 307.809ZM318.559 329H311.479V291.5H318.559V329ZM331.84 329H324.76V291.5H331.84V329ZM336.576 315.548C336.576 312.927 337.081 310.592 338.09 308.541C339.099 306.49 340.548 304.903 342.436 303.78C344.34 302.657 346.545 302.096 349.052 302.096C352.616 302.096 355.521 303.186 357.768 305.367C360.03 307.548 361.291 310.51 361.552 314.254L361.601 316.061C361.601 320.113 360.469 323.368 358.207 325.826C355.945 328.268 352.909 329.488 349.101 329.488C345.292 329.488 342.248 328.268 339.97 325.826C337.707 323.385 336.576 320.064 336.576 315.865V315.548ZM343.632 316.061C343.632 318.567 344.104 320.488 345.048 321.822C345.992 323.141 347.343 323.8 349.101 323.8C350.81 323.8 352.144 323.149 353.104 321.847C354.065 320.528 354.545 318.429 354.545 315.548C354.545 313.09 354.065 311.186 353.104 309.835C352.144 308.484 350.793 307.809 349.052 307.809C347.326 307.809 345.992 308.484 345.048 309.835C344.104 311.17 343.632 313.245 343.632 316.061ZM367.777 337.911L364.091 335.982L364.97 334.396C366.06 332.41 366.622 330.432 366.654 328.463V322.994H372.611L372.587 327.877C372.571 329.684 372.115 331.507 371.22 333.346C370.325 335.185 369.177 336.707 367.777 337.911ZM256.962 388H249.638V352.453H256.962V388ZM291.068 388C290.743 387.365 290.507 386.576 290.36 385.632C288.651 387.536 286.43 388.488 283.695 388.488C281.107 388.488 278.959 387.74 277.25 386.242C275.557 384.745 274.711 382.857 274.711 380.578C274.711 377.779 275.744 375.63 277.812 374.133C279.895 372.635 282.898 371.879 286.82 371.862H290.067V370.349C290.067 369.128 289.75 368.151 289.115 367.419C288.497 366.687 287.512 366.32 286.161 366.32C284.973 366.32 284.037 366.605 283.354 367.175C282.686 367.744 282.353 368.526 282.353 369.519H275.297C275.297 367.989 275.769 366.573 276.713 365.271C277.657 363.968 278.992 362.951 280.717 362.219C282.442 361.47 284.379 361.096 286.527 361.096C289.783 361.096 292.362 361.918 294.267 363.562C296.187 365.189 297.147 367.484 297.147 370.446V381.896C297.164 384.403 297.514 386.299 298.197 387.585V388H291.068ZM285.233 383.093C286.275 383.093 287.235 382.865 288.114 382.409C288.993 381.937 289.644 381.311 290.067 380.529V375.988H287.431C283.899 375.988 282.019 377.209 281.791 379.65L281.767 380.065C281.767 380.944 282.076 381.669 282.694 382.238C283.313 382.808 284.159 383.093 285.233 383.093ZM309.184 361.584L309.403 364.538C311.275 362.243 313.806 361.096 316.996 361.096C320.398 361.096 322.733 362.438 324.003 365.124C325.858 362.438 328.503 361.096 331.938 361.096C334.802 361.096 336.934 361.934 338.334 363.61C339.734 365.271 340.434 367.777 340.434 371.13V388H333.354V371.154C333.354 369.657 333.061 368.566 332.475 367.883C331.889 367.183 330.855 366.833 329.374 366.833C327.258 366.833 325.793 367.842 324.979 369.86L325.004 388H317.948V371.179C317.948 369.649 317.647 368.542 317.045 367.858C316.443 367.175 315.417 366.833 313.969 366.833C311.967 366.833 310.518 367.663 309.623 369.323V388H302.567V361.584H309.184ZM387.724 388H380.399V372.766H366.117V388H358.793V352.453H366.117V366.857H380.399V352.453H387.724V388ZM401.127 388H394.047V361.584H401.127V388ZM393.632 354.748C393.632 353.69 393.982 352.819 394.682 352.136C395.398 351.452 396.366 351.11 397.587 351.11C398.791 351.11 399.752 351.452 400.468 352.136C401.184 352.819 401.542 353.69 401.542 354.748C401.542 355.822 401.176 356.701 400.443 357.385C399.727 358.068 398.775 358.41 397.587 358.41C396.399 358.41 395.438 358.068 394.706 357.385C393.99 356.701 393.632 355.822 393.632 354.748ZM435.331 376.159C435.054 379.984 433.638 382.995 431.083 385.192C428.544 387.39 425.191 388.488 421.024 388.488C416.467 388.488 412.878 386.958 410.258 383.898C407.654 380.822 406.352 376.607 406.352 371.252V369.079C406.352 365.661 406.954 362.65 408.158 360.046C409.363 357.442 411.08 355.448 413.31 354.064C415.556 352.665 418.16 351.965 421.122 351.965C425.224 351.965 428.528 353.063 431.034 355.261C433.541 357.458 434.989 360.542 435.38 364.514H428.056C427.877 362.219 427.234 360.559 426.127 359.533C425.036 358.492 423.368 357.971 421.122 357.971C418.681 357.971 416.85 358.85 415.629 360.607C414.424 362.349 413.806 365.059 413.773 368.737V371.423C413.773 375.264 414.351 378.072 415.507 379.846C416.679 381.62 418.518 382.507 421.024 382.507C423.287 382.507 424.971 381.994 426.078 380.969C427.201 379.927 427.844 378.324 428.007 376.159H435.331ZM446.562 364.465C448.433 362.219 450.785 361.096 453.617 361.096C459.346 361.096 462.252 364.424 462.333 371.081V388H455.277V371.276C455.277 369.763 454.952 368.648 454.301 367.932C453.65 367.199 452.567 366.833 451.054 366.833C448.987 366.833 447.489 367.631 446.562 369.226V388H439.506V350.5H446.562V364.465ZM482.963 388C482.637 387.365 482.401 386.576 482.255 385.632C480.546 387.536 478.324 388.488 475.59 388.488C473.002 388.488 470.854 387.74 469.145 386.242C467.452 384.745 466.605 382.857 466.605 380.578C466.605 377.779 467.639 375.63 469.706 374.133C471.789 372.635 474.792 371.879 478.715 371.862H481.962V370.349C481.962 369.128 481.645 368.151 481.01 367.419C480.391 366.687 479.407 366.32 478.056 366.32C476.868 366.32 475.932 366.605 475.248 367.175C474.581 367.744 474.247 368.526 474.247 369.519H467.191C467.191 367.989 467.663 366.573 468.607 365.271C469.551 363.968 470.886 362.951 472.611 362.219C474.337 361.47 476.273 361.096 478.422 361.096C481.677 361.096 484.257 361.918 486.161 363.562C488.082 365.189 489.042 367.484 489.042 370.446V381.896C489.058 384.403 489.408 386.299 490.092 387.585V388H482.963ZM477.128 383.093C478.17 383.093 479.13 382.865 480.009 382.409C480.888 381.937 481.539 381.311 481.962 380.529V375.988H479.325C475.793 375.988 473.913 377.209 473.686 379.65L473.661 380.065C473.661 380.944 473.97 381.669 474.589 382.238C475.207 382.808 476.054 383.093 477.128 383.093ZM502.909 355.09V361.584H507.426V366.76H502.909V379.943C502.909 380.92 503.096 381.62 503.471 382.043C503.845 382.466 504.561 382.678 505.619 382.678C506.4 382.678 507.092 382.621 507.694 382.507V387.854C506.311 388.277 504.887 388.488 503.422 388.488C498.474 388.488 495.951 385.99 495.854 380.993V366.76H491.996V361.584H495.854V355.09H502.909ZM521.22 378.015L526.103 361.584H533.671L523.051 392.102L522.465 393.493C520.886 396.944 518.282 398.669 514.652 398.669C513.627 398.669 512.585 398.514 511.527 398.205V392.858L512.602 392.883C513.936 392.883 514.929 392.679 515.58 392.272C516.247 391.866 516.768 391.19 517.143 390.246L517.973 388.073L508.72 361.584H516.312L521.22 378.015ZM558.939 352.453L568.07 378.234L577.152 352.453H586.771V388H579.423V378.283L580.155 361.511L570.561 388H565.531L555.961 361.535L556.693 378.283V388H549.369V352.453H558.939ZM604.862 388.488C600.989 388.488 597.831 387.3 595.39 384.924C592.965 382.548 591.752 379.382 591.752 375.427V374.743C591.752 372.09 592.265 369.722 593.29 367.639C594.315 365.539 595.764 363.928 597.636 362.805C599.524 361.665 601.672 361.096 604.081 361.096C607.694 361.096 610.535 362.235 612.602 364.514C614.685 366.792 615.727 370.023 615.727 374.206V377.087H598.905C599.133 378.812 599.817 380.196 600.956 381.237C602.112 382.279 603.568 382.8 605.326 382.8C608.044 382.8 610.168 381.815 611.698 379.846L615.165 383.728C614.107 385.225 612.675 386.397 610.868 387.243C609.062 388.073 607.06 388.488 604.862 388.488ZM604.057 366.809C602.657 366.809 601.518 367.281 600.639 368.225C599.776 369.169 599.223 370.52 598.979 372.277H608.793V371.716C608.76 370.153 608.337 368.949 607.523 368.103C606.71 367.24 605.554 366.809 604.057 366.809ZM634.062 380.7C634.062 379.838 633.63 379.162 632.768 378.674C631.921 378.169 630.554 377.722 628.666 377.331C622.383 376.013 619.242 373.343 619.242 369.323C619.242 366.979 620.211 365.026 622.147 363.464C624.101 361.885 626.648 361.096 629.789 361.096C633.142 361.096 635.819 361.885 637.821 363.464C639.84 365.043 640.849 367.093 640.849 369.616H633.793C633.793 368.607 633.467 367.777 632.816 367.126C632.165 366.459 631.148 366.125 629.765 366.125C628.576 366.125 627.657 366.394 627.006 366.931C626.355 367.468 626.029 368.151 626.029 368.981C626.029 369.763 626.396 370.397 627.128 370.886C627.877 371.358 629.13 371.773 630.888 372.131C632.646 372.473 634.127 372.863 635.331 373.303C639.058 374.67 640.922 377.038 640.922 380.407C640.922 382.816 639.888 384.769 637.821 386.267C635.754 387.748 633.085 388.488 629.813 388.488C627.6 388.488 625.631 388.098 623.905 387.316C622.196 386.519 620.854 385.437 619.877 384.069C618.9 382.686 618.412 381.197 618.412 379.602H625.102C625.167 380.855 625.631 381.815 626.493 382.482C627.356 383.15 628.511 383.483 629.96 383.483C631.311 383.483 632.328 383.231 633.012 382.727C633.712 382.206 634.062 381.53 634.062 380.7ZM659.794 380.7C659.794 379.838 659.363 379.162 658.5 378.674C657.654 378.169 656.286 377.722 654.398 377.331C648.116 376.013 644.975 373.343 644.975 369.323C644.975 366.979 645.943 365.026 647.88 363.464C649.833 361.885 652.38 361.096 655.521 361.096C658.874 361.096 661.552 361.885 663.554 363.464C665.572 365.043 666.581 367.093 666.581 369.616H659.525C659.525 368.607 659.2 367.777 658.549 367.126C657.898 366.459 656.881 366.125 655.497 366.125C654.309 366.125 653.389 366.394 652.738 366.931C652.087 367.468 651.762 368.151 651.762 368.981C651.762 369.763 652.128 370.397 652.86 370.886C653.609 371.358 654.862 371.773 656.62 372.131C658.378 372.473 659.859 372.863 661.063 373.303C664.791 374.67 666.654 377.038 666.654 380.407C666.654 382.816 665.621 384.769 663.554 386.267C661.487 387.748 658.817 388.488 655.546 388.488C653.332 388.488 651.363 388.098 649.638 387.316C647.929 386.519 646.586 385.437 645.609 384.069C644.633 382.686 644.145 381.197 644.145 379.602H650.834C650.899 380.855 651.363 381.815 652.226 382.482C653.088 383.15 654.244 383.483 655.692 383.483C657.043 383.483 658.061 383.231 658.744 382.727C659.444 382.206 659.794 381.53 659.794 380.7ZM686.527 388C686.202 387.365 685.966 386.576 685.819 385.632C684.11 387.536 681.889 388.488 679.154 388.488C676.566 388.488 674.418 387.74 672.709 386.242C671.016 384.745 670.17 382.857 670.17 380.578C670.17 377.779 671.203 375.63 673.271 374.133C675.354 372.635 678.357 371.879 682.279 371.862H685.526V370.349C685.526 369.128 685.209 368.151 684.574 367.419C683.956 366.687 682.971 366.32 681.62 366.32C680.432 366.32 679.496 366.605 678.812 367.175C678.145 367.744 677.812 368.526 677.812 369.519H670.756C670.756 367.989 671.228 366.573 672.172 365.271C673.116 363.968 674.451 362.951 676.176 362.219C677.901 361.47 679.838 361.096 681.986 361.096C685.242 361.096 687.821 361.918 689.726 363.562C691.646 365.189 692.606 367.484 692.606 370.446V381.896C692.623 384.403 692.973 386.299 693.656 387.585V388H686.527ZM680.692 383.093C681.734 383.093 682.694 382.865 683.573 382.409C684.452 381.937 685.103 381.311 685.526 380.529V375.988H682.89C679.358 375.988 677.478 377.209 677.25 379.65L677.226 380.065C677.226 380.944 677.535 381.669 678.153 382.238C678.772 382.808 679.618 383.093 680.692 383.093ZM704.521 361.584L704.74 364.636C706.628 362.276 709.159 361.096 712.333 361.096C715.132 361.096 717.216 361.918 718.583 363.562C719.95 365.205 720.65 367.663 720.683 370.935V388H713.627V371.105C713.627 369.608 713.301 368.526 712.65 367.858C711.999 367.175 710.917 366.833 709.403 366.833C707.418 366.833 705.928 367.679 704.936 369.372V388H697.88V361.584H704.521ZM725.028 374.597C725.028 370.544 725.989 367.281 727.909 364.807C729.846 362.333 732.45 361.096 735.722 361.096C738.619 361.096 740.873 362.089 742.484 364.074L742.777 361.584H749.174V387.121C749.174 389.432 748.645 391.442 747.587 393.151C746.545 394.86 745.072 396.162 743.168 397.058C741.264 397.953 739.034 398.4 736.479 398.4C734.542 398.4 732.654 398.01 730.814 397.229C728.975 396.464 727.584 395.471 726.64 394.25L729.765 389.953C731.522 391.923 733.655 392.907 736.161 392.907C738.033 392.907 739.49 392.403 740.531 391.394C741.573 390.401 742.094 388.985 742.094 387.146V385.729C740.466 387.569 738.326 388.488 735.673 388.488C732.499 388.488 729.927 387.251 727.958 384.777C726.005 382.287 725.028 378.991 725.028 374.89V374.597ZM732.084 375.109C732.084 377.502 732.564 379.382 733.524 380.749C734.485 382.1 735.803 382.775 737.479 382.775C739.628 382.775 741.166 381.97 742.094 380.358V369.25C741.15 367.639 739.628 366.833 737.528 366.833C735.836 366.833 734.501 367.525 733.524 368.908C732.564 370.292 732.084 372.359 732.084 375.109Z" fill="white"/>
<path d="M766.776 388.488C762.903 388.488 759.745 387.3 757.304 384.924C754.879 382.548 753.666 379.382 753.666 375.427V374.743C753.666 372.09 754.179 369.722 755.204 367.639C756.229 365.539 757.678 363.928 759.55 362.805C761.438 361.665 763.586 361.096 765.995 361.096C769.608 361.096 772.449 362.235 774.516 364.514C776.599 366.792 777.641 370.023 777.641 374.206V377.087H760.819C761.047 378.812 761.731 380.196 762.87 381.237C764.026 382.279 765.482 382.8 767.24 382.8C769.958 382.8 772.082 381.815 773.612 379.846L777.079 383.728C776.021 385.225 774.589 386.397 772.782 387.243C770.976 388.073 768.974 388.488 766.776 388.488ZM765.971 366.809C764.571 366.809 763.432 367.281 762.553 368.225C761.69 369.169 761.137 370.52 760.893 372.277H770.707V371.716C770.674 370.153 770.251 368.949 769.438 368.103C768.624 367.24 767.468 366.809 765.971 366.809ZM796.513 368.2C795.552 368.07 794.706 368.005 793.974 368.005C791.304 368.005 789.555 368.908 788.725 370.715V388H781.669V361.584H788.334L788.529 364.733C789.945 362.308 791.907 361.096 794.413 361.096C795.194 361.096 795.927 361.201 796.61 361.413L796.513 368.2Z" fill="#164664"/>
<path d="M256.652 432.605C256.652 431.855 256.387 431.277 255.855 430.871C255.332 430.465 254.383 430.055 253.008 429.641C251.633 429.227 250.539 428.766 249.727 428.258C248.172 427.281 247.395 426.008 247.395 424.438C247.395 423.062 247.953 421.93 249.07 421.039C250.195 420.148 251.652 419.703 253.441 419.703C254.629 419.703 255.688 419.922 256.617 420.359C257.547 420.797 258.277 421.422 258.809 422.234C259.34 423.039 259.605 423.934 259.605 424.918H256.652C256.652 424.027 256.371 423.332 255.809 422.832C255.254 422.324 254.457 422.07 253.418 422.07C252.449 422.07 251.695 422.277 251.156 422.691C250.625 423.105 250.359 423.684 250.359 424.426C250.359 425.051 250.648 425.574 251.227 425.996C251.805 426.41 252.758 426.816 254.086 427.215C255.414 427.605 256.48 428.055 257.285 428.562C258.09 429.062 258.68 429.641 259.055 430.297C259.43 430.945 259.617 431.707 259.617 432.582C259.617 434.004 259.07 435.137 257.977 435.98C256.891 436.816 255.414 437.234 253.547 437.234C252.312 437.234 251.176 437.008 250.137 436.555C249.105 436.094 248.301 435.461 247.723 434.656C247.152 433.852 246.867 432.914 246.867 431.844H249.832C249.832 432.812 250.152 433.562 250.793 434.094C251.434 434.625 252.352 434.891 253.547 434.891C254.578 434.891 255.352 434.684 255.867 434.27C256.391 433.848 256.652 433.293 256.652 432.605ZM267.527 437.234C265.723 437.234 264.258 436.668 263.133 435.535C262.016 434.395 261.457 432.879 261.457 430.988V430.637C261.457 429.371 261.699 428.242 262.184 427.25C262.676 426.25 263.363 425.473 264.246 424.918C265.129 424.363 266.113 424.086 267.199 424.086C268.926 424.086 270.258 424.637 271.195 425.738C272.141 426.84 272.613 428.398 272.613 430.414V431.562H264.328C264.414 432.609 264.762 433.438 265.371 434.047C265.988 434.656 266.762 434.961 267.691 434.961C268.996 434.961 270.059 434.434 270.879 433.379L272.414 434.844C271.906 435.602 271.227 436.191 270.375 436.613C269.531 437.027 268.582 437.234 267.527 437.234ZM267.188 426.371C266.406 426.371 265.773 426.645 265.289 427.191C264.812 427.738 264.508 428.5 264.375 429.477H269.801V429.266C269.738 428.312 269.484 427.594 269.039 427.109C268.594 426.617 267.977 426.371 267.188 426.371ZM280.043 434.961C280.754 434.961 281.344 434.754 281.812 434.34C282.281 433.926 282.531 433.414 282.562 432.805H285.246C285.215 433.594 284.969 434.332 284.508 435.02C284.047 435.699 283.422 436.238 282.633 436.637C281.844 437.035 280.992 437.234 280.078 437.234C278.305 437.234 276.898 436.66 275.859 435.512C274.82 434.363 274.301 432.777 274.301 430.754V430.461C274.301 428.531 274.816 426.988 275.848 425.832C276.879 424.668 278.285 424.086 280.066 424.086C281.574 424.086 282.801 424.527 283.746 425.41C284.699 426.285 285.199 427.438 285.246 428.867H282.562C282.531 428.141 282.281 427.543 281.812 427.074C281.352 426.605 280.762 426.371 280.043 426.371C279.121 426.371 278.41 426.707 277.91 427.379C277.41 428.043 277.156 429.055 277.148 430.414V430.871C277.148 432.246 277.395 433.273 277.887 433.953C278.387 434.625 279.105 434.961 280.043 434.961ZM295.078 435.758C294.242 436.742 293.055 437.234 291.516 437.234C290.141 437.234 289.098 436.832 288.387 436.027C287.684 435.223 287.332 434.059 287.332 432.535V424.32H290.18V432.5C290.18 434.109 290.848 434.914 292.184 434.914C293.566 434.914 294.5 434.418 294.984 433.426V424.32H297.832V437H295.148L295.078 435.758ZM307.371 426.922C306.996 426.859 306.609 426.828 306.211 426.828C304.906 426.828 304.027 427.328 303.574 428.328V437H300.727V424.32H303.445L303.516 425.738C304.203 424.637 305.156 424.086 306.375 424.086C306.781 424.086 307.117 424.141 307.383 424.25L307.371 426.922ZM314.52 437.234C312.715 437.234 311.25 436.668 310.125 435.535C309.008 434.395 308.449 432.879 308.449 430.988V430.637C308.449 429.371 308.691 428.242 309.176 427.25C309.668 426.25 310.355 425.473 311.238 424.918C312.121 424.363 313.105 424.086 314.191 424.086C315.918 424.086 317.25 424.637 318.188 425.738C319.133 426.84 319.605 428.398 319.605 430.414V431.562H311.32C311.406 432.609 311.754 433.438 312.363 434.047C312.98 434.656 313.754 434.961 314.684 434.961C315.988 434.961 317.051 434.434 317.871 433.379L319.406 434.844C318.898 435.602 318.219 436.191 317.367 436.613C316.523 437.027 315.574 437.234 314.52 437.234ZM314.18 426.371C313.398 426.371 312.766 426.645 312.281 427.191C311.805 427.738 311.5 428.5 311.367 429.477H316.793V429.266C316.73 428.312 316.477 427.594 316.031 427.109C315.586 426.617 314.969 426.371 314.18 426.371ZM335.379 437C335.254 436.758 335.145 436.363 335.051 435.816C334.145 436.762 333.035 437.234 331.723 437.234C330.449 437.234 329.41 436.871 328.605 436.145C327.801 435.418 327.398 434.52 327.398 433.449C327.398 432.098 327.898 431.062 328.898 430.344C329.906 429.617 331.344 429.254 333.211 429.254H334.957V428.422C334.957 427.766 334.773 427.242 334.406 426.852C334.039 426.453 333.48 426.254 332.73 426.254C332.082 426.254 331.551 426.418 331.137 426.746C330.723 427.066 330.516 427.477 330.516 427.977H327.668C327.668 427.281 327.898 426.633 328.359 426.031C328.82 425.422 329.445 424.945 330.234 424.602C331.031 424.258 331.918 424.086 332.895 424.086C334.379 424.086 335.562 424.461 336.445 425.211C337.328 425.953 337.781 427 337.805 428.352V434.07C337.805 435.211 337.965 436.121 338.285 436.801V437H335.379ZM332.25 434.949C332.812 434.949 333.34 434.812 333.832 434.539C334.332 434.266 334.707 433.898 334.957 433.438V431.047H333.422C332.367 431.047 331.574 431.23 331.043 431.598C330.512 431.965 330.246 432.484 330.246 433.156C330.246 433.703 330.426 434.141 330.785 434.469C331.152 434.789 331.641 434.949 332.25 434.949ZM343.43 424.32L343.512 425.785C344.449 424.652 345.68 424.086 347.203 424.086C349.844 424.086 351.188 425.598 351.234 428.621V437H348.387V428.785C348.387 427.98 348.211 427.387 347.859 427.004C347.516 426.613 346.949 426.418 346.16 426.418C345.012 426.418 344.156 426.938 343.594 427.977V437H340.746V424.32H343.43ZM353.613 430.566C353.613 428.613 354.066 427.047 354.973 425.867C355.879 424.68 357.094 424.086 358.617 424.086C359.961 424.086 361.047 424.555 361.875 425.492V419H364.723V437H362.145L362.004 435.688C361.152 436.719 360.016 437.234 358.594 437.234C357.109 437.234 355.906 436.637 354.984 435.441C354.07 434.246 353.613 432.621 353.613 430.566ZM356.461 430.812C356.461 432.102 356.707 433.109 357.199 433.836C357.699 434.555 358.406 434.914 359.32 434.914C360.484 434.914 361.336 434.395 361.875 433.355V427.941C361.352 426.926 360.508 426.418 359.344 426.418C358.422 426.418 357.711 426.785 357.211 427.52C356.711 428.246 356.461 429.344 356.461 430.812ZM383.918 429.383H376.91V434.633H385.102V437H373.945V419.938H385.02V422.328H376.91V427.039H383.918V429.383ZM394.816 437C394.691 436.758 394.582 436.363 394.488 435.816C393.582 436.762 392.473 437.234 391.16 437.234C389.887 437.234 388.848 436.871 388.043 436.145C387.238 435.418 386.836 434.52 386.836 433.449C386.836 432.098 387.336 431.062 388.336 430.344C389.344 429.617 390.781 429.254 392.648 429.254H394.395V428.422C394.395 427.766 394.211 427.242 393.844 426.852C393.477 426.453 392.918 426.254 392.168 426.254C391.52 426.254 390.988 426.418 390.574 426.746C390.16 427.066 389.953 427.477 389.953 427.977H387.105C387.105 427.281 387.336 426.633 387.797 426.031C388.258 425.422 388.883 424.945 389.672 424.602C390.469 424.258 391.355 424.086 392.332 424.086C393.816 424.086 395 424.461 395.883 425.211C396.766 425.953 397.219 427 397.242 428.352V434.07C397.242 435.211 397.402 436.121 397.723 436.801V437H394.816ZM391.688 434.949C392.25 434.949 392.777 434.812 393.27 434.539C393.77 434.266 394.145 433.898 394.395 433.438V431.047H392.859C391.805 431.047 391.012 431.23 390.48 431.598C389.949 431.965 389.684 432.484 389.684 433.156C389.684 433.703 389.863 434.141 390.223 434.469C390.59 434.789 391.078 434.949 391.688 434.949ZM407.332 433.555C407.332 433.047 407.121 432.66 406.699 432.395C406.285 432.129 405.594 431.895 404.625 431.691C403.656 431.488 402.848 431.23 402.199 430.918C400.777 430.23 400.066 429.234 400.066 427.93C400.066 426.836 400.527 425.922 401.449 425.188C402.371 424.453 403.543 424.086 404.965 424.086C406.48 424.086 407.703 424.461 408.633 425.211C409.57 425.961 410.039 426.934 410.039 428.129H407.191C407.191 427.582 406.988 427.129 406.582 426.77C406.176 426.402 405.637 426.219 404.965 426.219C404.34 426.219 403.828 426.363 403.43 426.652C403.039 426.941 402.844 427.328 402.844 427.812C402.844 428.25 403.027 428.59 403.395 428.832C403.762 429.074 404.504 429.32 405.621 429.57C406.738 429.812 407.613 430.105 408.246 430.449C408.887 430.785 409.359 431.191 409.664 431.668C409.977 432.145 410.133 432.723 410.133 433.402C410.133 434.543 409.66 435.469 408.715 436.18C407.77 436.883 406.531 437.234 405 437.234C403.961 437.234 403.035 437.047 402.223 436.672C401.41 436.297 400.777 435.781 400.324 435.125C399.871 434.469 399.645 433.762 399.645 433.004H402.41C402.449 433.676 402.703 434.195 403.172 434.562C403.641 434.922 404.262 435.102 405.035 435.102C405.785 435.102 406.355 434.961 406.746 434.68C407.137 434.391 407.332 434.016 407.332 433.555ZM417.059 432.922L419.637 424.32H422.672L417.633 438.922C416.859 441.055 415.547 442.121 413.695 442.121C413.281 442.121 412.824 442.051 412.324 441.91V439.707L412.863 439.742C413.582 439.742 414.121 439.609 414.48 439.344C414.848 439.086 415.137 438.648 415.348 438.031L415.758 436.941L411.305 424.32H414.375L417.059 432.922ZM433.863 421.238V424.32H436.102V426.43H433.863V433.508C433.863 433.992 433.957 434.344 434.145 434.562C434.34 434.773 434.684 434.879 435.176 434.879C435.504 434.879 435.836 434.84 436.172 434.762V436.965C435.523 437.145 434.898 437.234 434.297 437.234C432.109 437.234 431.016 436.027 431.016 433.613V426.43H428.93V424.32H431.016V421.238H433.863ZM437.402 430.543C437.402 429.301 437.648 428.184 438.141 427.191C438.633 426.191 439.324 425.426 440.215 424.895C441.105 424.355 442.129 424.086 443.285 424.086C444.996 424.086 446.383 424.637 447.445 425.738C448.516 426.84 449.094 428.301 449.18 430.121L449.191 430.789C449.191 432.039 448.949 433.156 448.465 434.141C447.988 435.125 447.301 435.887 446.402 436.426C445.512 436.965 444.48 437.234 443.309 437.234C441.52 437.234 440.086 436.641 439.008 435.453C437.938 434.258 437.402 432.668 437.402 430.684V430.543ZM440.25 430.789C440.25 432.094 440.52 433.117 441.059 433.859C441.598 434.594 442.348 434.961 443.309 434.961C444.27 434.961 445.016 434.586 445.547 433.836C446.086 433.086 446.355 431.988 446.355 430.543C446.355 429.262 446.078 428.246 445.523 427.496C444.977 426.746 444.23 426.371 443.285 426.371C442.355 426.371 441.617 426.742 441.07 427.484C440.523 428.219 440.25 429.32 440.25 430.789ZM470.332 419.938V431.34C470.332 433.152 469.75 434.59 468.586 435.652C467.43 436.707 465.887 437.234 463.957 437.234C462.004 437.234 460.453 436.715 459.305 435.676C458.156 434.629 457.582 433.18 457.582 431.328V419.938H460.535V431.352C460.535 432.492 460.824 433.363 461.402 433.965C461.98 434.566 462.832 434.867 463.957 434.867C466.238 434.867 467.379 433.664 467.379 431.258V419.938H470.332ZM480.34 433.555C480.34 433.047 480.129 432.66 479.707 432.395C479.293 432.129 478.602 431.895 477.633 431.691C476.664 431.488 475.855 431.23 475.207 430.918C473.785 430.23 473.074 429.234 473.074 427.93C473.074 426.836 473.535 425.922 474.457 425.188C475.379 424.453 476.551 424.086 477.973 424.086C479.488 424.086 480.711 424.461 481.641 425.211C482.578 425.961 483.047 426.934 483.047 428.129H480.199C480.199 427.582 479.996 427.129 479.59 426.77C479.184 426.402 478.645 426.219 477.973 426.219C477.348 426.219 476.836 426.363 476.438 426.652C476.047 426.941 475.852 427.328 475.852 427.812C475.852 428.25 476.035 428.59 476.402 428.832C476.77 429.074 477.512 429.32 478.629 429.57C479.746 429.812 480.621 430.105 481.254 430.449C481.895 430.785 482.367 431.191 482.672 431.668C482.984 432.145 483.141 432.723 483.141 433.402C483.141 434.543 482.668 435.469 481.723 436.18C480.777 436.883 479.539 437.234 478.008 437.234C476.969 437.234 476.043 437.047 475.23 436.672C474.418 436.297 473.785 435.781 473.332 435.125C472.879 434.469 472.652 433.762 472.652 433.004H475.418C475.457 433.676 475.711 434.195 476.18 434.562C476.648 434.922 477.27 435.102 478.043 435.102C478.793 435.102 479.363 434.961 479.754 434.68C480.145 434.391 480.34 434.016 480.34 433.555ZM491.215 437.234C489.41 437.234 487.945 436.668 486.82 435.535C485.703 434.395 485.145 432.879 485.145 430.988V430.637C485.145 429.371 485.387 428.242 485.871 427.25C486.363 426.25 487.051 425.473 487.934 424.918C488.816 424.363 489.801 424.086 490.887 424.086C492.613 424.086 493.945 424.637 494.883 425.738C495.828 426.84 496.301 428.398 496.301 430.414V431.562H488.016C488.102 432.609 488.449 433.438 489.059 434.047C489.676 434.656 490.449 434.961 491.379 434.961C492.684 434.961 493.746 434.434 494.566 433.379L496.102 434.844C495.594 435.602 494.914 436.191 494.062 436.613C493.219 437.027 492.27 437.234 491.215 437.234ZM490.875 426.371C490.094 426.371 489.461 426.645 488.977 427.191C488.5 427.738 488.195 428.5 488.062 429.477H493.488V429.266C493.426 428.312 493.172 427.594 492.727 427.109C492.281 426.617 491.664 426.371 490.875 426.371Z" fill="white"/>
<path fill-rule="evenodd" clip-rule="evenodd" d="M65.2967 659.858C65.2967 665.567 60.7834 670.196 55.2167 670.196C49.65 670.196 45.1367 665.567 45.1367 659.858C45.1367 654.149 49.65 649.52 55.2167 649.52C60.7834 649.52 65.2967 654.149 65.2967 659.858Z" stroke="white" stroke-width="2.88" stroke-linecap="round"/>
<path d="M41.4688 683.354C41.4688 676.087 47.6227 670.196 55.2142 670.196C62.8057 670.196 68.9597 676.087 68.9597 683.354" stroke="white" stroke-width="2.88" stroke-linecap="round"/>
<path fill-rule="evenodd" clip-rule="evenodd" d="M43.3037 667.377C43.3037 671.01 40.432 673.956 36.8887 673.956C33.3463 673.956 30.4746 671.01 30.4746 667.377C30.4746 663.743 33.3463 660.798 36.8887 660.798C40.432 660.798 43.3037 663.743 43.3037 667.377Z" stroke="white" stroke-width="2.88" stroke-linecap="round"/>
<path d="M28.6416 683.354C28.6416 678.163 32.4872 673.956 37.2311 673.956C39.6026 673.956 41.7491 675.007 43.3034 676.707" stroke="white" stroke-width="2.88" stroke-linecap="round"/>
<path fill-rule="evenodd" clip-rule="evenodd" d="M722.76 684.521C715.072 684.521 708.84 690.753 708.84 698.441C708.84 705.466 714.045 711.277 720.809 712.225L722.049 712.399V713.651V718.167L732.033 708.854L732.021 708.833C734.882 706.281 736.68 702.572 736.68 698.441C736.68 690.753 730.448 684.521 722.76 684.521ZM734 710.927C737.412 707.854 739.56 703.397 739.56 698.441C739.56 689.162 732.038 681.641 722.76 681.641C713.482 681.641 705.96 689.162 705.96 698.441C705.96 706.487 711.616 713.21 719.169 714.856V721.48V724.793L721.591 722.533L734.011 710.947L734 710.927ZM713.641 698.44C713.641 703.477 717.724 707.56 722.761 707.56C727.798 707.56 731.881 703.477 731.881 698.44C731.881 693.404 727.798 689.32 722.761 689.32C717.724 689.32 713.641 693.404 713.641 698.44ZM722.761 686.44C716.133 686.44 710.761 691.813 710.761 698.44C710.761 705.068 716.133 710.44 722.761 710.44C729.388 710.44 734.761 705.068 734.761 698.44C734.761 691.813 729.388 686.44 722.761 686.44ZM725.16 693.64C725.16 692.845 724.515 692.2 723.72 692.2C722.925 692.2 722.28 692.845 722.28 693.64V697.96H719.4C718.605 697.96 717.96 698.605 717.96 699.4C717.96 700.196 718.605 700.84 719.4 700.84H723.72C724.515 700.84 725.16 700.196 725.16 699.4V693.64Z" fill="white"/>
<path fill-rule="evenodd" clip-rule="evenodd" d="M861.847 405.64C855.159 405.64 849.701 411.061 849.701 417.758C849.701 422.078 851.971 425.866 855.377 428.012C848.274 430.209 842.354 436.143 841.64 445.813L844.417 446.018C845.186 435.599 852.962 430.209 860.981 429.847C861.267 429.867 861.556 429.877 861.847 429.877C862.139 429.877 862.427 429.867 862.714 429.847C870.733 430.208 878.509 435.599 879.279 446.018L882.056 445.813C881.341 436.143 875.421 430.209 868.318 428.012C871.724 425.866 873.993 422.078 873.993 417.758C873.993 411.061 868.536 405.64 861.847 405.64ZM862.663 427.058C867.443 426.645 871.209 422.635 871.209 417.758C871.209 412.608 867.007 408.424 861.847 408.424C856.687 408.424 852.485 412.608 852.485 417.758C852.485 422.635 856.252 426.645 861.032 427.058C861.575 427.038 862.12 427.038 862.663 427.058Z" fill="white"/>
<path d="M253.535 474.467H260.273V476H251.65V461.781H253.535V474.467ZM266.514 476.195C265.081 476.195 263.916 475.727 263.018 474.789C262.119 473.845 261.67 472.585 261.67 471.01V470.678C261.67 469.63 261.868 468.695 262.266 467.875C262.669 467.048 263.229 466.404 263.945 465.941C264.668 465.473 265.449 465.238 266.289 465.238C267.663 465.238 268.73 465.691 269.492 466.596C270.254 467.501 270.635 468.796 270.635 470.482V471.234H263.477C263.503 472.276 263.805 473.119 264.385 473.764C264.971 474.402 265.713 474.721 266.611 474.721C267.249 474.721 267.79 474.59 268.232 474.33C268.675 474.07 269.062 473.725 269.395 473.295L270.498 474.154C269.613 475.515 268.285 476.195 266.514 476.195ZM266.289 466.723C265.56 466.723 264.948 466.99 264.453 467.523C263.958 468.051 263.652 468.793 263.535 469.75H268.828V469.613C268.776 468.695 268.529 467.986 268.086 467.484C267.643 466.977 267.044 466.723 266.289 466.723ZM275.186 462.875V465.434H277.158V466.83H275.186V473.383C275.186 473.806 275.273 474.125 275.449 474.34C275.625 474.548 275.924 474.652 276.348 474.652C276.556 474.652 276.842 474.613 277.207 474.535V476C276.732 476.13 276.27 476.195 275.82 476.195C275.013 476.195 274.404 475.951 273.994 475.463C273.584 474.975 273.379 474.281 273.379 473.383V466.83H271.455V465.434H273.379V462.875H275.186ZM279.404 465.785L278.379 465.082C278.984 464.236 279.297 463.344 279.316 462.406V461H281.104V462.27C281.097 462.921 280.934 463.572 280.615 464.223C280.303 464.867 279.899 465.388 279.404 465.785ZM288.34 473.197C288.34 472.709 288.154 472.331 287.783 472.064C287.419 471.791 286.777 471.557 285.859 471.361C284.948 471.166 284.222 470.932 283.682 470.658C283.148 470.385 282.751 470.059 282.49 469.682C282.236 469.304 282.109 468.855 282.109 468.334C282.109 467.468 282.474 466.736 283.203 466.137C283.939 465.538 284.876 465.238 286.016 465.238C287.214 465.238 288.184 465.548 288.926 466.166C289.674 466.785 290.049 467.576 290.049 468.539H288.232C288.232 468.044 288.021 467.618 287.598 467.26C287.181 466.902 286.654 466.723 286.016 466.723C285.358 466.723 284.844 466.866 284.473 467.152C284.102 467.439 283.916 467.813 283.916 468.275C283.916 468.712 284.089 469.04 284.434 469.262C284.779 469.483 285.4 469.695 286.299 469.896C287.204 470.098 287.936 470.339 288.496 470.619C289.056 470.899 289.469 471.238 289.736 471.635C290.01 472.025 290.146 472.504 290.146 473.07C290.146 474.014 289.769 474.773 289.014 475.346C288.258 475.912 287.279 476.195 286.074 476.195C285.228 476.195 284.479 476.046 283.828 475.746C283.177 475.447 282.666 475.03 282.295 474.496C281.93 473.956 281.748 473.373 281.748 472.748H283.555C283.587 473.354 283.828 473.835 284.277 474.193C284.733 474.545 285.332 474.721 286.074 474.721C286.758 474.721 287.305 474.584 287.715 474.311C288.132 474.031 288.34 473.66 288.34 473.197ZM301.699 474.721C302.344 474.721 302.907 474.525 303.389 474.135C303.87 473.744 304.137 473.256 304.189 472.67H305.898C305.866 473.275 305.658 473.852 305.273 474.398C304.889 474.945 304.375 475.382 303.73 475.707C303.092 476.033 302.415 476.195 301.699 476.195C300.26 476.195 299.115 475.717 298.262 474.76C297.415 473.796 296.992 472.481 296.992 470.814V470.512C296.992 469.483 297.181 468.568 297.559 467.768C297.936 466.967 298.477 466.345 299.18 465.902C299.889 465.46 300.726 465.238 301.689 465.238C302.874 465.238 303.857 465.593 304.639 466.303C305.426 467.012 305.846 467.934 305.898 469.066H304.189C304.137 468.383 303.877 467.823 303.408 467.387C302.946 466.944 302.373 466.723 301.689 466.723C300.771 466.723 300.059 467.055 299.551 467.719C299.049 468.376 298.799 469.33 298.799 470.58V470.922C298.799 472.139 299.049 473.077 299.551 473.734C300.052 474.392 300.768 474.721 301.699 474.721ZM307.451 470.619C307.451 469.584 307.653 468.653 308.057 467.826C308.467 466.999 309.033 466.361 309.756 465.912C310.485 465.463 311.315 465.238 312.246 465.238C313.685 465.238 314.847 465.736 315.732 466.732C316.624 467.729 317.07 469.053 317.07 470.707V470.834C317.07 471.863 316.872 472.787 316.475 473.607C316.084 474.421 315.521 475.056 314.785 475.512C314.056 475.967 313.216 476.195 312.266 476.195C310.833 476.195 309.671 475.697 308.779 474.701C307.894 473.705 307.451 472.387 307.451 470.746V470.619ZM309.268 470.834C309.268 472.006 309.538 472.947 310.078 473.656C310.625 474.366 311.354 474.721 312.266 474.721C313.184 474.721 313.913 474.363 314.453 473.646C314.993 472.924 315.264 471.915 315.264 470.619C315.264 469.46 314.987 468.523 314.434 467.807C313.887 467.084 313.158 466.723 312.246 466.723C311.354 466.723 310.635 467.077 310.088 467.787C309.541 468.497 309.268 469.512 309.268 470.834ZM321.045 465.434L321.104 466.762C321.911 465.746 322.965 465.238 324.268 465.238C326.501 465.238 327.627 466.498 327.646 469.018V476H325.84V469.008C325.833 468.246 325.658 467.683 325.312 467.318C324.974 466.954 324.443 466.771 323.721 466.771C323.135 466.771 322.62 466.928 322.178 467.24C321.735 467.553 321.39 467.963 321.143 468.471V476H319.336V465.434H321.045ZM332.08 465.434L332.139 466.762C332.946 465.746 334.001 465.238 335.303 465.238C337.536 465.238 338.662 466.498 338.682 469.018V476H336.875V469.008C336.868 468.246 336.693 467.683 336.348 467.318C336.009 466.954 335.479 466.771 334.756 466.771C334.17 466.771 333.656 466.928 333.213 467.24C332.77 467.553 332.425 467.963 332.178 468.471V476H330.371V465.434H332.08ZM345.791 476.195C344.359 476.195 343.193 475.727 342.295 474.789C341.396 473.845 340.947 472.585 340.947 471.01V470.678C340.947 469.63 341.146 468.695 341.543 467.875C341.947 467.048 342.507 466.404 343.223 465.941C343.945 465.473 344.727 465.238 345.566 465.238C346.94 465.238 348.008 465.691 348.77 466.596C349.531 467.501 349.912 468.796 349.912 470.482V471.234H342.754C342.78 472.276 343.083 473.119 343.662 473.764C344.248 474.402 344.99 474.721 345.889 474.721C346.527 474.721 347.067 474.59 347.51 474.33C347.952 474.07 348.34 473.725 348.672 473.295L349.775 474.154C348.89 475.515 347.562 476.195 345.791 476.195ZM345.566 466.723C344.837 466.723 344.225 466.99 343.73 467.523C343.236 468.051 342.93 468.793 342.812 469.75H348.105V469.613C348.053 468.695 347.806 467.986 347.363 467.484C346.921 466.977 346.322 466.723 345.566 466.723ZM356.25 474.721C356.895 474.721 357.458 474.525 357.939 474.135C358.421 473.744 358.688 473.256 358.74 472.67H360.449C360.417 473.275 360.208 473.852 359.824 474.398C359.44 474.945 358.926 475.382 358.281 475.707C357.643 476.033 356.966 476.195 356.25 476.195C354.811 476.195 353.665 475.717 352.812 474.76C351.966 473.796 351.543 472.481 351.543 470.814V470.512C351.543 469.483 351.732 468.568 352.109 467.768C352.487 466.967 353.027 466.345 353.73 465.902C354.44 465.46 355.277 465.238 356.24 465.238C357.425 465.238 358.408 465.593 359.189 466.303C359.977 467.012 360.397 467.934 360.449 469.066H358.74C358.688 468.383 358.428 467.823 357.959 467.387C357.497 466.944 356.924 466.723 356.24 466.723C355.322 466.723 354.609 467.055 354.102 467.719C353.6 468.376 353.35 469.33 353.35 470.58V470.922C353.35 472.139 353.6 473.077 354.102 473.734C354.603 474.392 355.319 474.721 356.25 474.721ZM364.932 462.875V465.434H366.904V466.83H364.932V473.383C364.932 473.806 365.02 474.125 365.195 474.34C365.371 474.548 365.671 474.652 366.094 474.652C366.302 474.652 366.589 474.613 366.953 474.535V476C366.478 476.13 366.016 476.195 365.566 476.195C364.759 476.195 364.15 475.951 363.74 475.463C363.33 474.975 363.125 474.281 363.125 473.383V466.83H361.201V465.434H363.125V462.875H364.932ZM383.34 473.51L385.371 465.434H387.178L384.102 476H382.637L380.068 467.992L377.568 476H376.104L373.037 465.434H374.834L376.914 473.344L379.375 465.434H380.83L383.34 473.51ZM390.986 476H389.18V465.434H390.986V476ZM389.033 462.631C389.033 462.338 389.121 462.09 389.297 461.889C389.479 461.687 389.746 461.586 390.098 461.586C390.449 461.586 390.716 461.687 390.898 461.889C391.081 462.09 391.172 462.338 391.172 462.631C391.172 462.924 391.081 463.168 390.898 463.363C390.716 463.559 390.449 463.656 390.098 463.656C389.746 463.656 389.479 463.559 389.297 463.363C389.121 463.168 389.033 462.924 389.033 462.631ZM396.338 462.875V465.434H398.311V466.83H396.338V473.383C396.338 473.806 396.426 474.125 396.602 474.34C396.777 474.548 397.077 474.652 397.5 474.652C397.708 474.652 397.995 474.613 398.359 474.535V476C397.884 476.13 397.422 476.195 396.973 476.195C396.165 476.195 395.557 475.951 395.146 475.463C394.736 474.975 394.531 474.281 394.531 473.383V466.83H392.607V465.434H394.531V462.875H396.338ZM402.236 466.713C403.037 465.73 404.079 465.238 405.361 465.238C407.594 465.238 408.721 466.498 408.74 469.018V476H406.934V469.008C406.927 468.246 406.751 467.683 406.406 467.318C406.068 466.954 405.537 466.771 404.814 466.771C404.229 466.771 403.714 466.928 403.271 467.24C402.829 467.553 402.484 467.963 402.236 468.471V476H400.43V461H402.236V466.713ZM424.531 469.721H418.564V476H416.689V461.781H425.498V463.324H418.564V468.188H424.531V469.721ZM432.314 467.055C432.041 467.009 431.745 466.986 431.426 466.986C430.241 466.986 429.437 467.491 429.014 468.5V476H427.207V465.434H428.965L428.994 466.654C429.587 465.71 430.426 465.238 431.514 465.238C431.865 465.238 432.132 465.284 432.314 465.375V467.055ZM435.947 476H434.141V465.434H435.947V476ZM433.994 462.631C433.994 462.338 434.082 462.09 434.258 461.889C434.44 461.687 434.707 461.586 435.059 461.586C435.41 461.586 435.677 461.687 435.859 461.889C436.042 462.09 436.133 462.338 436.133 462.631C436.133 462.924 436.042 463.168 435.859 463.363C435.677 463.559 435.41 463.656 435.059 463.656C434.707 463.656 434.44 463.559 434.258 463.363C434.082 463.168 433.994 462.924 433.994 462.631ZM443.232 476.195C441.8 476.195 440.635 475.727 439.736 474.789C438.838 473.845 438.389 472.585 438.389 471.01V470.678C438.389 469.63 438.587 468.695 438.984 467.875C439.388 467.048 439.948 466.404 440.664 465.941C441.387 465.473 442.168 465.238 443.008 465.238C444.382 465.238 445.449 465.691 446.211 466.596C446.973 467.501 447.354 468.796 447.354 470.482V471.234H440.195C440.221 472.276 440.524 473.119 441.104 473.764C441.689 474.402 442.432 474.721 443.33 474.721C443.968 474.721 444.508 474.59 444.951 474.33C445.394 474.07 445.781 473.725 446.113 473.295L447.217 474.154C446.331 475.515 445.003 476.195 443.232 476.195ZM443.008 466.723C442.279 466.723 441.667 466.99 441.172 467.523C440.677 468.051 440.371 468.793 440.254 469.75H445.547V469.613C445.495 468.695 445.247 467.986 444.805 467.484C444.362 466.977 443.763 466.723 443.008 466.723ZM451.162 465.434L451.221 466.762C452.028 465.746 453.083 465.238 454.385 465.238C456.618 465.238 457.744 466.498 457.764 469.018V476H455.957V469.008C455.951 468.246 455.775 467.683 455.43 467.318C455.091 466.954 454.561 466.771 453.838 466.771C453.252 466.771 452.738 466.928 452.295 467.24C451.852 467.553 451.507 467.963 451.26 468.471V476H449.453V465.434H451.162ZM460.049 470.629C460.049 469.008 460.433 467.706 461.201 466.723C461.969 465.733 462.975 465.238 464.219 465.238C465.456 465.238 466.436 465.661 467.158 466.508V461H468.965V476H467.305L467.217 474.867C466.494 475.753 465.488 476.195 464.199 476.195C462.975 476.195 461.976 475.694 461.201 474.691C460.433 473.689 460.049 472.38 460.049 470.766V470.629ZM461.855 470.834C461.855 472.032 462.103 472.969 462.598 473.646C463.092 474.324 463.776 474.662 464.648 474.662C465.794 474.662 466.631 474.148 467.158 473.119V468.266C466.618 467.27 465.788 466.771 464.668 466.771C463.783 466.771 463.092 467.113 462.598 467.797C462.103 468.48 461.855 469.493 461.855 470.834ZM477.93 473.197C477.93 472.709 477.744 472.331 477.373 472.064C477.008 471.791 476.367 471.557 475.449 471.361C474.538 471.166 473.812 470.932 473.271 470.658C472.738 470.385 472.34 470.059 472.08 469.682C471.826 469.304 471.699 468.855 471.699 468.334C471.699 467.468 472.064 466.736 472.793 466.137C473.529 465.538 474.466 465.238 475.605 465.238C476.803 465.238 477.773 465.548 478.516 466.166C479.264 466.785 479.639 467.576 479.639 468.539H477.822C477.822 468.044 477.611 467.618 477.188 467.26C476.771 466.902 476.243 466.723 475.605 466.723C474.948 466.723 474.434 466.866 474.062 467.152C473.691 467.439 473.506 467.813 473.506 468.275C473.506 468.712 473.678 469.04 474.023 469.262C474.368 469.483 474.99 469.695 475.889 469.896C476.794 470.098 477.526 470.339 478.086 470.619C478.646 470.899 479.059 471.238 479.326 471.635C479.6 472.025 479.736 472.504 479.736 473.07C479.736 474.014 479.359 474.773 478.604 475.346C477.848 475.912 476.868 476.195 475.664 476.195C474.818 476.195 474.069 476.046 473.418 475.746C472.767 475.447 472.256 475.03 471.885 474.496C471.52 473.956 471.338 473.373 471.338 472.748H473.145C473.177 473.354 473.418 473.835 473.867 474.193C474.323 474.545 474.922 474.721 475.664 474.721C476.348 474.721 476.895 474.584 477.305 474.311C477.721 474.031 477.93 473.66 477.93 473.197ZM486.67 472.182C486.67 471.498 486.859 470.87 487.236 470.297C487.62 469.724 488.35 469.057 489.424 468.295C488.792 467.527 488.369 466.908 488.154 466.439C487.939 465.971 487.832 465.505 487.832 465.043C487.832 463.962 488.151 463.116 488.789 462.504C489.427 461.892 490.293 461.586 491.387 461.586C492.363 461.586 493.171 461.872 493.809 462.445C494.447 463.012 494.766 463.728 494.766 464.594C494.766 465.167 494.619 465.697 494.326 466.186C494.04 466.667 493.535 467.175 492.812 467.709L491.768 468.48L494.932 472.26C495.374 471.413 495.596 470.473 495.596 469.438H497.227C497.227 471.098 496.826 472.475 496.025 473.568L498.057 476H495.889L494.941 474.877C494.46 475.307 493.893 475.635 493.242 475.863C492.598 476.085 491.94 476.195 491.27 476.195C489.883 476.195 488.77 475.827 487.93 475.092C487.09 474.356 486.67 473.386 486.67 472.182ZM491.27 474.721C492.227 474.721 493.102 474.356 493.896 473.627L490.43 469.477L490.107 469.711C489.02 470.512 488.477 471.335 488.477 472.182C488.477 472.95 488.724 473.565 489.219 474.027C489.72 474.49 490.404 474.721 491.27 474.721ZM489.639 464.984C489.639 465.609 490.023 466.391 490.791 467.328L491.943 466.518C492.386 466.205 492.689 465.909 492.852 465.629C493.014 465.342 493.096 464.997 493.096 464.594C493.096 464.158 492.933 463.796 492.607 463.51C492.282 463.217 491.872 463.07 491.377 463.07C490.843 463.07 490.42 463.253 490.107 463.617C489.795 463.975 489.639 464.431 489.639 464.984ZM512.578 469.721H506.611V476H504.736V461.781H513.545V463.324H506.611V468.188H512.578V469.721ZM521.699 476C521.595 475.792 521.51 475.421 521.445 474.887C520.605 475.759 519.603 476.195 518.438 476.195C517.396 476.195 516.54 475.902 515.869 475.316C515.205 474.724 514.873 473.975 514.873 473.07C514.873 471.97 515.29 471.117 516.123 470.512C516.963 469.9 518.141 469.594 519.658 469.594H521.416V468.764C521.416 468.132 521.227 467.631 520.85 467.26C520.472 466.882 519.915 466.693 519.18 466.693C518.535 466.693 517.995 466.856 517.559 467.182C517.122 467.507 516.904 467.901 516.904 468.363H515.088C515.088 467.836 515.273 467.328 515.645 466.84C516.022 466.345 516.53 465.954 517.168 465.668C517.812 465.382 518.519 465.238 519.287 465.238C520.505 465.238 521.458 465.544 522.148 466.156C522.839 466.762 523.197 467.598 523.223 468.666V473.529C523.223 474.499 523.346 475.271 523.594 475.844V476H521.699ZM518.701 474.623C519.268 474.623 519.805 474.477 520.312 474.184C520.82 473.891 521.188 473.51 521.416 473.041V470.873H520C517.786 470.873 516.68 471.521 516.68 472.816C516.68 473.383 516.868 473.826 517.246 474.145C517.624 474.464 518.109 474.623 518.701 474.623ZM527.754 465.434L527.803 466.605C528.577 465.694 529.622 465.238 530.938 465.238C532.415 465.238 533.421 465.805 533.955 466.938C534.307 466.43 534.762 466.02 535.322 465.707C535.889 465.395 536.556 465.238 537.324 465.238C539.642 465.238 540.82 466.465 540.859 468.92V476H539.053V469.027C539.053 468.272 538.88 467.709 538.535 467.338C538.19 466.96 537.611 466.771 536.797 466.771C536.126 466.771 535.57 466.973 535.127 467.377C534.684 467.774 534.427 468.311 534.355 468.988V476H532.539V469.076C532.539 467.54 531.787 466.771 530.283 466.771C529.098 466.771 528.288 467.276 527.852 468.285V476H526.045V465.434H527.754ZM545.557 476H543.75V465.434H545.557V476ZM543.604 462.631C543.604 462.338 543.691 462.09 543.867 461.889C544.049 461.687 544.316 461.586 544.668 461.586C545.02 461.586 545.286 461.687 545.469 461.889C545.651 462.09 545.742 462.338 545.742 462.631C545.742 462.924 545.651 463.168 545.469 463.363C545.286 463.559 545.02 463.656 544.668 463.656C544.316 463.656 544.049 463.559 543.867 463.363C543.691 463.168 543.604 462.924 543.604 462.631ZM550.42 476H548.613V461H550.42V476ZM556.777 473.354L559.238 465.434H561.172L556.924 477.631C556.266 479.389 555.221 480.268 553.789 480.268L553.447 480.238L552.773 480.111V478.646L553.262 478.686C553.874 478.686 554.349 478.562 554.688 478.314C555.033 478.067 555.316 477.615 555.537 476.957L555.938 475.883L552.168 465.434H554.141L556.777 473.354Z" fill="white"/>
<rect x="386" width="60" height="60" rx="30" fill="#53A8CB"/>
<rect x="679" y="121" width="60" height="60" rx="30" fill="#53A8CB"/>
<rect x="94" y="121" width="60" height="60" rx="30" fill="#53A8CB"/>
<path fill-rule="evenodd" clip-rule="evenodd" d="M416 19.7998C411.306 19.7998 407.5 23.6054 407.5 28.2998C407.5 32.5902 410.679 36.1381 414.809 36.7171V41.0497L421.682 34.6383L421.655 34.6457C423.401 33.089 424.5 30.8227 424.5 28.2998C424.5 23.6054 420.694 19.7998 416 19.7998Z" fill="white"/>
<path d="M414.809 36.7171H415.409V36.1953L414.893 36.1229L414.809 36.7171ZM414.809 41.0497H414.209V42.43L415.219 41.4885L414.809 41.0497ZM421.682 34.6383L422.092 35.077L421.525 34.0593L421.682 34.6383ZM421.655 34.6457L421.256 34.1979L421.813 35.2246L421.655 34.6457ZM408.1 28.2998C408.1 23.9368 411.637 20.3998 416 20.3998V19.1998C410.974 19.1998 406.9 23.274 406.9 28.2998H408.1ZM414.893 36.1229C411.054 35.5849 408.1 32.2868 408.1 28.2998H406.9C406.9 32.8935 410.303 36.6914 414.726 37.3113L414.893 36.1229ZM415.409 41.0497V36.7171H414.209V41.0497H415.409ZM421.273 34.1996L414.4 40.611L415.219 41.4885L422.092 35.077L421.273 34.1996ZM421.813 35.2246L421.84 35.2173L421.525 34.0593L421.498 34.0667L421.813 35.2246ZM423.9 28.2998C423.9 30.6446 422.879 32.7502 421.256 34.1979L422.055 35.0935C423.922 33.4277 425.1 31.0009 425.1 28.2998H423.9ZM416 20.3998C420.363 20.3998 423.9 23.9368 423.9 28.2998H425.1C425.1 23.274 421.026 19.1998 416 19.1998V20.3998Z" fill="white"/>
<path fill-rule="evenodd" clip-rule="evenodd" d="M130.715 152.851C130.147 152.283 129.222 152.283 128.654 152.851L127.415 154.089C127.027 154.477 126.905 155.031 127.046 155.524L126.579 155.991C126.579 155.991 126.579 155.991 126.579 155.991C126.247 156.323 124.181 155.814 121.684 153.317C119.187 150.82 118.677 148.755 119.009 148.423L119.476 147.955C119.608 147.993 119.744 148.012 119.881 148.012C120.254 148.012 120.627 147.87 120.912 147.586L122.15 146.348C122.718 145.78 122.718 144.856 122.15 144.287L117.388 139.527C117.113 139.251 116.747 139.1 116.357 139.1C115.968 139.1 115.602 139.251 115.327 139.527L114.089 140.765C113.701 141.153 113.578 141.707 113.72 142.2C113.72 142.2 113.324 142.599 113.304 142.625C111.987 144.088 111.74 146.393 112.613 149.149C113.468 151.847 115.312 154.705 117.804 157.196C120.296 159.688 123.154 161.531 125.853 162.386C126.937 162.73 127.951 162.9 128.872 162.9C130.381 162.9 131.64 162.442 132.543 161.54L132.802 161.28C132.932 161.318 133.068 161.337 133.207 161.337C133.597 161.337 133.963 161.186 134.238 160.911L135.476 159.672C136.045 159.105 136.045 158.18 135.476 157.611L130.715 152.851Z" fill="white"/>
<path fill-rule="evenodd" clip-rule="evenodd" d="M130.866 149.444C130.866 149.782 131.15 150.055 131.501 150.055C131.852 150.055 132.136 149.782 132.136 149.444C132.136 147.802 131.471 146.257 130.263 145.096C129.055 143.934 127.449 143.294 125.741 143.294C125.39 143.294 125.105 143.567 125.105 143.905C125.105 144.242 125.39 144.516 125.741 144.516C127.11 144.516 128.396 145.028 129.365 145.959C130.333 146.89 130.866 148.128 130.866 149.444Z" fill="white"/>
<path fill-rule="evenodd" clip-rule="evenodd" d="M132.484 142.109C130.391 140.168 127.607 139.1 124.647 139.1C124.243 139.1 123.915 139.404 123.915 139.778C123.915 140.153 124.243 140.457 124.647 140.457C127.217 140.457 129.632 141.384 131.449 143.069C133.266 144.753 134.267 146.993 134.267 149.375C134.267 149.75 134.594 150.053 134.999 150.053C135.403 150.053 135.731 149.75 135.731 149.375C135.731 146.63 134.578 144.05 132.484 142.109Z" fill="white"/>
<path fill-rule="evenodd" clip-rule="evenodd" d="M125.678 146.729C125.362 146.729 125.105 146.977 125.105 147.283C125.106 147.59 125.362 147.838 125.678 147.838H125.679C126.15 147.838 126.559 148.002 126.893 148.325C127.221 148.644 127.395 149.05 127.395 149.501C127.395 149.807 127.652 150.056 127.968 150.056C128.284 150.056 128.541 149.807 128.541 149.501C128.541 148.75 128.251 148.072 127.702 147.54C127.154 147.009 126.454 146.729 125.678 146.729Z" fill="white"/>
<path fill-rule="evenodd" clip-rule="evenodd" d="M713.336 154.071V155.27C713.336 157.299 711.675 158.96 709.646 158.96H700.79C698.761 158.96 697.1 157.299 697.1 155.27V147.89C697.1 145.861 698.761 144.2 700.79 144.2H709.646C711.675 144.2 713.336 145.861 713.336 147.89V148.997L720.9 144.385V158.775L713.336 154.071Z" fill="white" stroke="white" stroke-width="1.7"/>
<defs>
<linearGradient id="paint0_linear" x1="50" y1="617" x2="50" y2="717" gradientUnits="userSpaceOnUse">
<stop stop-color="#F08835"/>
<stop offset="1" stop-color="#FF7271"/>
</linearGradient>
<linearGradient id="paint1_linear" x1="722" y1="651" x2="722" y2="751" gradientUnits="userSpaceOnUse">
<stop stop-color="#C349F6"/>
<stop offset="1" stop-color="#FF71BE"/>
</linearGradient>
<linearGradient id="paint2_linear" x1="862" y1="381" x2="862" y2="481" gradientUnits="userSpaceOnUse">
<stop stop-color="#2F8DBE"/>
<stop offset="1" stop-color="#70B8FD"/>
</linearGradient>
</defs>
</svg>
