<svg width="543" height="657" viewBox="0 0 543 657" fill="none" xmlns="http://www.w3.org/2000/svg">
<path d="M355 543C437.843 543 505 475.843 505 393H205C205 475.843 272.157 543 355 543Z" fill="url(#paint0_linear)"/>
<path d="M355 543C437.843 543 505 475.843 505 393H205C205 475.843 272.157 543 355 543ZM355 543V598.5L457 503" stroke="url(#paint1_linear)" stroke-width="50"/>
<path d="M425 338C425 277.249 375.751 228 315 228C254.249 228 205 277.249 205 338" stroke="#53A8CB" stroke-width="50"/>
<path d="M165.703 107.825C162.889 92.3809 174.695 78 190.393 78V78C201.886 78 211.871 85.8944 214.361 97.1147C218.59 116.174 224.82 145.737 228 168C234.244 211.706 233.068 272.462 231.579 308.264C230.881 325.045 216.983 338 200.187 338H180C180 338 183.848 258.622 180 208C177.63 176.827 170.736 135.443 165.703 107.825Z" fill="#53A8CB"/>
<path d="M256.32 30.3127C253.239 14.7245 265.094 0 280.984 0V0C292.279 0 302.143 7.61382 304.804 18.5912C309.038 36.0593 315.097 62.4269 318.222 82.3846C324.737 124 323.199 182.502 321.631 214.617C320.986 227.833 310.015 238 296.783 238V238C282.262 238 270.68 225.839 271.121 211.325C271.894 185.939 272.439 147.493 270.065 119C267.78 91.5765 261.303 55.5202 256.32 30.3127Z" fill="#53A8CB"/>
<path d="M414.461 109.591C418.434 93.7461 406.607 78 390.272 78V78C379.84 78 370.557 84.6101 367.401 94.5533C363.233 107.689 357.712 126.135 354.778 140.308C348.7 169.67 349.631 210.15 351.056 235.169C351.797 248.169 362.672 258 375.693 258V258C390.419 258 402.098 245.524 401.624 230.806C401.019 212.011 400.835 187.061 402.935 168C404.892 150.234 409.925 127.677 414.461 109.591Z" fill="#53A8CB"/>
<path d="M50.0574 288.186C31.8654 280.321 24.0061 258.286 33.9363 241.133L36.3253 237.007C45.0109 222.005 64.0745 216.63 78.9559 225.521C88.6262 231.299 99.1475 237.889 107.335 243.796C144.768 270.802 158.143 298.847 158.318 299.216C158.323 299.227 158.322 299.225 158.328 299.237L162.119 307.259C169.075 321.981 162.951 340.504 146.76 338.776C138.667 337.912 129.557 334.649 120.535 326.746C105.611 313.672 74.6229 298.806 50.0574 288.186Z" fill="#53A8CB"/>
<path d="M476.392 197.629C478.324 186.171 488.339 178 499.959 178V178C515.468 178 527.142 192.243 524.791 207.572C522.362 223.403 520 242.728 520 258C520 289.422 530 338 530 338H480C480 338 470 289.422 470 258C470 239.338 473.527 214.624 476.392 197.629Z" fill="#53A8CB"/>
<path d="M415 369H435V384C435 389.523 430.523 394 425 394C419.477 394 415 389.523 415 384V369Z" stroke="white" stroke-width="35"/>
<rect x="412.5" y="319.5" width="25" height="77" rx="12.5" stroke="#53A8CB" stroke-width="25"/>
<circle cx="518" cy="137" r="25" fill="#53A8CB"/>
<defs>
<linearGradient id="paint0_linear" x1="355" y1="368.5" x2="355" y2="652.5" gradientUnits="userSpaceOnUse">
<stop stop-color="#EC99BA"/>
<stop offset="1" stop-color="#8881B9"/>
</linearGradient>
<linearGradient id="paint1_linear" x1="355" y1="393" x2="355" y2="543" gradientUnits="userSpaceOnUse">
<stop stop-color="#EC99BA"/>
<stop offset="1" stop-color="#8881B9"/>
</linearGradient>
</defs>
</svg>
