<svg width="37" height="46" viewBox="0 0 37 46" fill="none" xmlns="http://www.w3.org/2000/svg">
<path fill-rule="evenodd" clip-rule="evenodd" d="M30.8836 24.1689C30.8319 18.4464 35.5826 15.6624 35.7999 15.5328C33.1094 11.6213 28.9391 11.0869 27.4737 11.0443C23.9712 10.6768 20.5738 13.1341 18.7896 13.1341C16.9698 13.1341 14.2224 11.0798 11.2612 11.1402C7.45067 11.1988 3.88588 13.3986 1.93076 16.8147C-2.10411 23.78 0.905127 34.0158 4.77084 39.646C6.70459 42.4051 8.9642 45.482 11.9218 45.3737C14.8153 45.2566 15.8961 43.5343 19.3879 43.5343C22.8477 43.5343 23.8626 45.3737 26.879 45.3027C29.9844 45.2566 31.9395 42.5347 33.8056 39.7507C36.0402 36.5939 36.9377 33.4778 36.9733 33.318C36.9021 33.295 30.9441 31.0276 30.8836 24.1689Z" fill="white"/>
<path fill-rule="evenodd" clip-rule="evenodd" d="M25.1857 7.34062C26.7419 5.39999 27.8067 2.75981 27.5111 0.0805664C25.2587 0.179995 22.4417 1.63414 20.8196 3.53215C19.3844 5.20468 18.1024 7.94606 18.4336 10.5241C20.9638 10.7123 23.5617 9.25106 25.1857 7.34062Z" fill="white"/>
</svg>
