<svg width="65" height="65" viewBox="0 0 65 65" fill="none" xmlns="http://www.w3.org/2000/svg">
<g id="keypadicon">
<g id="Keypad">
<path id="9" fill-rule="evenodd" clip-rule="evenodd" d="M42.1528 45.4273C44.24 45.4273 45.9321 43.7353 45.9321 41.648C45.9321 39.5607 44.24 37.8687 42.1528 37.8687C40.0655 37.8687 38.3734 39.5607 38.3734 41.648C38.3734 43.7353 40.0655 45.4273 42.1528 45.4273Z" fill="white"/>
<path id="8" fill-rule="evenodd" clip-rule="evenodd" d="M32.7044 45.4273C34.7917 45.4273 36.4837 43.7353 36.4837 41.648C36.4837 39.5607 34.7917 37.8687 32.7044 37.8687C30.6171 37.8687 28.925 39.5607 28.925 41.648C28.925 43.7353 30.6171 45.4273 32.7044 45.4273Z" fill="white"/>
<path id="7" fill-rule="evenodd" clip-rule="evenodd" d="M23.256 45.4273C25.3433 45.4273 27.0354 43.7353 27.0354 41.648C27.0354 39.5607 25.3433 37.8687 23.256 37.8687C21.1688 37.8687 19.4767 39.5607 19.4767 41.648C19.4767 43.7353 21.1688 45.4273 23.256 45.4273Z" fill="white"/>
<path id="6" fill-rule="evenodd" clip-rule="evenodd" d="M42.1528 35.9791C44.24 35.9791 45.9321 34.287 45.9321 32.1998C45.9321 30.1125 44.24 28.4204 42.1528 28.4204C40.0655 28.4204 38.3734 30.1125 38.3734 32.1998C38.3734 34.287 40.0655 35.9791 42.1528 35.9791Z" fill="white"/>
<path id="5" fill-rule="evenodd" clip-rule="evenodd" d="M32.7044 35.9791C34.7917 35.9791 36.4837 34.287 36.4837 32.1998C36.4837 30.1125 34.7917 28.4204 32.7044 28.4204C30.6171 28.4204 28.925 30.1125 28.925 32.1998C28.925 34.287 30.6171 35.9791 32.7044 35.9791Z" fill="white"/>
<path id="4" fill-rule="evenodd" clip-rule="evenodd" d="M23.256 35.9791C25.3433 35.9791 27.0354 34.287 27.0354 32.1998C27.0354 30.1125 25.3433 28.4204 23.256 28.4204C21.1688 28.4204 19.4767 30.1125 19.4767 32.1998C19.4767 34.287 21.1688 35.9791 23.256 35.9791Z" fill="white"/>
<path id="3" fill-rule="evenodd" clip-rule="evenodd" d="M42.1528 26.5309C44.24 26.5309 45.9321 24.8388 45.9321 22.7515C45.9321 20.6642 44.24 18.9722 42.1528 18.9722C40.0655 18.9722 38.3734 20.6642 38.3734 22.7515C38.3734 24.8388 40.0655 26.5309 42.1528 26.5309Z" fill="white"/>
<path id="2" fill-rule="evenodd" clip-rule="evenodd" d="M32.7044 26.5309C34.7917 26.5309 36.4837 24.8388 36.4837 22.7515C36.4837 20.6642 34.7917 18.9722 32.7044 18.9722C30.6171 18.9722 28.925 20.6642 28.925 22.7515C28.925 24.8388 30.6171 26.5309 32.7044 26.5309Z" fill="white"/>
<path id="1" fill-rule="evenodd" clip-rule="evenodd" d="M23.256 26.5309C25.3433 26.5309 27.0354 24.8388 27.0354 22.7515C27.0354 20.6642 25.3433 18.9722 23.256 18.9722C21.1688 18.9722 19.4767 20.6642 19.4767 22.7515C19.4767 24.8388 21.1688 26.5309 23.256 26.5309Z" fill="white"/>
</g>
<path id="Bounding Circle" d="M63.4116 32.4833C63.4116 15.2633 49.452 1.30371 32.232 1.30371C15.0119 1.30371 1.05237 15.2633 1.05237 32.4833C1.05237 49.7033 15.0119 63.6629 32.232 63.6629C49.452 63.6629 63.4116 49.7033 63.4116 32.4833Z" stroke="white" stroke-width="1.26126"/>
</g>
</svg>
