<svg width="360" height="195" viewBox="0 0 360 195" fill="none" xmlns="http://www.w3.org/2000/svg">
<g opacity="0.7">
<rect width="360" height="195" fill="#47525D"/>
</g>
<path d="M182.5 85V82.5C182.5 81.1193 181.381 80 180 80V80C178.619 80 177.5 81.1193 177.5 82.5V85" stroke="white"/>
<path d="M174 86C174 85.4477 174.448 85 175 85H185C185.552 85 186 85.4477 186 86V93C186 93.5523 185.552 94 185 94H175C174.448 94 174 93.5523 174 93V86Z" stroke="white"/>
<rect x="178.5" y="88" width="3" height="3" rx="1.5" fill="white"/>
<path d="M164.828 110.773H170.219V112H163.32V100.625H164.828V110.773ZM171.32 107.695C171.32 106.867 171.482 106.122 171.805 105.461C172.133 104.799 172.586 104.289 173.164 103.93C173.747 103.57 174.411 103.391 175.156 103.391C176.307 103.391 177.237 103.789 177.945 104.586C178.659 105.383 179.016 106.443 179.016 107.766V107.867C179.016 108.69 178.857 109.43 178.539 110.086C178.227 110.737 177.776 111.245 177.188 111.609C176.604 111.974 175.932 112.156 175.172 112.156C174.026 112.156 173.096 111.758 172.383 110.961C171.674 110.164 171.32 109.109 171.32 107.797V107.695ZM172.773 107.867C172.773 108.805 172.99 109.557 173.422 110.125C173.859 110.693 174.443 110.977 175.172 110.977C175.906 110.977 176.49 110.69 176.922 110.117C177.354 109.539 177.57 108.732 177.57 107.695C177.57 106.768 177.349 106.018 176.906 105.445C176.469 104.867 175.885 104.578 175.156 104.578C174.443 104.578 173.867 104.862 173.43 105.43C172.992 105.997 172.773 106.81 172.773 107.867ZM184.219 110.977C184.734 110.977 185.185 110.82 185.57 110.508C185.956 110.195 186.169 109.805 186.211 109.336H187.578C187.552 109.82 187.385 110.281 187.078 110.719C186.771 111.156 186.359 111.505 185.844 111.766C185.333 112.026 184.792 112.156 184.219 112.156C183.068 112.156 182.151 111.773 181.469 111.008C180.792 110.237 180.453 109.185 180.453 107.852V107.609C180.453 106.786 180.604 106.055 180.906 105.414C181.208 104.773 181.641 104.276 182.203 103.922C182.771 103.568 183.44 103.391 184.211 103.391C185.159 103.391 185.945 103.674 186.57 104.242C187.201 104.81 187.536 105.547 187.578 106.453H186.211C186.169 105.906 185.961 105.458 185.586 105.109C185.216 104.755 184.758 104.578 184.211 104.578C183.477 104.578 182.906 104.844 182.5 105.375C182.099 105.901 181.898 106.664 181.898 107.664V107.938C181.898 108.911 182.099 109.661 182.5 110.188C182.901 110.714 183.474 110.977 184.219 110.977ZM191.562 108.086L190.656 109.031V112H189.211V100H190.656V107.258L191.43 106.328L194.062 103.547H195.82L192.531 107.078L196.203 112H194.508L191.562 108.086Z" fill="white"/>
</svg>
