<svg width="51" height="51" viewBox="0 0 51 51" fill="none" xmlns="http://www.w3.org/2000/svg">
<path d="M50 25.5C50 11.969 39.031 1 25.5 1C11.969 1 1 11.969 1 25.5C1 39.031 11.969 50 25.5 50C39.031 50 50 39.031 50 25.5Z" stroke="white" stroke-width="1.02083"/>
<path d="M25.9654 31.2357H19.584C18.1216 31.2357 16.925 30.0391 16.925 28.5767V23.2589M30.4001 31.0125L28.6243 29.4789M16.925 19.375L28.6243 29.4789M28.6243 29.4789V28.5767V27.7126L34.0751 31.1027V20.7329L28.6243 24.0566V23.2589C28.6243 21.7965 27.4278 20.6 25.9654 20.6H20.6H18.15" stroke="white" stroke-width="1.225"/>
</svg>
