<svg width="65" height="65" viewBox="0 0 65 65" fill="none" xmlns="http://www.w3.org/2000/svg">
<g id="muteicon">
<g id="Mic Stand">
<g id="Mic Cup">
<path id="Path 8" d="M39.8644 35.0595C39.8622 35.1843 39.8536 35.4217 39.8346 35.7283C39.8031 36.2389 39.7532 36.7491 39.6815 37.2223C39.5304 38.2186 39.2891 38.9112 39.0718 39.0458L39.5741 39.8569C40.1304 39.5124 40.4293 38.6544 40.6247 37.3653C40.7012 36.861 40.7537 36.3238 40.7869 35.7871C40.8068 35.4652 40.8159 35.2139 40.8183 35.0675L40.8184 26.2822H39.8644V35.0595Z" fill="white"/>
<path id="Path 9" d="M22.6915 34.7738C22.6915 38.7652 25.8732 42.4927 29.7964 43.0611L29.8648 42.589L29.4084 42.4503C29.4013 42.4747 29.4013 42.4747 29.3933 42.5164C29.3167 43.0124 29.5669 43.0958 30.3247 43.1781C30.7362 43.2228 31.3549 43.2567 32.2211 43.2765C33.345 43.2534 34.4499 42.9865 35.5105 42.557C35.8976 42.4002 36.252 42.2321 36.5668 42.0636C36.7582 41.9611 36.896 41.8799 36.9731 41.8308L36.46 41.0264C36.4026 41.063 36.2857 41.1319 36.1166 41.2225C35.8304 41.3756 35.5065 41.5293 35.1523 41.6727C34.1914 42.0619 33.1962 42.3023 32.222 42.3227C31.4015 42.3035 30.8082 42.271 30.4277 42.2296C30.2334 42.2085 30.119 42.1877 30.079 42.1744C30.2301 42.2248 30.1676 42.1728 30.3362 42.6619C30.3282 42.7033 30.4826 42.1965 30.4826 42.1965L29.9332 42.1169C26.482 41.6169 23.6456 38.2939 23.6456 34.7738V26.2822H22.6915V34.7738Z" fill="white"/>
</g>
<path id="Mic Stand_2" fill-rule="evenodd" clip-rule="evenodd" d="M31.278 48.9406V48.9088H26.2693H26.0307H25.7922V48.6703V48.1932V47.9547H26.0307H26.2693H31.278V43.6933V43.4548V43.2163H31.5165H31.9935H32.232V43.4548V43.6933V47.9547H37.7178H37.9563H38.1948V48.1932V48.6703V48.9088H37.9563H37.7178H32.232V48.9406H31.9935H31.5165H31.278ZM31.9935 48.7021V48.6703V48.4636H31.755H31.5165L31.5165 48.6703L31.5165 48.7021H31.755H31.9935ZM26.2693 48.6703L26.0307 48.4318L26.2693 48.1932V48.4318V48.6703ZM31.5165 43.6933L31.755 43.4548L31.9935 43.6933H31.755H31.5165ZM37.7178 48.1932L37.9563 48.4318L37.7178 48.6703V48.4318V48.1932Z" fill="white"/>
</g>
<g id="Mic">
<g id="Mic_2">
<path id="Mic Top" fill-rule="evenodd" clip-rule="evenodd" d="M26.6031 19.2985C26.6127 16.2507 29.4239 15.3105 31.755 15.3105C34.0861 15.3105 36.9825 16.113 36.9832 20.4624C36.9832 25.609 36.9804 35.9928 36.9804 35.9928C36.9804 35.9928 28.9248 23.0709 26.6031 19.2985Z" fill="white"/>
<path id="Mic Bottom" fill-rule="evenodd" clip-rule="evenodd" d="M26.5078 34.0864C26.5081 31.4523 29.9682 30.473 31.3518 32.7145C32.1291 33.9738 32.8944 35.2119 33.5558 36.2789C34.5276 37.8465 33.9891 39.8624 32.1447 39.8499C31.424 39.8548 26.3416 39.6968 26.5078 34.0864Z" fill="white"/>
</g>
<path id="Line" d="M42.0358 47.8322L42.2886 48.2367L43.0976 47.7311L42.8448 47.3266L23.3823 16.1809L23.1295 15.7764L22.3204 16.2819L22.5732 16.6865L42.0358 47.8322Z" fill="white"/>
</g>
<path id="Bounding Circle" d="M63.7156 32.4835C63.7156 15.0956 49.6199 1 32.232 1C14.8442 1 0.748535 15.0956 0.748535 32.4835C0.748535 49.8714 14.8442 63.967 32.232 63.967C49.6199 63.967 63.7156 49.8714 63.7156 32.4835Z" stroke="white" stroke-width="1.26126"/>
</g>
</svg>
