<svg width="163" height="55" viewBox="0 0 163 55" fill="none" xmlns="http://www.w3.org/2000/svg">
<g id="poweredbyintouch">
<g id="Logo">
<path id="Rectangle 4" fill-rule="evenodd" clip-rule="evenodd" d="M1.302 29H5.40456L4.40393 36.5L1.302 40.2V29Z" fill="#2AB9F6"/>
<path id="Rectangle 4_2" fill-rule="evenodd" clip-rule="evenodd" d="M1.302 44.6L4.40393 48.3L5.40456 49H1.302V44.6Z" fill="#2AB9F6"/>
<g id="Group" clip-path="url(#clip0)">
<g id="D">
<path id="Combined Shape" fill-rule="evenodd" clip-rule="evenodd" d="M10.9298 24H1.302V29H8.38758C14.4216 29 19.3132 33.8916 19.3132 39.9256C19.3132 44.9373 15.2505 49 10.2388 49H1.302V54H13.7066C21.2241 54 27.3182 47.9059 27.3182 40.3884C27.3182 31.3374 19.9808 24 10.9298 24Z" fill="#2AB9F6"/>
<g id="Page 1">
<path id="Fill 1" fill-rule="evenodd" clip-rule="evenodd" d="M9.72888 40.5821L9.25736 40.1154C7.50765 38.5777 6.36401 37.541 6.36401 36.2696C6.36401 35.235 7.17243 34.4319 8.21385 34.4319C8.78758 34.4319 9.35916 34.6997 9.72888 35.1339C10.0986 34.6997 10.6702 34.4319 11.2439 34.4319C12.2853 34.4319 13.0937 35.235 13.0937 36.2696C13.0937 37.541 11.9501 38.5777 10.2004 40.1154L9.72888 40.5821Z" fill="#2AB9F6"/>
<path id="Fill 4" fill-rule="evenodd" clip-rule="evenodd" d="M15.0862 40.5066C14.9612 40.6415 14.8125 40.7582 14.6763 40.8809C14.5122 41.0292 14.3436 41.1725 14.1734 41.3137C13.8571 41.576 13.5344 41.8303 13.2167 42.091C13.1541 41.9328 13.0194 41.7977 12.8791 41.7052C12.6661 41.5646 12.4088 41.4924 12.1499 41.4549C12.3094 41.249 12.5776 41.1638 12.8088 41.0621C13.0783 40.9438 13.2936 40.7576 13.5243 40.5797C13.7516 40.4044 13.9986 40.2458 14.2932 40.2245C14.5684 40.2046 14.9067 40.2832 15.0862 40.5066Z" fill="#2AB9F6"/>
<path id="Fill 7" fill-rule="evenodd" clip-rule="evenodd" d="M14.744 39.9515C14.7223 40.0187 14.673 40.0802 14.6328 40.1372C14.5554 40.1218 14.4769 40.1127 14.3996 40.1084C14.0742 40.0899 13.7833 40.2446 13.5297 40.4311C13.2754 40.6181 13.0481 40.8316 12.7556 40.9601C12.484 41.0793 12.1928 41.1791 12.0214 41.4364C12.0208 41.4372 12.0204 41.4379 12.02 41.4386C11.9349 41.4299 11.8506 41.4242 11.7683 41.4205C11.7402 41.4193 11.7121 41.4183 11.6841 41.4176C11.8761 41.2101 12.1171 41.0554 12.3576 40.907C12.6232 40.743 12.8769 40.5734 13.1206 40.3785C13.3648 40.1832 13.6144 39.9783 13.9119 39.869C14.175 39.7723 14.5311 39.7405 14.744 39.9515Z" fill="#2AB9F6"/>
<path id="Fill 9" fill-rule="evenodd" clip-rule="evenodd" d="M13.771 39.7996C13.5431 39.9002 13.3384 40.0588 13.1467 40.2107C13.0197 40.3112 12.8948 40.414 12.7634 40.5089C12.6256 40.6085 12.4793 40.6965 12.3344 40.7855C12.0441 40.9637 11.7489 41.1497 11.5321 41.4163C11.3189 41.4178 11.1057 41.432 10.8928 41.4478C11.0819 41.2598 11.3038 41.1075 11.5203 40.952C11.7689 40.7735 11.99 40.5741 12.2135 40.3663C12.4313 40.164 12.6626 39.9685 12.9437 39.8602C13.2005 39.7612 13.4988 39.7403 13.771 39.7996Z" fill="#2AB9F6"/>
<path id="Fill 11" fill-rule="evenodd" clip-rule="evenodd" d="M10.2029 42.7318C10.1889 42.7297 10.1758 42.7292 10.1688 42.726C10.0927 42.7191 10.0163 42.7133 9.93992 42.7088L9.74879 42.6997C9.7458 42.6979 9.7212 42.702 9.71873 42.6999C9.61545 42.6976 9.51205 42.6981 9.40893 42.7022L9.29956 42.7081C9.20428 42.7144 9.10913 42.7238 9.01462 42.7371C8.58584 42.7974 8.1783 42.9277 7.79034 43.1176C7.72342 43.1505 7.66443 43.0509 7.7317 43.018C8.16304 42.8068 8.61886 42.664 9.09782 42.6113C9.46282 42.5712 9.83058 42.5787 10.1956 42.6128C10.2024 42.613 10.2092 42.6136 10.2162 42.6146C10.2701 42.6198 10.3237 42.6256 10.3774 42.6318C10.7357 42.6735 11.0908 42.7404 11.4505 42.772C11.8125 42.8039 12.1946 42.8122 12.5428 42.6922C12.814 42.5989 13.2122 42.4701 13.1245 42.1254C13.0398 41.7921 12.6691 41.7228 12.3663 41.6376C11.9623 41.5239 11.539 41.5175 11.1221 41.5286C10.708 41.5399 10.2929 41.4646 9.87865 41.4541C9.48851 41.4441 9.09172 41.2911 8.74911 41.0947C8.74493 41.0932 8.74053 41.091 8.73633 41.0881C8.73443 41.0868 8.73257 41.0855 8.73064 41.0842C8.7301 41.0839 8.72949 41.0836 8.72907 41.0832C8.72762 41.0825 8.7266 41.0814 8.72528 41.0806C8.16102 40.6943 7.55261 40.1939 6.8354 40.1717C6.45765 40.16 6.09262 40.2616 5.7258 40.3359C5.54583 40.3724 5.3599 40.4092 5.17573 40.4129C4.99259 40.4167 4.80958 40.4136 4.62644 40.4127C4.19943 40.4102 3.77548 40.433 3.37259 40.5871C2.98826 40.7341 2.6205 40.9246 2.28325 41.1598C1.94529 41.3955 1.65698 41.6795 1.35923 41.9616C1.34022 41.9796 1.32117 41.9976 1.302 42.0156L2.86276 44.3316C2.95573 44.2641 3.05245 44.2019 3.15354 44.1469C3.51912 43.9482 3.91314 43.8555 4.32971 43.8614C4.75248 43.8673 5.17647 43.9421 5.58765 44.0354C6.0476 44.1399 6.50206 44.2658 6.95813 44.3853C7.41173 44.5039 7.86838 44.6186 8.33109 44.6959C8.77917 44.7707 9.25845 44.8149 9.70636 44.7147C9.71076 44.7137 9.71497 44.7132 9.71918 44.7131C10.1438 44.4606 10.4965 44.1132 10.846 43.7689C11.0202 43.5972 11.1944 43.4249 11.3787 43.2639C11.5204 43.1401 11.6672 43.0104 11.8291 42.9095C11.3823 42.9088 10.9312 42.8189 10.4886 42.7611L10.2029 42.7318Z" fill="#2AB9F6"/>
<path id="Fill 14" fill-rule="evenodd" clip-rule="evenodd" d="M10.9253 41.237C10.9356 41.2367 10.9456 41.2364 10.9559 41.236V41.2098C10.9457 41.219 10.9353 41.2278 10.9253 41.237Z" fill="#2AB9F6"/>
</g>
</g>
<path id="evshubha" d="M41.3487 49.69C41.1287 49.93 40.7887 50.26 40.3287 50.68C39.8687 51.1 39.3087 51.52 38.6487 51.94C38.0087 52.36 37.2887 52.72 36.4887 53.02C35.6887 53.32 34.8387 53.47 33.9387 53.47C33.1187 53.47 32.3187 53.35 31.5387 53.11C30.7587 52.85 30.0587 52.47 29.4387 51.97C28.8187 51.45 28.3187 50.8 27.9387 50.02C27.5787 49.22 27.3987 48.27 27.3987 47.17C27.3987 46.27 27.4587 45.5 27.5787 44.86C27.6987 44.2 27.8587 43.63 28.0587 43.15C28.2587 42.65 28.4787 42.23 28.7187 41.89C28.9787 41.53 29.2387 41.21 29.4987 40.93C29.8187 40.57 30.2087 40.23 30.6687 39.91C31.1287 39.59 31.6187 39.3 32.1387 39.04C32.6787 38.78 33.2387 38.58 33.8187 38.44C34.4187 38.28 35.0187 38.2 35.6187 38.2C36.6987 38.2 37.5387 38.38 38.1387 38.74C38.7587 39.1 39.0687 39.6 39.0687 40.24C39.0687 40.64 38.9487 41.01 38.7087 41.35C38.9087 41.29 39.1587 41.19 39.4587 41.05C39.7787 40.91 40.0987 40.77 40.4187 40.63C40.7387 40.47 41.0187 40.33 41.2587 40.21C41.5187 40.09 41.6887 40 41.7687 39.94C41.8087 39.9 41.8487 39.89 41.8887 39.91C41.9487 39.91 41.9787 39.94 41.9787 40C41.9787 40.26 41.9287 40.48 41.8287 40.66C41.7287 40.82 41.6087 40.95 41.4687 41.05C41.1487 41.25 40.6887 41.5 40.0887 41.8C39.4887 42.1 38.8187 42.42 38.0787 42.76C37.3587 43.08 36.6087 43.41 35.8287 43.75C35.0487 44.07 34.3087 44.38 33.6087 44.68C32.9287 44.98 32.3287 45.25 31.8087 45.49C31.3087 45.71 30.9687 45.87 30.7887 45.97C30.7887 46.65 30.9187 47.29 31.1787 47.89C31.4587 48.47 31.8387 48.98 32.3187 49.42C32.7987 49.86 33.3687 50.21 34.0287 50.47C34.7087 50.71 35.4487 50.83 36.2487 50.83C36.9687 50.83 37.6187 50.76 38.1987 50.62C38.7787 50.46 39.2687 50.29 39.6687 50.11C40.0687 49.91 40.3787 49.74 40.5987 49.6C40.8387 49.44 40.9687 49.36 40.9887 49.36C41.0687 49.36 41.1487 49.4 41.2287 49.48C41.3087 49.54 41.3487 49.61 41.3487 49.69ZM30.7887 45.1C31.1287 44.98 31.5087 44.84 31.9287 44.68C32.3687 44.5 32.7887 44.31 33.1887 44.11C33.6087 43.91 33.9887 43.72 34.3287 43.54C34.6687 43.36 34.9287 43.2 35.1087 43.06C35.4687 42.8 35.6487 42.36 35.6487 41.74C35.6487 41.5 35.5987 41.25 35.4987 40.99C35.4187 40.73 35.2887 40.5 35.1087 40.3C34.9287 40.08 34.7087 39.91 34.4487 39.79C34.1887 39.65 33.8987 39.58 33.5787 39.58C33.2987 39.58 32.9987 39.68 32.6787 39.88C32.3587 40.06 32.0587 40.37 31.7787 40.81C31.4987 41.23 31.2587 41.8 31.0587 42.52C30.8787 43.22 30.7887 44.08 30.7887 45.1ZM49.277 49.87C49.357 49.75 49.507 49.51 49.727 49.15C49.967 48.77 50.227 48.31 50.507 47.77C50.807 47.23 51.107 46.65 51.407 46.03C51.727 45.39 52.017 44.75 52.277 44.11C52.537 43.47 52.747 42.87 52.907 42.31C53.087 41.73 53.177 41.23 53.177 40.81C53.177 40.49 53.137 40.24 53.057 40.06C52.977 39.86 52.857 39.71 52.697 39.61C52.557 39.51 52.387 39.44 52.187 39.4C51.987 39.36 51.777 39.34 51.557 39.34C51.437 39.34 51.317 39.35 51.197 39.37C51.077 39.39 50.957 39.42 50.837 39.46C50.717 39.5 50.617 39.49 50.537 39.43C50.477 39.35 50.447 39.29 50.447 39.25C50.447 39.17 50.577 39.07 50.837 38.95C51.117 38.83 51.487 38.72 51.947 38.62C52.427 38.52 52.967 38.44 53.567 38.38C54.187 38.3 54.827 38.26 55.487 38.26C56.427 38.26 56.897 38.57 56.897 39.19C56.897 39.47 56.707 39.95 56.327 40.63C55.967 41.31 55.497 42.11 54.917 43.03C54.357 43.93 53.727 44.89 53.027 45.91C52.347 46.93 51.677 47.92 51.017 48.88C50.357 49.82 49.747 50.69 49.187 51.49C48.647 52.29 48.237 52.91 47.957 53.35C47.897 53.43 47.677 53.47 47.297 53.47C47.137 53.47 47.027 53.44 46.967 53.38C46.927 53.34 46.887 53.26 46.847 53.14C46.667 52.58 46.457 51.96 46.217 51.28C45.997 50.6 45.757 49.91 45.497 49.21C45.237 48.51 44.967 47.82 44.687 47.14C44.427 46.44 44.167 45.79 43.907 45.19C43.207 43.51 42.607 42.34 42.107 41.68C41.627 41 41.177 40.66 40.757 40.66C40.637 40.66 40.527 40.68 40.427 40.72C40.307 40.76 40.197 40.8 40.097 40.84C40.057 40.84 40.007 40.8 39.947 40.72C39.867 40.62 39.847 40.55 39.887 40.51C39.907 40.49 40.097 40.36 40.457 40.12C40.817 39.88 41.237 39.62 41.717 39.34C42.197 39.04 42.677 38.77 43.157 38.53C43.657 38.29 44.057 38.1699 44.357 38.1699C44.817 38.1699 45.237 38.5999 45.617 39.46C45.997 40.3 46.447 41.47 46.967 42.97L49.277 49.87ZM57.8211 52.45C57.6611 52.55 57.5111 52.72 57.3711 52.96C57.2311 53.18 57.1411 53.35 57.1011 53.47C57.0811 53.51 57.0211 53.54 56.9211 53.56C56.8411 53.6 56.7811 53.62 56.7411 53.62C56.5611 53.62 56.4711 53.53 56.4711 53.35C56.4711 53.29 56.5511 53.13 56.7111 52.87C56.8311 52.67 57.0211 52.36 57.2811 51.94C57.5411 51.5 57.8011 51.06 58.0611 50.62C58.3411 50.16 58.5911 49.75 58.8111 49.39C59.0511 49.01 59.2211 48.76 59.3211 48.64C59.4211 48.54 59.5411 48.53 59.6811 48.61C59.8211 48.67 59.8611 48.75 59.8011 48.85C59.7611 48.89 59.7311 48.94 59.7111 49C59.6911 49.06 59.6811 49.16 59.6811 49.3C59.6811 49.48 59.8311 49.71 60.1311 49.99C60.4511 50.25 60.8511 50.51 61.3311 50.77C61.8111 51.01 62.3411 51.22 62.9211 51.4C63.5011 51.58 64.0711 51.67 64.6311 51.67C65.2911 51.67 65.8111 51.48 66.1911 51.1C66.5911 50.72 66.7911 50.22 66.7911 49.6C66.7911 48.9 66.5711 48.38 66.1311 48.04C65.6911 47.7 65.1411 47.44 64.4811 47.26C63.8411 47.08 63.1311 46.94 62.3511 46.84C61.5911 46.72 60.8811 46.55 60.2211 46.33C59.5811 46.11 59.0411 45.79 58.6011 45.37C58.1611 44.95 57.9411 44.34 57.9411 43.54C57.9411 42.92 58.1511 42.29 58.5711 41.65C59.0111 41.01 59.5811 40.44 60.2811 39.94C61.0011 39.44 61.8211 39.03 62.7411 38.71C63.6611 38.39 64.6211 38.23 65.6211 38.23C65.9211 38.23 66.2711 38.26 66.6711 38.32C67.0711 38.38 67.4611 38.46 67.8411 38.56C68.2411 38.64 68.6011 38.73 68.9211 38.83C69.2611 38.91 69.5111 38.98 69.6711 39.04C69.7111 39.04 69.7011 39.12 69.6411 39.28C69.5811 39.46 69.4311 39.74 69.1911 40.12C68.9511 40.48 68.6811 40.84 68.3811 41.2C68.1011 41.56 67.8311 41.88 67.5711 42.16C67.3311 42.44 67.1611 42.58 67.0611 42.58C67.0411 42.58 66.9811 42.58 66.8811 42.58C66.7811 42.58 66.7111 42.56 66.6711 42.52C66.6911 42.42 66.7011 42.29 66.7011 42.13C66.7011 41.43 66.3811 40.88 65.7411 40.48C65.1211 40.08 64.2111 39.88 63.0111 39.88C62.4311 39.88 61.9511 40.05 61.5711 40.39C61.2111 40.73 61.0311 41.14 61.0311 41.62C61.0311 42.4 61.2511 42.98 61.6911 43.36C62.1311 43.74 62.6811 44.03 63.3411 44.23C64.0011 44.41 64.7111 44.55 65.4711 44.65C66.2311 44.75 66.9411 44.91 67.6011 45.13C68.2611 45.33 68.8111 45.64 69.2511 46.06C69.6911 46.48 69.9111 47.11 69.9111 47.95C69.9111 48.33 69.8311 48.7 69.6711 49.06C69.5111 49.42 69.3011 49.76 69.0411 50.08C68.7811 50.4 68.4911 50.7 68.1711 50.98C67.8511 51.24 67.5311 51.47 67.2111 51.67C66.9111 51.87 66.5711 52.08 66.1911 52.3C65.8111 52.5 65.4011 52.69 64.9611 52.87C64.5211 53.05 64.0711 53.19 63.6111 53.29C63.1511 53.41 62.6911 53.47 62.2311 53.47C62.0111 53.47 61.6611 53.42 61.1811 53.32C60.7011 53.24 60.2111 53.14 59.7111 53.02C59.2311 52.9 58.8011 52.79 58.4211 52.69C58.0411 52.57 57.8411 52.49 57.8211 52.45ZM76.3751 41.53C76.7751 41.17 77.2251 40.8 77.7251 40.42C78.2251 40.02 78.7451 39.66 79.2851 39.34C79.8451 39 80.4251 38.73 81.0251 38.53C81.6251 38.31 82.2351 38.2 82.8551 38.2C83.5751 38.2 84.2451 38.32 84.8651 38.56C85.5051 38.78 86.0651 39.11 86.5451 39.55C87.0251 39.99 87.4051 40.52 87.6851 41.14C87.9651 41.74 88.1051 42.42 88.1051 43.18C88.1051 44.72 87.8351 46.14 87.2951 47.44C86.7751 48.72 86.1551 49.85 85.4351 50.83C84.7351 51.79 84.0351 52.59 83.3351 53.23C82.6351 53.87 82.1151 54.29 81.7751 54.49C81.6751 54.55 81.5751 54.53 81.4751 54.43C81.3751 54.33 81.3751 54.22 81.4751 54.1C81.6351 53.98 81.8751 53.68 82.1951 53.2C82.5351 52.74 82.8751 52.15 83.2151 51.43C83.5551 50.71 83.8551 49.89 84.1151 48.97C84.3751 48.05 84.5051 47.06 84.5051 46C84.5051 45.12 84.3951 44.34 84.1751 43.66C83.9751 42.98 83.6951 42.41 83.3351 41.95C82.9751 41.49 82.5551 41.14 82.0751 40.9C81.6151 40.66 81.1151 40.54 80.5751 40.54C80.2151 40.54 79.8351 40.6 79.4351 40.72C79.0351 40.82 78.6651 40.97 78.3251 41.17C77.9651 41.39 77.6151 41.66 77.2751 41.98C76.9351 42.3 76.6851 42.63 76.5251 42.97C76.4851 43.05 76.4451 43.13 76.4051 43.21C76.3851 43.27 76.3551 43.37 76.3151 43.51C76.2951 43.63 76.2651 43.79 76.2251 43.99C76.2051 44.19 76.1851 44.46 76.1651 44.8C76.1051 45.38 76.0551 45.95 76.0151 46.51C75.9951 47.05 75.9851 47.7 75.9851 48.46C75.9851 49.44 76.0451 50.2 76.1651 50.74C76.2851 51.26 76.6351 51.56 77.2151 51.64C77.2751 51.64 77.3451 51.64 77.4251 51.64C77.5051 51.62 77.5951 51.6 77.6951 51.58C77.7751 51.56 77.8751 51.53 77.9951 51.49C78.0551 51.49 78.0951 51.52 78.1151 51.58C78.1551 51.64 78.1751 51.7 78.1751 51.76C78.1751 51.82 78.0651 51.91 77.8451 52.03C77.6251 52.15 77.3451 52.28 77.0051 52.42C76.6651 52.54 76.2851 52.67 75.8651 52.81C75.4651 52.93 75.0851 53.05 74.7251 53.17C74.3451 53.27 74.0151 53.36 73.7351 53.44C73.4751 53.52 73.2951 53.56 73.1951 53.56C72.5951 53.56 72.2951 53.33 72.2951 52.87C72.2951 52.77 72.3451 52.58 72.4451 52.3C72.5451 52.02 72.6251 51.59 72.6851 51.01C72.7651 50.17 72.8451 49.25 72.9251 48.25C73.0051 47.23 73.0651 46.21 73.1051 45.19C73.1651 44.17 73.2051 43.17 73.2251 42.19C73.2651 41.21 73.2851 40.33 73.2851 39.55C73.2851 38.11 73.2551 36.89 73.1951 35.89C73.1551 34.89 73.1151 34.18 73.0751 33.76C73.0151 33.24 72.9551 32.9 72.8951 32.7399C72.8351 32.5599 72.7651 32.4 72.6851 32.26C72.5851 32.08 72.4551 31.96 72.2951 31.9C72.1551 31.8199 72.0151 31.7699 71.8751 31.75C71.7551 31.73 71.6451 31.73 71.5451 31.75C71.4651 31.75 71.4251 31.73 71.4251 31.69C71.4251 31.41 71.5151 31.18 71.6951 31C71.8751 30.82 72.1151 30.73 72.4151 30.73C72.9951 30.73 73.5951 30.72 74.2151 30.6999C74.8351 30.6799 75.4051 30.65 75.9251 30.61C76.3651 30.5699 76.7651 30.5099 77.1251 30.4299C77.5051 30.35 77.7551 30.29 77.8751 30.2499C78.0351 30.23 78.1151 30.26 78.1151 30.34C78.1351 30.3999 78.1451 30.5199 78.1451 30.6999C78.1451 30.82 78.0951 30.91 77.9951 30.9699C77.8951 31.0299 77.7851 31.0799 77.6651 31.1199C77.5451 31.16 77.4251 31.2 77.3051 31.2399C77.2051 31.26 77.1351 31.3 77.0951 31.3599C77.0151 31.4799 76.9351 31.8499 76.8551 32.4699C76.7751 33.09 76.6951 33.88 76.6151 34.8399C76.5551 35.78 76.4951 36.83 76.4351 37.99C76.3951 39.15 76.3651 40.32 76.3451 41.5L76.3751 41.53ZM90.2496 40.81C90.0896 40.77 90.0096 40.69 90.0096 40.57C90.0296 40.45 90.1096 40.38 90.2496 40.36C90.3096 40.34 90.4996 40.27 90.8196 40.15C91.1396 40.03 91.5196 39.89 91.9596 39.73C92.4196 39.57 92.8896 39.4 93.3696 39.22C93.8696 39.04 94.3096 38.89 94.6896 38.77C94.9296 38.69 95.0896 38.64 95.1696 38.62C95.2696 38.58 95.3496 38.56 95.4096 38.56C95.4696 38.56 95.5396 38.59 95.6196 38.65C95.6996 38.69 95.7196 38.76 95.6796 38.86C95.6196 39.02 95.5496 39.4 95.4696 40C95.4096 40.6 95.3496 41.27 95.2896 42.01C95.2296 42.73 95.1696 43.45 95.1096 44.17C95.0696 44.89 95.0496 45.46 95.0496 45.88C95.0496 47.48 95.3896 48.72 96.0696 49.6C96.7496 50.46 97.8096 50.89 99.2496 50.89C99.9896 50.89 100.6 50.74 101.08 50.44C101.58 50.14 101.96 49.79 102.22 49.39C102.4 49.13 102.52 48.56 102.58 47.68C102.58 47.52 102.58 47.31 102.58 47.05C102.6 46.79 102.61 46.52 102.61 46.24C102.63 45.94 102.64 45.66 102.64 45.4C102.66 45.12 102.67 44.89 102.67 44.71C102.69 43.79 102.66 42.94 102.58 42.16C102.52 41.36 102.42 40.77 102.28 40.39C102.22 40.15 102.1 40.03 101.92 40.03C101.8 40.03 101.68 40.04 101.56 40.06C101.46 40.06 101.4 39.97 101.38 39.79C101.38 39.73 101.44 39.67 101.56 39.61C101.68 39.53 101.91 39.42 102.25 39.28C102.57 39.16 102.92 39.04 103.3 38.92C103.7 38.8 104.09 38.7 104.47 38.62C104.85 38.54 105.19 38.49 105.49 38.47C105.79 38.43 106.01 38.44 106.15 38.5C106.15 38.52 106.16 38.55 106.18 38.59C106.22 38.61 106.25 38.67 106.27 38.77C106.31 38.89 106.28 39.27 106.18 39.91C106.1 40.53 106.01 41.55 105.91 42.97C105.83 43.95 105.76 44.9 105.7 45.82C105.64 46.74 105.61 47.44 105.61 47.92C105.61 48.86 105.78 49.61 106.12 50.17C106.48 50.71 106.92 50.98 107.44 50.98C107.78 50.98 108.1 50.91 108.4 50.77C108.72 50.63 108.95 50.51 109.09 50.41C109.25 50.41 109.33 50.48 109.33 50.62C109.35 50.76 109.32 50.85 109.24 50.89C108.94 51.09 108.52 51.34 107.98 51.64C107.46 51.94 106.91 52.23 106.33 52.51C105.77 52.77 105.23 53 104.71 53.2C104.19 53.38 103.77 53.47 103.45 53.47C103.29 53.47 103.14 53.37 103 53.17C102.88 52.95 102.78 52.69 102.7 52.39C102.62 52.09 102.56 51.78 102.52 51.46C102.48 51.14 102.46 50.86 102.46 50.62C102.04 50.92 101.56 51.24 101.02 51.58C100.48 51.9 99.9196 52.21 99.3396 52.51C98.7596 52.79 98.1796 53.02 97.5996 53.2C97.0396 53.38 96.5196 53.47 96.0396 53.47C94.8196 53.47 93.8196 53.15 93.0396 52.51C92.2596 51.85 91.8696 51 91.8696 49.96C91.8696 49.74 91.8896 49.41 91.9296 48.97C91.9696 48.53 92.0196 48.03 92.0796 47.47C92.1396 46.91 92.1896 46.31 92.2296 45.67C92.2696 45.03 92.2896 44.41 92.2896 43.81C92.2896 42.89 92.1396 42.19 91.8396 41.71C91.5596 41.21 91.1896 40.93 90.7296 40.87L90.2496 40.81ZM108.897 31.6299C108.897 31.1899 108.997 30.9299 109.197 30.8499C109.417 30.77 109.647 30.73 109.887 30.73C110.567 30.73 111.177 30.73 111.717 30.73C112.277 30.73 112.777 30.73 113.217 30.73C113.677 30.7099 114.097 30.6799 114.477 30.64C114.877 30.5799 115.247 30.4899 115.587 30.37C115.747 30.3099 115.827 30.3399 115.827 30.46C115.847 30.58 115.857 30.69 115.857 30.79C115.857 30.9099 115.797 31.0099 115.677 31.0899C115.557 31.15 115.417 31.2 115.257 31.2399C115.117 31.28 114.977 31.31 114.837 31.33C114.697 31.3499 114.607 31.3599 114.567 31.3599C114.507 31.5599 114.437 32.0199 114.357 32.7399C114.277 33.44 114.187 34.28 114.087 35.2599C114.007 36.22 113.937 37.25 113.877 38.35C113.817 39.43 113.787 40.45 113.787 41.41C113.967 41.21 114.267 40.93 114.687 40.57C115.107 40.21 115.597 39.86 116.157 39.52C116.737 39.16 117.377 38.85 118.077 38.59C118.777 38.33 119.507 38.2 120.267 38.2C121.027 38.2 121.727 38.32 122.367 38.56C123.027 38.8 123.597 39.15 124.077 39.61C124.557 40.07 124.927 40.64 125.187 41.32C125.467 41.98 125.607 42.73 125.607 43.57C125.607 44.27 125.467 45 125.187 45.76C124.927 46.5 124.557 47.24 124.077 47.98C123.617 48.7 123.057 49.39 122.397 50.05C121.737 50.71 121.017 51.29 120.237 51.79C119.477 52.29 118.657 52.69 117.777 52.99C116.917 53.29 116.047 53.44 115.167 53.44C114.167 53.44 113.347 53.33 112.707 53.11C112.067 52.89 111.557 52.64 111.177 52.36C110.797 52.08 110.527 51.82 110.367 51.58C110.207 51.32 110.117 51.16 110.097 51.1C110.157 50.92 110.227 50.44 110.307 49.66C110.387 48.86 110.457 47.89 110.517 46.75C110.597 45.59 110.667 44.32 110.727 42.94C110.787 41.56 110.817 40.21 110.817 38.89C110.817 37.73 110.797 36.76 110.757 35.98C110.717 35.18 110.657 34.53 110.577 34.0299C110.517 33.51 110.437 33.11 110.337 32.83C110.237 32.53 110.127 32.3 110.007 32.14C109.767 31.84 109.507 31.68 109.227 31.6599L108.897 31.6299ZM113.727 43.78C113.687 44.12 113.657 44.53 113.637 45.01C113.617 45.49 113.607 45.97 113.607 46.45C113.607 46.93 113.617 47.36 113.637 47.74C113.657 48.12 113.677 48.36 113.697 48.46C113.757 48.76 113.897 49.08 114.117 49.42C114.337 49.76 114.627 50.08 114.987 50.38C115.347 50.66 115.757 50.9 116.217 51.1C116.697 51.28 117.217 51.37 117.777 51.37C119.037 51.37 120.077 50.93 120.897 50.05C121.737 49.17 122.157 47.82 122.157 46C122.157 44.98 122.007 44.12 121.707 43.42C121.427 42.7 121.067 42.13 120.627 41.71C120.187 41.27 119.707 40.95 119.187 40.75C118.687 40.55 118.227 40.45 117.807 40.45C117.227 40.45 116.737 40.54 116.337 40.72C115.957 40.88 115.617 41.07 115.317 41.29C114.817 41.67 114.447 42.05 114.207 42.43C113.967 42.81 113.807 43.26 113.727 43.78ZM132.242 41.53C132.642 41.17 133.092 40.8 133.592 40.42C134.092 40.02 134.612 39.66 135.152 39.34C135.712 39 136.292 38.73 136.892 38.53C137.492 38.31 138.102 38.2 138.722 38.2C139.442 38.2 140.112 38.32 140.732 38.56C141.372 38.78 141.932 39.11 142.412 39.55C142.892 39.99 143.272 40.52 143.552 41.14C143.832 41.74 143.972 42.42 143.972 43.18C143.972 44.72 143.702 46.14 143.162 47.44C142.642 48.72 142.022 49.85 141.302 50.83C140.602 51.79 139.902 52.59 139.202 53.23C138.502 53.87 137.982 54.29 137.642 54.49C137.542 54.55 137.442 54.53 137.342 54.43C137.242 54.33 137.242 54.22 137.342 54.1C137.502 53.98 137.742 53.68 138.062 53.2C138.402 52.74 138.742 52.15 139.082 51.43C139.422 50.71 139.722 49.89 139.982 48.97C140.242 48.05 140.372 47.06 140.372 46C140.372 45.12 140.262 44.34 140.042 43.66C139.842 42.98 139.562 42.41 139.202 41.95C138.842 41.49 138.422 41.14 137.942 40.9C137.482 40.66 136.982 40.54 136.442 40.54C136.082 40.54 135.702 40.6 135.302 40.72C134.902 40.82 134.532 40.97 134.192 41.17C133.832 41.39 133.482 41.66 133.142 41.98C132.802 42.3 132.552 42.63 132.392 42.97C132.352 43.05 132.312 43.13 132.272 43.21C132.252 43.27 132.222 43.37 132.182 43.51C132.162 43.63 132.132 43.79 132.092 43.99C132.072 44.19 132.052 44.46 132.032 44.8C131.972 45.38 131.922 45.95 131.882 46.51C131.862 47.05 131.852 47.7 131.852 48.46C131.852 49.44 131.912 50.2 132.032 50.74C132.152 51.26 132.502 51.56 133.082 51.64C133.142 51.64 133.212 51.64 133.292 51.64C133.372 51.62 133.462 51.6 133.562 51.58C133.642 51.56 133.742 51.53 133.862 51.49C133.922 51.49 133.962 51.52 133.982 51.58C134.022 51.64 134.042 51.7 134.042 51.76C134.042 51.82 133.932 51.91 133.712 52.03C133.492 52.15 133.212 52.28 132.872 52.42C132.532 52.54 132.152 52.67 131.732 52.81C131.332 52.93 130.952 53.05 130.592 53.17C130.212 53.27 129.882 53.36 129.602 53.44C129.342 53.52 129.162 53.56 129.062 53.56C128.462 53.56 128.162 53.33 128.162 52.87C128.162 52.77 128.212 52.58 128.312 52.3C128.412 52.02 128.492 51.59 128.552 51.01C128.632 50.17 128.712 49.25 128.792 48.25C128.872 47.23 128.932 46.21 128.972 45.19C129.032 44.17 129.072 43.17 129.092 42.19C129.132 41.21 129.152 40.33 129.152 39.55C129.152 38.11 129.122 36.89 129.062 35.89C129.022 34.89 128.982 34.18 128.942 33.76C128.882 33.24 128.822 32.9 128.762 32.7399C128.702 32.5599 128.632 32.4 128.552 32.26C128.452 32.08 128.322 31.96 128.162 31.9C128.022 31.8199 127.882 31.7699 127.742 31.75C127.622 31.73 127.512 31.73 127.412 31.75C127.332 31.75 127.292 31.73 127.292 31.69C127.292 31.41 127.382 31.18 127.562 31C127.742 30.82 127.982 30.73 128.282 30.73C128.862 30.73 129.462 30.72 130.082 30.6999C130.702 30.6799 131.272 30.65 131.792 30.61C132.232 30.5699 132.632 30.5099 132.992 30.4299C133.372 30.35 133.622 30.29 133.742 30.2499C133.902 30.23 133.982 30.26 133.982 30.34C134.002 30.3999 134.012 30.5199 134.012 30.6999C134.012 30.82 133.962 30.91 133.862 30.9699C133.762 31.0299 133.652 31.0799 133.532 31.1199C133.412 31.16 133.292 31.2 133.172 31.2399C133.072 31.26 133.002 31.3 132.962 31.3599C132.882 31.4799 132.802 31.8499 132.722 32.4699C132.642 33.09 132.562 33.88 132.482 34.8399C132.422 35.78 132.362 36.83 132.302 37.99C132.262 39.15 132.232 40.32 132.212 41.5L132.242 41.53ZM155.467 48.52C155.407 48.18 155.347 47.81 155.287 47.41C155.227 47.01 155.167 46.63 155.107 46.27C155.047 45.91 154.987 45.6 154.927 45.34C154.887 45.08 154.857 44.91 154.837 44.83C154.517 44.95 154.157 45.09 153.757 45.25C153.357 45.41 152.957 45.59 152.557 45.79C152.157 45.97 151.777 46.16 151.417 46.36C151.057 46.54 150.757 46.71 150.517 46.87C150.057 47.17 149.707 47.47 149.467 47.77C149.227 48.07 149.107 48.43 149.107 48.85C149.107 49.43 149.277 49.94 149.617 50.38C149.957 50.82 150.487 51.04 151.207 51.04C151.587 51.04 151.977 50.97 152.377 50.83C152.797 50.69 153.177 50.53 153.517 50.35C153.877 50.17 154.187 49.99 154.447 49.81C154.707 49.63 154.887 49.49 154.987 49.39C155.147 49.23 155.267 49.1 155.347 49C155.447 48.88 155.487 48.72 155.467 48.52ZM154.597 43.87C154.477 43.25 154.337 42.7 154.177 42.22C154.017 41.72 153.817 41.31 153.577 40.99C153.337 40.65 153.047 40.4 152.707 40.24C152.367 40.06 151.947 39.97 151.447 39.97C151.007 39.97 150.597 40.05 150.217 40.21C149.857 40.37 149.537 40.56 149.257 40.78C148.997 41 148.787 41.22 148.627 41.44C148.487 41.66 148.407 41.83 148.387 41.95C148.367 42.11 148.277 42.19 148.117 42.19C147.837 42.19 147.577 42.09 147.337 41.89C147.097 41.69 146.977 41.45 146.977 41.17C146.977 41.01 146.997 40.89 147.037 40.81C147.497 40.55 148.057 40.27 148.717 39.97C149.377 39.67 150.057 39.39 150.757 39.13C151.477 38.87 152.187 38.66 152.887 38.5C153.587 38.32 154.217 38.23 154.777 38.23C155.617 38.23 156.257 38.35 156.697 38.59C157.157 38.83 157.497 39.17 157.717 39.61C157.937 40.05 158.067 40.57 158.107 41.17C158.167 41.75 158.217 42.38 158.257 43.06C158.317 44.08 158.397 45.07 158.497 46.03C158.597 46.97 158.747 47.81 158.947 48.55C159.147 49.27 159.397 49.86 159.697 50.32C160.017 50.76 160.407 50.98 160.867 50.98C161.087 50.98 161.327 50.94 161.587 50.86C161.847 50.78 162.097 50.69 162.337 50.59C162.577 50.47 162.787 50.36 162.967 50.26C163.167 50.14 163.297 50.06 163.357 50.02C163.537 50.02 163.647 50.11 163.687 50.29C163.687 50.39 163.667 50.48 163.627 50.56C163.587 50.6 163.437 50.7 163.177 50.86C162.917 51.02 162.597 51.21 162.217 51.43C161.837 51.65 161.417 51.89 160.957 52.15C160.497 52.39 160.037 52.62 159.577 52.84C159.137 53.06 158.727 53.24 158.347 53.38C157.967 53.52 157.667 53.59 157.447 53.59C157.187 53.59 156.957 53.48 156.757 53.26C156.577 53.06 156.417 52.79 156.277 52.45C156.137 52.09 156.017 51.68 155.917 51.22C155.817 50.76 155.727 50.28 155.647 49.78C155.287 50.08 154.827 50.44 154.267 50.86C153.707 51.26 153.097 51.64 152.437 52C151.777 52.36 151.097 52.67 150.397 52.93C149.717 53.17 149.057 53.29 148.417 53.29C147.877 53.29 147.407 53.21 147.007 53.05C146.607 52.87 146.267 52.64 145.987 52.36C145.727 52.08 145.527 51.76 145.387 51.4C145.267 51.02 145.207 50.63 145.207 50.23C145.207 49.59 145.397 49.07 145.777 48.67C146.177 48.25 146.787 47.82 147.607 47.38C147.987 47.18 148.517 46.92 149.197 46.6C149.877 46.26 150.567 45.92 151.267 45.58C151.987 45.24 152.647 44.92 153.247 44.62C153.867 44.3 154.317 44.05 154.597 43.87Z" fill="#2AB9F6"/>
</g>
</g>
<path id="Powered By" d="M6.93281 5.93359C6.93281 5.39453 6.78984 5.01016 6.50391 4.78047C6.22266 4.55078 5.82656 4.43594 5.31562 4.43594H3.29766V7.4875H5.31562C5.82656 7.4875 6.22266 7.36328 6.50391 7.11484C6.78984 6.86641 6.93281 6.47266 6.93281 5.93359ZM9.07734 5.91953C9.07734 7.14297 8.76797 8.00781 8.14922 8.51406C7.53047 9.02031 6.64687 9.27344 5.49844 9.27344H3.29766V13H1.14609V2.63594H5.66016C6.70078 2.63594 7.53047 2.90313 8.14922 3.4375C8.76797 3.97188 9.07734 4.79922 9.07734 5.91953ZM13.6181 11.5867C14.2041 11.5867 14.6541 11.3781 14.9681 10.9609C15.2822 10.5438 15.4392 9.95078 15.4392 9.18203C15.4392 8.41328 15.2822 7.82266 14.9681 7.41016C14.6541 6.99297 14.2041 6.78438 13.6181 6.78438C13.0322 6.78438 12.5798 6.99297 12.2611 7.41016C11.947 7.82266 11.79 8.41328 11.79 9.18203C11.79 9.95078 11.947 10.5438 12.2611 10.9609C12.5798 11.3781 13.0322 11.5867 13.6181 11.5867ZM17.5416 9.18203C17.5416 10.307 17.2181 11.2703 16.5713 12.0719C15.9244 12.8688 14.9423 13.2672 13.6252 13.2672C12.308 13.2672 11.3259 12.8688 10.6791 12.0719C10.0322 11.2703 9.70875 10.307 9.70875 9.18203C9.70875 8.07578 10.0322 7.11719 10.6791 6.30625C11.3259 5.49531 12.308 5.08984 13.6252 5.08984C14.9423 5.08984 15.9244 5.49531 16.5713 6.30625C17.2181 7.11719 17.5416 8.07578 17.5416 9.18203ZM22.4962 5.33594H24.5283L25.6954 10.8555L26.8908 5.33594H28.979L26.7572 13H24.697L23.4947 7.41719L22.2783 13H20.197L18.0454 5.33594H20.197L21.3923 10.8344L22.4962 5.33594ZM32.9694 6.78438C32.5054 6.78438 32.1444 6.92969 31.8866 7.22031C31.6335 7.51094 31.4741 7.90469 31.4085 8.40156H34.5233C34.4905 7.87188 34.3288 7.47109 34.0382 7.19922C33.7522 6.92266 33.396 6.78438 32.9694 6.78438ZM32.9694 5.13203C33.6069 5.13203 34.1811 5.25156 34.6921 5.49063C35.203 5.72969 35.6249 6.10703 35.9577 6.62266C36.2577 7.07734 36.4522 7.60469 36.5413 8.20469C36.5929 8.55625 36.6139 9.0625 36.6046 9.72344H31.3593C31.3874 10.4922 31.6288 11.0313 32.0835 11.3406C32.36 11.5328 32.6929 11.6289 33.0819 11.6289C33.4944 11.6289 33.8296 11.5117 34.0874 11.2773C34.228 11.1508 34.3522 10.975 34.46 10.75H36.5061C36.4546 11.2047 36.2179 11.6664 35.796 12.1352C35.1397 12.8805 34.221 13.2531 33.0397 13.2531C32.0647 13.2531 31.2046 12.9391 30.4593 12.3109C29.7139 11.6828 29.3413 10.6609 29.3413 9.24531C29.3413 7.91875 29.6764 6.90156 30.3468 6.19375C31.0218 5.48594 31.896 5.13203 32.9694 5.13203ZM41.7641 5.15313C41.8016 5.15313 41.8321 5.15547 41.8555 5.16016C41.8836 5.16016 41.9422 5.1625 42.0313 5.16719V7.22031C41.9047 7.20625 41.7922 7.19688 41.6938 7.19219C41.5954 7.1875 41.5157 7.18516 41.4547 7.18516C40.6485 7.18516 40.1071 7.44766 39.8305 7.97266C39.6758 8.26797 39.5985 8.72266 39.5985 9.33672V13H37.5805V5.33594H39.493V6.67188C39.8024 6.16094 40.0719 5.81172 40.3016 5.62422C40.6766 5.31016 41.1641 5.15313 41.7641 5.15313ZM46.092 6.78438C45.6279 6.78438 45.267 6.92969 45.0092 7.22031C44.756 7.51094 44.5967 7.90469 44.531 8.40156H47.6459C47.6131 7.87188 47.4514 7.47109 47.1607 7.19922C46.8748 6.92266 46.5185 6.78438 46.092 6.78438ZM46.092 5.13203C46.7295 5.13203 47.3037 5.25156 47.8146 5.49063C48.3256 5.72969 48.7474 6.10703 49.0803 6.62266C49.3803 7.07734 49.5748 7.60469 49.6639 8.20469C49.7154 8.55625 49.7365 9.0625 49.7271 9.72344H44.4818C44.5099 10.4922 44.7514 11.0313 45.206 11.3406C45.4826 11.5328 45.8154 11.6289 46.2045 11.6289C46.617 11.6289 46.9521 11.5117 47.2099 11.2773C47.3506 11.1508 47.4748 10.975 47.5826 10.75H49.6287C49.5771 11.2047 49.3404 11.6664 48.9185 12.1352C48.2623 12.8805 47.3435 13.2531 46.1623 13.2531C45.1873 13.2531 44.3271 12.9391 43.5818 12.3109C42.8365 11.6828 42.4639 10.6609 42.4639 9.24531C42.4639 7.91875 42.799 6.90156 43.4693 6.19375C44.1443 5.48594 45.0185 5.13203 46.092 5.13203ZM53.5507 5.15313C54.0148 5.15313 54.4273 5.25625 54.7882 5.4625C55.1492 5.66406 55.4421 5.94531 55.6671 6.30625V2.65H57.6992V13H55.7515V11.9383C55.4656 12.393 55.1398 12.7234 54.7742 12.9297C54.4085 13.1359 53.9539 13.2391 53.4101 13.2391C52.5148 13.2391 51.7601 12.8781 51.146 12.1563C50.5367 11.4297 50.232 10.4992 50.232 9.36484C50.232 8.05703 50.532 7.02813 51.132 6.27813C51.7367 5.52813 52.5429 5.15313 53.5507 5.15313ZM53.9867 11.5516C54.5539 11.5516 54.9851 11.3406 55.2804 10.9188C55.5757 10.4969 55.7234 9.95078 55.7234 9.28047C55.7234 8.34297 55.4867 7.67266 55.0132 7.26953C54.7226 7.02578 54.3851 6.90391 54.0007 6.90391C53.4148 6.90391 52.9835 7.12656 52.707 7.57188C52.4351 8.0125 52.2992 8.56094 52.2992 9.21719C52.2992 9.925 52.4375 10.4922 52.714 10.9188C52.9953 11.3406 53.4195 11.5516 53.9867 11.5516ZM65.0792 4.43594V6.72109H67.6245C68.0792 6.72109 68.4471 6.63672 68.7284 6.46797C69.0143 6.29453 69.1573 5.98984 69.1573 5.55391C69.1573 5.07109 68.9698 4.75234 68.5948 4.59766C68.2714 4.48984 67.8589 4.43594 67.3573 4.43594H65.0792ZM65.0792 8.43672V11.2H67.6245C68.0792 11.2 68.4331 11.1391 68.6862 11.0172C69.1456 10.7922 69.3753 10.3609 69.3753 9.72344C69.3753 9.18438 69.1526 8.81406 68.7073 8.6125C68.4589 8.5 68.1096 8.44141 67.6596 8.43672H65.0792ZM68.0464 2.63594C69.3167 2.65469 70.2167 3.02266 70.7464 3.73984C71.0651 4.18047 71.2245 4.70781 71.2245 5.32188C71.2245 5.95469 71.0651 6.46328 70.7464 6.84766C70.5682 7.06328 70.3057 7.26016 69.9589 7.43828C70.4885 7.63047 70.887 7.93516 71.1542 8.35234C71.426 8.76953 71.562 9.27578 71.562 9.87109C71.562 10.4852 71.4073 11.0359 71.0979 11.5234C70.901 11.8469 70.6549 12.1188 70.3596 12.3391C70.0268 12.5922 69.6331 12.7656 69.1784 12.8594C68.7284 12.9531 68.2385 13 67.7089 13H63.012V2.63594H68.0464ZM73.5883 14.4695L73.8415 14.4836C74.0383 14.493 74.2258 14.4859 74.404 14.4625C74.5821 14.4391 74.7321 14.3852 74.854 14.3008C74.9711 14.2211 75.079 14.0547 75.1774 13.8016C75.2805 13.5484 75.3227 13.3937 75.304 13.3375L72.4915 5.33594H74.7204L76.3938 10.9891L77.9758 5.33594H80.1063L77.4766 12.8734C76.9704 14.3266 76.5696 15.2266 76.2743 15.5734C75.979 15.925 75.3883 16.1008 74.5024 16.1008C74.3243 16.1008 74.1813 16.0984 74.0735 16.0937C73.9657 16.0937 73.804 16.0867 73.5883 16.0727V14.4695Z" fill="#2AB9F6"/>
</g>
<defs>
<clipPath id="clip0">
<rect width="161" height="31" fill="white" transform="translate(1.302 24)"/>
</clipPath>
</defs>
</svg>
