<svg width="163" height="66" viewBox="0 0 163 66" fill="none" xmlns="http://www.w3.org/2000/svg">
<path d="M61.4716 65H81.4716C92.5173 65 101.472 56.0457 101.472 45V45C101.472 33.9543 92.5173 25 81.4716 25H61.4716V48.5912" stroke="#2AB9F6" stroke-width="1.65746"/>
<path d="M61.4848 59.2166H62.3157C62.6487 59.2166 62.9021 59.3079 63.0759 59.4906C63.2527 59.6733 63.3411 59.9164 63.3411 60.2199V61.431C63.3411 62.0203 63.0288 62.3149 62.4041 62.3149H61.4848V59.2166ZM62.8549 60.1757C62.8549 60.0137 62.8137 59.8958 62.7312 59.8221C62.6516 59.7455 62.5279 59.7072 62.3599 59.7072H61.971V61.8685H62.3334C62.4925 61.8685 62.6192 61.845 62.7135 61.7978C62.8078 61.7477 62.8549 61.6402 62.8549 61.4752V60.1757ZM64.3319 61.6564C64.3319 61.7389 64.354 61.8037 64.3982 61.8509C64.4454 61.8951 64.5132 61.9172 64.6015 61.9172C64.7371 61.9172 64.9183 61.8582 65.1452 61.7404L65.322 62.1602C65.2159 62.228 65.0951 62.2796 64.9596 62.3149C64.824 62.3503 64.6885 62.368 64.5529 62.368C64.3349 62.368 64.161 62.3149 64.0314 62.2089C63.9047 62.0998 63.8413 61.9378 63.8413 61.7227V60.8166C63.8413 60.5779 63.915 60.3923 64.0623 60.2597C64.2126 60.1271 64.41 60.0608 64.6546 60.0608C64.8992 60.0608 65.0892 60.1271 65.2248 60.2597C65.3632 60.3893 65.4325 60.5706 65.4325 60.8033V61.4752L64.3319 61.5326V61.6564ZM64.9419 60.8122C64.9419 60.7238 64.9139 60.656 64.8579 60.6089C64.8019 60.5617 64.7327 60.5381 64.6502 60.5381C64.5382 60.5381 64.4572 60.5676 64.4071 60.6265C64.357 60.6855 64.3319 60.7503 64.3319 60.821V61.0862L64.9419 61.0464V60.8122ZM65.5223 60.1006H66.0527L66.4637 61.4531L66.8659 60.1006H67.3919L66.698 62.3149H66.2295L65.5223 60.1006ZM68.1173 61.705C68.1173 61.758 68.1438 61.8081 68.1969 61.8553C68.2529 61.9024 68.3369 61.926 68.4488 61.926C68.5461 61.926 68.6212 61.9024 68.6742 61.8553C68.7273 61.8052 68.7538 61.7477 68.7538 61.6829C68.7538 61.5916 68.7199 61.5238 68.6521 61.4796C68.5873 61.4354 68.4812 61.3868 68.3339 61.3337C68.2072 61.2925 68.1026 61.2512 68.0201 61.21C67.9376 61.1687 67.8639 61.1068 67.7991 61.0243C67.7343 60.9418 67.696 60.8343 67.6842 60.7017C67.6753 60.6015 67.6945 60.5013 67.7416 60.4011C67.7917 60.298 67.8742 60.214 67.9892 60.1492C68.107 60.0814 68.2573 60.0475 68.44 60.0475C68.5343 60.0475 68.6168 60.0579 68.6875 60.0785C68.7612 60.0962 68.8186 60.1153 68.8599 60.1359C68.9011 60.1566 68.9262 60.1698 68.935 60.1757L68.7936 60.6265C68.7877 60.6207 68.7715 60.6103 68.745 60.5956C68.7214 60.5779 68.6831 60.5617 68.63 60.547C68.577 60.5323 68.5136 60.5249 68.44 60.5249C68.2809 60.5249 68.2013 60.5691 68.2013 60.6575C68.2013 60.6752 68.2043 60.6928 68.2101 60.7105C68.219 60.7518 68.2499 60.7871 68.303 60.8166C68.356 60.8431 68.4341 60.8755 68.5372 60.9138C68.6816 60.9669 68.8024 61.0199 68.8996 61.073C68.9998 61.123 69.0853 61.1997 69.156 61.3028C69.2297 61.403 69.2665 61.5326 69.2665 61.6917C69.2665 61.8125 69.237 61.926 69.1781 62.0321C69.1192 62.1352 69.0278 62.2192 68.9041 62.284C68.7833 62.3488 68.6315 62.3812 68.4488 62.3812C68.2809 62.3812 68.135 62.3532 68.0113 62.2973C67.8904 62.2383 67.7976 62.1617 67.7328 62.0674C67.6709 61.9731 67.637 61.8685 67.6311 61.7536L68.1173 61.705ZM70.8031 60.958C70.8031 60.7989 70.7678 60.6855 70.6971 60.6177C70.6293 60.5499 70.5424 60.516 70.4363 60.516C70.3803 60.516 70.3258 60.5249 70.2728 60.5426C70.2197 60.5573 70.177 60.575 70.1446 60.5956V62.3149H69.6584V59.221H70.1446V60.1183C70.2477 60.08 70.367 60.0608 70.5026 60.0608C70.6558 60.0608 70.7928 60.0888 70.9136 60.1448C71.0315 60.1978 71.1228 60.2774 71.1877 60.3834C71.2554 60.4895 71.2893 60.6236 71.2893 60.7857V62.3149H70.8031V60.958ZM72.8768 62.2884C72.868 62.2914 72.8341 62.3046 72.7751 62.3282C72.7162 62.3518 72.6396 62.3636 72.5453 62.3636C71.9913 62.3636 71.7144 62.0939 71.7144 61.5547V60.1006H72.2005V61.484C72.2005 61.6195 72.2241 61.7197 72.2713 61.7846C72.3214 61.8494 72.4127 61.8818 72.5453 61.8818C72.6779 61.8818 72.7663 61.8464 72.8105 61.7757C72.8547 61.702 72.8768 61.5989 72.8768 61.4663V60.1006H73.363V62.3149H72.9077L72.8768 62.2884ZM75.5078 61.621C75.5078 61.7713 75.4769 61.898 75.415 62.0011C75.3531 62.1043 75.2691 62.1823 75.163 62.2354C75.0688 62.2825 74.973 62.3164 74.8758 62.337C74.7815 62.3577 74.6798 62.368 74.5708 62.368C74.4618 62.368 74.3115 62.3577 74.12 62.337L73.8769 62.3149V59.221H74.363V60.105C74.4927 60.0755 74.6106 60.0608 74.7166 60.0608C74.8669 60.0608 75.0054 60.0903 75.1321 60.1492C75.3826 60.2641 75.5078 60.4763 75.5078 60.7857V61.621ZM75.026 60.9227C75.026 60.7901 74.9892 60.6958 74.9155 60.6398C74.8419 60.5809 74.752 60.5514 74.6459 60.5514C74.587 60.5514 74.531 60.5588 74.478 60.5735C74.4249 60.5882 74.3866 60.6059 74.363 60.6265V61.8906C74.4131 61.9054 74.4735 61.9127 74.5443 61.9127C74.668 61.9127 74.7785 61.8906 74.8758 61.8464C74.9759 61.7993 75.026 61.7271 75.026 61.6299V60.9227ZM77.1092 60.958C77.1092 60.7989 77.0739 60.6855 77.0032 60.6177C76.9354 60.5499 76.8485 60.516 76.7424 60.516C76.6864 60.516 76.6319 60.5249 76.5789 60.5426C76.5258 60.5573 76.4831 60.575 76.4507 60.5956V62.3149H75.9645V59.221H76.4507V60.1183C76.5538 60.08 76.6732 60.0608 76.8087 60.0608C76.9619 60.0608 77.0989 60.0888 77.2197 60.1448C77.3376 60.1978 77.429 60.2774 77.4938 60.3834C77.5616 60.4895 77.5954 60.6236 77.5954 60.7857V62.3149H77.1092V60.958ZM79.7266 62.3149C79.4083 62.3474 79.1785 62.3636 79.037 62.3636C78.7277 62.3636 78.4816 62.3061 78.2989 62.1912C78.1162 62.0763 78.0249 61.8685 78.0249 61.568V61.2011C78.0249 60.9094 78.1266 60.7135 78.3299 60.6133C78.4271 60.5661 78.5376 60.5426 78.6614 60.5426C78.7704 60.5426 78.8779 60.5573 78.984 60.5868C79.0901 60.6162 79.1755 60.6486 79.2404 60.684C79.2404 60.575 79.1962 60.5013 79.1078 60.463C79.0194 60.4218 78.9059 60.4011 78.7674 60.4011L78.8072 60.0652C79.0901 60.0652 79.2978 60.1109 79.4304 60.2022C79.566 60.2906 79.6485 60.3967 79.6779 60.5205C79.7103 60.6442 79.7266 60.8033 79.7266 60.9978V62.3149ZM79.2404 61.2011C79.1873 61.1628 79.1122 61.1275 79.0149 61.0951C78.9207 61.0597 78.8337 61.042 78.7542 61.042C78.6835 61.042 78.626 61.0597 78.5818 61.0951C78.5376 61.1304 78.5155 61.1864 78.5155 61.263V61.5061C78.5155 61.7742 78.6731 61.9083 78.9884 61.9083C79.0798 61.9083 79.1638 61.9009 79.2404 61.8862V61.2011Z" fill="#2AB9F6"/>
<path d="M61.4848 59.2166V59.1613H61.4295V59.2166H61.4848ZM63.0759 59.4906L63.0359 59.5287L63.0362 59.5291L63.0759 59.4906ZM61.4848 62.3149H61.4295V62.3702H61.4848V62.3149ZM62.7312 59.8221L62.6928 59.8619L62.6944 59.8633L62.7312 59.8221ZM61.971 59.7072V59.652H61.9157V59.7072H61.971ZM61.971 61.8685H61.9157V61.9238H61.971V61.8685ZM62.7135 61.7978L62.7382 61.8472L62.7394 61.8466L62.7135 61.7978ZM61.4848 59.2718H62.3157V59.1613H61.4848V59.2718ZM62.3157 59.2718C62.6386 59.2718 62.8755 59.3602 63.0359 59.5287L63.1159 59.4525C62.9286 59.2557 62.6587 59.1613 62.3157 59.1613V59.2718ZM63.0362 59.5291C63.2012 59.6995 63.2859 59.9278 63.2859 60.2199H63.3964C63.3964 59.905 63.3043 59.6472 63.1156 59.4522L63.0362 59.5291ZM63.2859 60.2199V61.431H63.3964V60.2199H63.2859ZM63.2859 61.431C63.2859 61.7163 63.2104 61.9203 63.069 62.0538C62.9269 62.1878 62.7087 62.2597 62.4041 62.2597V62.3702C62.7242 62.3702 62.9745 62.2948 63.1448 62.1341C63.3156 61.9729 63.3964 61.735 63.3964 61.431H63.2859ZM62.4041 62.2597H61.4848V62.3702H62.4041V62.2597ZM61.54 62.3149V59.2166H61.4295V62.3149H61.54ZM62.9102 60.1757C62.9102 60.0053 62.8668 59.8692 62.768 59.7809L62.6944 59.8633C62.7606 59.9224 62.7997 60.022 62.7997 60.1757H62.9102ZM62.7695 59.7823C62.6754 59.6917 62.5349 59.652 62.3599 59.652V59.7625C62.5208 59.7625 62.6278 59.7993 62.6929 59.8619L62.7695 59.7823ZM62.3599 59.652H61.971V59.7625H62.3599V59.652ZM61.9157 59.7072V61.8685H62.0262V59.7072H61.9157ZM61.971 61.9238H62.3334V61.8133H61.971V61.9238ZM62.3334 61.9238C62.4971 61.9238 62.6333 61.8997 62.7382 61.8472L62.6888 61.7484C62.6051 61.7903 62.4879 61.8133 62.3334 61.8133V61.9238ZM62.7394 61.8466C62.8604 61.7823 62.9102 61.6485 62.9102 61.4752H62.7997C62.7997 61.6319 62.7552 61.7131 62.6876 61.749L62.7394 61.8466ZM62.9102 61.4752V60.1757H62.7997V61.4752H62.9102ZM64.3982 61.8509L64.3578 61.8887L64.3604 61.8912L64.3982 61.8509ZM65.1452 61.7404L65.1961 61.7189L65.1729 61.6637L65.1197 61.6913L65.1452 61.7404ZM65.322 62.1602L65.3517 62.2068L65.391 62.1817L65.3729 62.1388L65.322 62.1602ZM64.0314 62.2089L63.9953 62.2508L63.9964 62.2516L64.0314 62.2089ZM64.0623 60.2597L64.0258 60.2183L64.0254 60.2186L64.0623 60.2597ZM65.2248 60.2597L65.1861 60.2992L65.187 60.3L65.2248 60.2597ZM65.4325 61.4752L65.4354 61.5303L65.4877 61.5276V61.4752H65.4325ZM64.3319 61.5326L64.3291 61.4774L64.2767 61.4802V61.5326H64.3319ZM64.8579 60.6089L64.8935 60.5666H64.8935L64.8579 60.6089ZM64.4071 60.6265L64.365 60.5908L64.4071 60.6265ZM64.3319 61.0862H64.2767V61.1452L64.3355 61.1413L64.3319 61.0862ZM64.9419 61.0464L64.9455 61.1016L64.9971 61.0982V61.0464H64.9419ZM64.2767 61.6564C64.2767 61.7489 64.3017 61.8286 64.3579 61.8886L64.4385 61.8131C64.4064 61.7788 64.3872 61.7289 64.3872 61.6564H64.2767ZM64.3604 61.8912C64.4211 61.948 64.5043 61.9724 64.6015 61.9724V61.8619C64.522 61.8619 64.4697 61.8421 64.436 61.8105L64.3604 61.8912ZM64.6015 61.9724C64.7508 61.9724 64.9417 61.9083 65.1707 61.7894L65.1197 61.6913C64.8949 61.8081 64.7234 61.8619 64.6015 61.8619V61.9724ZM65.0943 61.7618L65.2711 62.1817L65.3729 62.1388L65.1961 61.7189L65.0943 61.7618ZM65.2922 62.1137C65.1916 62.178 65.0762 62.2274 64.9456 62.2615L64.9735 62.3684C65.114 62.3317 65.2403 62.278 65.3517 62.2068L65.2922 62.1137ZM64.9456 62.2615C64.8145 62.2957 64.6836 62.3127 64.5529 62.3127V62.4232C64.6933 62.4232 64.8336 62.4049 64.9735 62.3684L64.9456 62.2615ZM64.5529 62.3127C64.3437 62.3127 64.1835 62.2619 64.0664 62.1661L63.9964 62.2516C64.1386 62.3679 64.326 62.4232 64.5529 62.4232V62.3127ZM64.0674 62.167C63.9562 62.0713 63.8966 61.9266 63.8966 61.7227H63.7861C63.7861 61.9489 63.8531 62.1284 63.9953 62.2507L64.0674 62.167ZM63.8966 61.7227V60.8166H63.7861V61.7227H63.8966ZM63.8966 60.8166C63.8966 60.5901 63.9659 60.4208 64.0993 60.3008L64.0254 60.2186C63.864 60.3638 63.7861 60.5657 63.7861 60.8166H63.8966ZM64.0989 60.3011C64.237 60.1793 64.4204 60.116 64.6546 60.116V60.0055C64.3997 60.0055 64.1882 60.0749 64.0258 60.2183L64.0989 60.3011ZM64.6546 60.116C64.8891 60.116 65.0636 60.1794 65.1861 60.2992L65.2634 60.2202C65.1148 60.0748 64.9092 60.0055 64.6546 60.0055V60.116ZM65.187 60.3C65.3119 60.4169 65.3772 60.5821 65.3772 60.8033H65.4877C65.4877 60.559 65.4146 60.3618 65.2625 60.2194L65.187 60.3ZM65.3772 60.8033V61.4752H65.4877V60.8033H65.3772ZM65.4296 61.42L64.3291 61.4774L64.3348 61.5878L65.4354 61.5303L65.4296 61.42ZM64.2767 61.5326V61.6564H64.3872V61.5326H64.2767ZM64.9971 60.8122C64.9971 60.7112 64.9645 60.6264 64.8935 60.5666L64.8223 60.6511C64.8632 60.6856 64.8866 60.7364 64.8866 60.8122H64.9971ZM64.8935 60.5666C64.8263 60.51 64.7439 60.4829 64.6502 60.4829V60.5934C64.7214 60.5934 64.7776 60.6134 64.8223 60.6511L64.8935 60.5666ZM64.6502 60.4829C64.5295 60.4829 64.4296 60.5147 64.365 60.5908L64.4492 60.6623C64.4847 60.6205 64.5469 60.5934 64.6502 60.5934V60.4829ZM64.365 60.5908C64.3072 60.6587 64.2767 60.7359 64.2767 60.821H64.3872C64.3872 60.7647 64.4067 60.7123 64.4492 60.6623L64.365 60.5908ZM64.2767 60.821V61.0862H64.3872V60.821H64.2767ZM64.3355 61.1413L64.9455 61.1016L64.9383 60.9913L64.3283 61.0311L64.3355 61.1413ZM64.9971 61.0464V60.8122H64.8866V61.0464H64.9971ZM65.5223 60.1006V60.0453H65.4467L65.4697 60.1174L65.5223 60.1006ZM66.0527 60.1006L66.1055 60.0845L66.0936 60.0453H66.0527V60.1006ZM66.4637 61.4531L66.4109 61.4691L66.4643 61.645L66.5167 61.4688L66.4637 61.4531ZM66.8659 60.1006V60.0453H66.8247L66.813 60.0848L66.8659 60.1006ZM67.3919 60.1006L67.4446 60.1171L67.4671 60.0453H67.3919V60.1006ZM66.698 62.3149V62.3702H66.7386L66.7507 62.3315L66.698 62.3149ZM66.2295 62.3149L66.1769 62.3317L66.1891 62.3702H66.2295V62.3149ZM65.5223 60.1558H66.0527V60.0453H65.5223V60.1558ZM65.9998 60.1166L66.4109 61.4691L66.5166 61.437L66.1055 60.0845L65.9998 60.1166ZM66.5167 61.4688L66.9189 60.1163L66.813 60.0848L66.4108 61.4373L66.5167 61.4688ZM66.8659 60.1558H67.3919V60.0453H66.8659V60.1558ZM67.3392 60.0841L66.6453 62.2984L66.7507 62.3315L67.4446 60.1171L67.3392 60.0841ZM66.698 62.2597H66.2295V62.3702H66.698V62.2597ZM66.2821 62.2981L65.5749 60.0838L65.4697 60.1174L66.1769 62.3317L66.2821 62.2981ZM68.1173 61.705H68.1726V61.6439L68.1118 61.65L68.1173 61.705ZM68.1969 61.8553L68.1602 61.8966L68.1613 61.8975L68.1969 61.8553ZM68.6742 61.8553L68.711 61.8966L68.7122 61.8954L68.6742 61.8553ZM68.6521 61.4796L68.621 61.5252L68.622 61.5259L68.6521 61.4796ZM68.3339 61.3337L68.3526 61.2817L68.351 61.2812L68.3339 61.3337ZM68.0201 61.21L67.9954 61.2594L68.0201 61.21ZM67.7991 61.0243L67.8425 60.9902L67.7991 61.0243ZM67.6842 60.7017L67.6291 60.7065L67.6291 60.7066L67.6842 60.7017ZM67.7416 60.4011L67.6919 60.377L67.6916 60.3776L67.7416 60.4011ZM67.9892 60.1492L68.0163 60.1973L68.0167 60.1971L67.9892 60.1492ZM68.6875 60.0785L68.672 60.1316L68.6746 60.1322L68.6875 60.0785ZM68.8599 60.1359L68.8846 60.0865V60.0865L68.8599 60.1359ZM68.935 60.1757L68.9877 60.1923L69.0001 60.1527L68.9657 60.1297L68.935 60.1757ZM68.7936 60.6265L68.7545 60.6656L68.819 60.7301L68.8463 60.6431L68.7936 60.6265ZM68.745 60.5956L68.7115 60.6402L68.7181 60.6439L68.745 60.5956ZM68.63 60.547L68.6152 60.6002L68.63 60.547ZM68.2101 60.7105L68.2645 60.6989L68.2626 60.6931L68.2101 60.7105ZM68.303 60.8166L68.2761 60.8649L68.2783 60.866L68.303 60.8166ZM68.5372 60.9138L68.518 60.9656L68.5182 60.9657L68.5372 60.9138ZM68.8996 61.073L68.8732 61.1215L68.8749 61.1224L68.8996 61.073ZM69.156 61.3028L69.1104 61.334L69.1115 61.3355L69.156 61.3028ZM69.1781 62.0321L69.2261 62.0595L69.2264 62.0589L69.1781 62.0321ZM68.9041 62.284L68.8784 62.2351L68.8779 62.2353L68.9041 62.284ZM68.0113 62.2973L67.987 62.3469L67.9885 62.3476L68.0113 62.2973ZM67.7328 62.0674L67.6866 62.0977L67.6873 62.0987L67.7328 62.0674ZM67.6311 61.7536L67.6256 61.6986L67.5733 61.7039L67.576 61.7564L67.6311 61.7536ZM68.0621 61.705C68.0621 61.7787 68.0995 61.8427 68.1602 61.8966L68.2336 61.814C68.1882 61.7736 68.1726 61.7374 68.1726 61.705H68.0621ZM68.1613 61.8975C68.2313 61.9565 68.3304 61.9812 68.4488 61.9812V61.8707C68.3433 61.8707 68.2744 61.8483 68.2325 61.813L68.1613 61.8975ZM68.4488 61.9812C68.5546 61.9812 68.6446 61.9556 68.7109 61.8966L68.6375 61.814C68.5978 61.8493 68.5376 61.8707 68.4488 61.8707V61.9812ZM68.7122 61.8954C68.7747 61.8364 68.809 61.7649 68.809 61.6829H68.6985C68.6985 61.7305 68.6798 61.774 68.6363 61.8151L68.7122 61.8954ZM68.809 61.6829C68.809 61.5757 68.768 61.4892 68.6823 61.4333L68.622 61.5259C68.6719 61.5584 68.6985 61.6074 68.6985 61.6829H68.809ZM68.6833 61.4339C68.6124 61.3856 68.5009 61.3351 68.3526 61.2817L68.3152 61.3857C68.4616 61.4384 68.5622 61.4851 68.621 61.5252L68.6833 61.4339ZM68.351 61.2812C68.2259 61.2405 68.124 61.2002 68.0448 61.1606L67.9954 61.2594C68.0812 61.3023 68.1885 61.3445 68.3168 61.3863L68.351 61.2812ZM68.0448 61.1606C67.9705 61.1234 67.903 61.0672 67.8425 60.9902L67.7557 61.0585C67.8248 61.1465 67.9046 61.214 67.9954 61.2594L68.0448 61.1606ZM67.8425 60.9902C67.7859 60.9181 67.7503 60.8216 67.7392 60.6968L67.6291 60.7066C67.6416 60.847 67.6826 60.9655 67.7557 61.0585L67.8425 60.9902ZM67.7392 60.6968C67.7313 60.6073 67.7482 60.5169 67.7916 60.4247L67.6916 60.3776C67.6408 60.4857 67.6194 60.5957 67.6291 60.7065L67.7392 60.6968ZM67.7913 60.4253C67.8358 60.3337 67.9096 60.2575 68.0163 60.1973L67.962 60.1011C67.8388 60.1706 67.7477 60.2623 67.6919 60.377L67.7913 60.4253ZM68.0167 60.1971C68.1238 60.1355 68.2638 60.1028 68.44 60.1028V59.9923C68.2508 59.9923 68.0903 60.0273 67.9616 60.1013L68.0167 60.1971ZM68.44 60.1028C68.5304 60.1028 68.6075 60.1127 68.672 60.1315L68.703 60.0254C68.626 60.003 68.5381 59.9923 68.44 59.9923V60.1028ZM68.6746 60.1322C68.7464 60.1494 68.7993 60.1674 68.8352 60.1854L68.8846 60.0865C68.8379 60.0632 68.7759 60.0429 68.7004 60.0248L68.6746 60.1322ZM68.8352 60.1854C68.8777 60.2066 68.8991 60.2182 68.9044 60.2217L68.9657 60.1297C68.9533 60.1215 68.9245 60.1065 68.8846 60.0865L68.8352 60.1854ZM68.8823 60.1592L68.7409 60.61L68.8463 60.6431L68.9877 60.1923L68.8823 60.1592ZM68.8326 60.5875C68.825 60.5799 68.8149 60.573 68.8067 60.5678C68.7973 60.5618 68.7855 60.5549 68.7718 60.5473L68.7181 60.6439C68.7309 60.651 68.7405 60.6567 68.7473 60.661C68.7507 60.6632 68.7531 60.6648 68.7545 60.6658C68.7563 60.6671 68.7559 60.667 68.7545 60.6656L68.8326 60.5875ZM68.7781 60.5514C68.7461 60.5274 68.6998 60.509 68.6448 60.4938L68.6152 60.6002C68.6664 60.6144 68.6966 60.6284 68.7118 60.6398L68.7781 60.5514ZM68.6448 60.4938C68.5857 60.4773 68.5171 60.4696 68.44 60.4696V60.5801C68.5102 60.5801 68.5683 60.5872 68.6152 60.6002L68.6448 60.4938ZM68.44 60.4696C68.3571 60.4696 68.2862 60.4808 68.2341 60.5097C68.2073 60.5247 68.1846 60.5448 68.1688 60.571C68.153 60.5974 68.1461 60.6268 68.1461 60.6575H68.2566C68.2566 60.6439 68.2595 60.6347 68.2636 60.6279C68.2677 60.621 68.2749 60.6135 68.2878 60.6063C68.3153 60.591 68.3637 60.5801 68.44 60.5801V60.4696ZM68.1461 60.6575C68.1461 60.6814 68.1501 60.705 68.1577 60.728L68.2626 60.6931C68.2584 60.6807 68.2566 60.6689 68.2566 60.6575H68.1461ZM68.1561 60.7221C68.1696 60.7848 68.2154 60.8312 68.2761 60.8649L68.3298 60.7683C68.2844 60.7431 68.2684 60.7187 68.2642 60.6989L68.1561 60.7221ZM68.2783 60.866C68.334 60.8939 68.4143 60.9271 68.518 60.9656L68.5565 60.862C68.4539 60.824 68.378 60.7924 68.3277 60.7672L68.2783 60.866ZM68.5182 60.9657C68.6609 61.0181 68.7791 61.0701 68.8732 61.1215L68.9261 61.0244C68.8258 60.9697 68.7023 60.9156 68.5563 60.862L68.5182 60.9657ZM68.8749 61.1224C68.9658 61.1678 69.0444 61.2377 69.1104 61.334L69.2016 61.2715C69.1262 61.1616 69.0339 61.0783 68.9244 61.0235L68.8749 61.1224ZM69.1115 61.3355C69.1764 61.4239 69.2113 61.5411 69.2113 61.6917H69.3217C69.3217 61.5242 69.2829 61.3821 69.2005 61.2701L69.1115 61.3355ZM69.2113 61.6917C69.2113 61.8031 69.1842 61.9073 69.1298 62.0052L69.2264 62.0589C69.2899 61.9447 69.3217 61.822 69.3217 61.6917H69.2113ZM69.1301 62.0047C69.0773 62.0971 68.9945 62.1743 68.8784 62.2351L68.9297 62.3329C69.0611 62.2641 69.161 62.1733 69.2261 62.0595L69.1301 62.0047ZM68.8779 62.2353C68.7674 62.2946 68.6253 62.326 68.4488 62.326V62.4365C68.6377 62.4365 68.7991 62.403 68.9302 62.3327L68.8779 62.2353ZM68.4488 62.326C68.2869 62.326 68.1491 62.299 68.034 62.2469L67.9885 62.3476C68.1209 62.4075 68.2748 62.4365 68.4488 62.4365V62.326ZM68.0355 62.2476C67.9217 62.1921 67.8369 62.1213 67.7783 62.0361L67.6873 62.0987C67.7584 62.2021 67.8592 62.2845 67.987 62.3469L68.0355 62.2476ZM67.779 62.0371C67.7226 61.9512 67.6917 61.8561 67.6863 61.7508L67.576 61.7564C67.5823 61.8809 67.6192 61.9951 67.6866 62.0977L67.779 62.0371ZM67.6366 61.8086L68.1228 61.76L68.1118 61.65L67.6256 61.6986L67.6366 61.8086ZM70.6971 60.6177L70.658 60.6568L70.6588 60.6576L70.6971 60.6177ZM70.2728 60.5426L70.2876 60.5959L70.2902 60.595L70.2728 60.5426ZM70.1446 60.5956L70.1149 60.549L70.0893 60.5653V60.5956H70.1446ZM70.1446 62.3149V62.3702H70.1998V62.3149H70.1446ZM69.6584 62.3149H69.6031V62.3702H69.6584V62.3149ZM69.6584 59.221V59.1658H69.6031V59.221H69.6584ZM70.1446 59.221H70.1998V59.1658H70.1446V59.221ZM70.1446 60.1183H70.0893V60.1977L70.1638 60.17L70.1446 60.1183ZM70.9136 60.1448L70.8904 60.1949L70.891 60.1952L70.9136 60.1448ZM71.1877 60.3834L71.1405 60.4123L71.1411 60.4132L71.1877 60.3834ZM71.2893 62.3149V62.3702H71.3446V62.3149H71.2893ZM70.8031 62.3149H70.7479V62.3702H70.8031V62.3149ZM70.8584 60.958C70.8584 60.7929 70.822 60.6609 70.7353 60.5778L70.6588 60.6576C70.7135 60.71 70.7479 60.8049 70.7479 60.958H70.8584ZM70.7361 60.5786C70.6568 60.4994 70.5553 60.4608 70.4363 60.4608V60.5713C70.5294 60.5713 70.6017 60.6005 70.658 60.6568L70.7361 60.5786ZM70.4363 60.4608C70.3744 60.4608 70.314 60.4706 70.2553 60.4902L70.2902 60.595C70.3376 60.5792 70.3862 60.5713 70.4363 60.5713V60.4608ZM70.258 60.4893C70.2017 60.505 70.1534 60.5245 70.1149 60.549L70.1742 60.6422C70.2005 60.6255 70.2377 60.6096 70.2875 60.5958L70.258 60.4893ZM70.0893 60.5956V62.3149H70.1998V60.5956H70.0893ZM70.1446 62.2597H69.6584V62.3702H70.1446V62.2597ZM69.7136 62.3149V59.221H69.6031V62.3149H69.7136ZM69.6584 59.2763H70.1446V59.1658H69.6584V59.2763ZM70.0893 59.221V60.1183H70.1998V59.221H70.0893ZM70.1638 60.17C70.2595 60.1345 70.3721 60.116 70.5026 60.116V60.0055C70.3619 60.0055 70.2359 60.0254 70.1253 60.0665L70.1638 60.17ZM70.5026 60.116C70.649 60.116 70.7779 60.1428 70.8904 60.1949L70.9369 60.0946C70.8078 60.0348 70.6626 60.0055 70.5026 60.0055V60.116ZM70.891 60.1952C70.9991 60.2438 71.0817 60.3161 71.1405 60.4123L71.2348 60.3546C71.1639 60.2387 71.0639 60.1518 70.9363 60.0944L70.891 60.1952ZM71.1411 60.4132C71.2018 60.5082 71.2341 60.6311 71.2341 60.7857H71.3446C71.3446 60.616 71.3091 60.4709 71.2342 60.3537L71.1411 60.4132ZM71.2341 60.7857V62.3149H71.3446V60.7857H71.2341ZM71.2893 62.2597H70.8031V62.3702H71.2893V62.2597ZM70.8584 62.3149V60.958H70.7479V62.3149H70.8584ZM72.8768 62.2884L72.9127 62.2465L72.889 62.2261L72.8593 62.236L72.8768 62.2884ZM72.7751 62.3282L72.7957 62.3795L72.7751 62.3282ZM71.7144 60.1006V60.0453H71.6591V60.1006H71.7144ZM72.2005 60.1006H72.2558V60.0453H72.2005V60.1006ZM72.2713 61.7846L72.2266 61.8171L72.2275 61.8183L72.2713 61.7846ZM72.8105 61.7757L72.8574 61.805L72.8579 61.8041L72.8105 61.7757ZM72.8768 60.1006V60.0453H72.8215V60.1006H72.8768ZM73.363 60.1006H73.4182V60.0453H73.363V60.1006ZM73.363 62.3149V62.3702H73.4182V62.3149H73.363ZM72.9077 62.3149L72.8718 62.3569L72.8873 62.3702H72.9077V62.3149ZM72.8593 62.236C72.8485 62.2396 72.8125 62.2538 72.7546 62.2769L72.7957 62.3795C72.8556 62.3555 72.8874 62.3431 72.8943 62.3408L72.8593 62.236ZM72.7546 62.2769C72.7046 62.2969 72.6357 62.3083 72.5453 62.3083V62.4188C72.6435 62.4188 72.7278 62.4066 72.7957 62.3795L72.7546 62.2769ZM72.5453 62.3083C72.2765 62.3083 72.0851 62.2429 71.9606 62.1218C71.8365 62.0009 71.7696 61.8154 71.7696 61.5547H71.6591C71.6591 61.8332 71.7307 62.0522 71.8836 62.2009C72.0361 62.3494 72.2602 62.4188 72.5453 62.4188V62.3083ZM71.7696 61.5547V60.1006H71.6591V61.5547H71.7696ZM71.7144 60.1558H72.2005V60.0453H71.7144V60.1558ZM72.1453 60.1006V61.484H72.2558V60.1006H72.1453ZM72.1453 61.484C72.1453 61.624 72.1693 61.7382 72.2266 61.8171L72.3159 61.7521C72.279 61.7012 72.2558 61.6151 72.2558 61.484H72.1453ZM72.2275 61.8183C72.2932 61.9033 72.4062 61.937 72.5453 61.937V61.8265C72.4192 61.8265 72.3495 61.7955 72.315 61.7508L72.2275 61.8183ZM72.5453 61.937C72.6852 61.937 72.7981 61.8998 72.8573 61.805L72.7636 61.7464C72.7345 61.7931 72.6706 61.8265 72.5453 61.8265V61.937ZM72.8579 61.8041C72.9093 61.7184 72.932 61.6039 72.932 61.4663H72.8215C72.8215 61.5939 72.8001 61.6857 72.7631 61.7473L72.8579 61.8041ZM72.932 61.4663V60.1006H72.8215V61.4663H72.932ZM72.8768 60.1558H73.363V60.0453H72.8768V60.1558ZM73.3077 60.1006V62.3149H73.4182V60.1006H73.3077ZM73.363 62.2597H72.9077V62.3702H73.363V62.2597ZM72.9437 62.273L72.9127 62.2465L72.8408 62.3304L72.8718 62.3569L72.9437 62.273ZM75.415 62.0011L75.4624 62.0296L75.415 62.0011ZM75.163 62.2354L75.1383 62.186L75.163 62.2354ZM74.8758 62.337L74.8643 62.283L74.8639 62.2831L74.8758 62.337ZM74.12 62.337L74.1259 62.2821L74.125 62.282L74.12 62.337ZM73.8769 62.3149H73.8216V62.3654L73.8719 62.37L73.8769 62.3149ZM73.8769 59.221V59.1658H73.8216V59.221H73.8769ZM74.363 59.221H74.4183V59.1658H74.363V59.221ZM74.363 60.105H74.3078V60.1742L74.3753 60.1589L74.363 60.105ZM75.1321 60.1492L75.1088 60.1993L75.1091 60.1994L75.1321 60.1492ZM74.9155 60.6398L74.881 60.683L74.8821 60.6838L74.9155 60.6398ZM74.478 60.5735L74.4928 60.6267L74.478 60.5735ZM74.363 60.6265L74.3267 60.585L74.3078 60.6015V60.6265H74.363ZM74.363 61.8906H74.3078V61.932L74.3475 61.9436L74.363 61.8906ZM74.8758 61.8464L74.8986 61.8967L74.8993 61.8964L74.8758 61.8464ZM75.4526 61.621C75.4526 61.7638 75.4232 61.8801 75.3676 61.9727L75.4624 62.0296C75.5305 61.9159 75.563 61.7788 75.563 61.621H75.4526ZM75.3676 61.9727C75.3111 62.067 75.2349 62.1377 75.1383 62.186L75.1878 62.2848C75.3034 62.227 75.3952 62.1416 75.4624 62.0296L75.3676 61.9727ZM75.1383 62.186C75.048 62.2311 74.9567 62.2634 74.8643 62.283L74.8872 62.3911C74.9893 62.3694 75.0895 62.3339 75.1878 62.2848L75.1383 62.186ZM74.8639 62.2831C74.774 62.3027 74.6763 62.3127 74.5708 62.3127V62.4232C74.6833 62.4232 74.7889 62.4126 74.8876 62.391L74.8639 62.2831ZM74.5708 62.3127C74.4647 62.3127 74.3167 62.3027 74.1259 62.2821L74.114 62.392C74.3063 62.4127 74.4588 62.4232 74.5708 62.4232V62.3127ZM74.125 62.282L73.8819 62.2599L73.8719 62.37L74.115 62.3921L74.125 62.282ZM73.9321 62.3149V59.221H73.8216V62.3149H73.9321ZM73.8769 59.2763H74.363V59.1658H73.8769V59.2763ZM74.3078 59.221V60.105H74.4183V59.221H74.3078ZM74.3753 60.1589C74.5019 60.1301 74.6156 60.116 74.7166 60.116V60.0055C74.6056 60.0055 74.4835 60.021 74.3508 60.0511L74.3753 60.1589ZM74.7166 60.116C74.8595 60.116 74.9899 60.144 75.1088 60.1993L75.1554 60.0991C75.0209 60.0365 74.8743 60.0055 74.7166 60.0055V60.116ZM75.1091 60.1994C75.2253 60.2527 75.3101 60.3273 75.3663 60.4226C75.4228 60.5182 75.4526 60.6383 75.4526 60.7857H75.563C75.563 60.6236 75.5302 60.4829 75.4615 60.3664C75.3924 60.2495 75.2894 60.1606 75.1551 60.099L75.1091 60.1994ZM75.4526 60.7857V61.621H75.563V60.7857H75.4526ZM75.0813 60.9227C75.0813 60.7807 75.0416 60.6662 74.949 60.5958L74.8821 60.6838C74.9368 60.7253 74.9708 60.7995 74.9708 60.9227H75.0813ZM74.95 60.5967C74.8654 60.5289 74.7629 60.4962 74.6459 60.4962V60.6067C74.7411 60.6067 74.8184 60.6328 74.881 60.6829L74.95 60.5967ZM74.6459 60.4962C74.5823 60.4962 74.5214 60.5041 74.4632 60.5203L74.4928 60.6267C74.5406 60.6134 74.5916 60.6067 74.6459 60.6067V60.4962ZM74.4632 60.5203C74.4073 60.5358 74.3595 60.5562 74.3267 60.585L74.3994 60.6681C74.4137 60.6556 74.4425 60.6407 74.4928 60.6267L74.4632 60.5203ZM74.3078 60.6265V61.8906H74.4183V60.6265H74.3078ZM74.3475 61.9436C74.404 61.9603 74.47 61.968 74.5443 61.968V61.8575C74.4771 61.8575 74.4222 61.8505 74.3786 61.8376L74.3475 61.9436ZM74.5443 61.968C74.6747 61.968 74.7931 61.9447 74.8986 61.8967L74.8529 61.7961C74.7639 61.8366 74.6614 61.8575 74.5443 61.8575V61.968ZM74.8993 61.8964C74.9559 61.8698 75.002 61.8343 75.0339 61.7884C75.066 61.7421 75.0813 61.6885 75.0813 61.6299H74.9708C74.9708 61.6685 74.961 61.6996 74.9431 61.7254C74.9248 61.7517 74.8958 61.7759 74.8522 61.7964L74.8993 61.8964ZM75.0813 61.6299V60.9227H74.9708V61.6299H75.0813ZM77.0032 60.6177L76.9641 60.6568L76.9649 60.6576L77.0032 60.6177ZM76.5789 60.5426L76.5937 60.5959L76.5963 60.595L76.5789 60.5426ZM76.4507 60.5956L76.421 60.549L76.3954 60.5653V60.5956H76.4507ZM76.4507 62.3149V62.3702H76.5059V62.3149H76.4507ZM75.9645 62.3149H75.9092V62.3702H75.9645V62.3149ZM75.9645 59.221V59.1658H75.9092V59.221H75.9645ZM76.4507 59.221H76.5059V59.1658H76.4507V59.221ZM76.4507 60.1183H76.3954V60.1977L76.4699 60.17L76.4507 60.1183ZM77.2197 60.1448L77.1965 60.1949L77.1971 60.1952L77.2197 60.1448ZM77.4938 60.3834L77.4466 60.4123L77.4472 60.4132L77.4938 60.3834ZM77.5954 62.3149V62.3702H77.6507V62.3149H77.5954ZM77.1093 62.3149H77.054V62.3702H77.1093V62.3149ZM77.1645 60.958C77.1645 60.7929 77.1281 60.6609 77.0414 60.5778L76.9649 60.6576C77.0196 60.71 77.054 60.8049 77.054 60.958H77.1645ZM77.0422 60.5786C76.963 60.4994 76.8614 60.4608 76.7424 60.4608V60.5713C76.8355 60.5713 76.9078 60.6005 76.9641 60.6568L77.0422 60.5786ZM76.7424 60.4608C76.6805 60.4608 76.6201 60.4706 76.5614 60.4902L76.5963 60.595C76.6437 60.5792 76.6923 60.5713 76.7424 60.5713V60.4608ZM76.5641 60.4893C76.5078 60.505 76.4596 60.5245 76.421 60.549L76.4803 60.6422C76.5066 60.6255 76.5438 60.6096 76.5936 60.5958L76.5641 60.4893ZM76.3954 60.5956V62.3149H76.5059V60.5956H76.3954ZM76.4507 62.2597H75.9645V62.3702H76.4507V62.2597ZM76.0197 62.3149V59.221H75.9092V62.3149H76.0197ZM75.9645 59.2763H76.4507V59.1658H75.9645V59.2763ZM76.3954 59.221V60.1183H76.5059V59.221H76.3954ZM76.4699 60.17C76.5657 60.1345 76.6783 60.116 76.8087 60.116V60.0055C76.6681 60.0055 76.542 60.0254 76.4314 60.0665L76.4699 60.17ZM76.8087 60.116C76.9551 60.116 77.084 60.1428 77.1965 60.1949L77.243 60.0946C77.1139 60.0348 76.9687 60.0055 76.8087 60.0055V60.116ZM77.1971 60.1952C77.3052 60.2438 77.3879 60.3161 77.4466 60.4123L77.5409 60.3546C77.4701 60.2387 77.37 60.1518 77.2424 60.0944L77.1971 60.1952ZM77.4472 60.4132C77.5079 60.5082 77.5402 60.6311 77.5402 60.7857H77.6507C77.6507 60.616 77.6152 60.4709 77.5403 60.3537L77.4472 60.4132ZM77.5402 60.7857V62.3149H77.6507V60.7857H77.5402ZM77.5954 62.2597H77.1093V62.3702H77.5954V62.2597ZM77.1645 62.3149V60.958H77.054V62.3149H77.1645ZM79.7266 62.3149L79.7321 62.3699L79.7818 62.3648V62.3149H79.7266ZM78.2989 62.1912L78.3283 62.1444L78.2989 62.1912ZM78.3299 60.6133L78.3058 60.5636L78.3054 60.5637L78.3299 60.6133ZM78.984 60.5868L78.9988 60.5335L78.984 60.5868ZM79.2404 60.684L79.2139 60.7325L79.2956 60.7771V60.684H79.2404ZM79.1078 60.463L79.0844 60.5131L79.0858 60.5137L79.1078 60.463ZM78.7674 60.4011L78.7126 60.3946L78.7053 60.4564H78.7674V60.4011ZM78.8072 60.0652V60.01H78.7581L78.7523 60.0587L78.8072 60.0652ZM79.4304 60.2022L79.3991 60.2477L79.4002 60.2485L79.4304 60.2022ZM79.6779 60.5205L79.6242 60.5333L79.6245 60.5345L79.6779 60.5205ZM79.2404 61.2011H79.2956V61.1729L79.2727 61.1563L79.2404 61.2011ZM79.0149 61.0951L78.9955 61.1468L78.9975 61.1475L79.0149 61.0951ZM78.5818 61.0951L78.5473 61.0519L78.5818 61.0951ZM79.2404 61.8862L79.2508 61.9405L79.2956 61.9318V61.8862H79.2404ZM79.721 62.26C79.4029 62.2924 79.1754 62.3083 79.037 62.3083V62.4188C79.1815 62.4188 79.4138 62.4023 79.7321 62.3699L79.721 62.26ZM79.037 62.3083C78.7338 62.3083 78.4992 62.2519 78.3283 62.1444L78.2695 62.238C78.464 62.3603 78.7215 62.4188 79.037 62.4188V62.3083ZM78.3283 62.1444C78.1676 62.0433 78.0801 61.8578 78.0801 61.568H77.9696C77.9696 61.8793 78.0648 62.1092 78.2695 62.238L78.3283 62.1444ZM78.0801 61.568V61.2011H77.9696V61.568H78.0801ZM78.0801 61.2011C78.0801 60.9233 78.1755 60.7509 78.3543 60.6628L78.3054 60.5637C78.0776 60.676 77.9696 60.8955 77.9696 61.2011H78.0801ZM78.354 60.663C78.4427 60.62 78.5447 60.5978 78.6614 60.5978V60.4873C78.5305 60.4873 78.4115 60.5123 78.3058 60.5636L78.354 60.663ZM78.6614 60.5978C78.7653 60.5978 78.8679 60.6119 78.9692 60.64L78.9988 60.5335C78.888 60.5027 78.7754 60.4873 78.6614 60.4873V60.5978ZM78.9692 60.64C79.073 60.6688 79.1541 60.6999 79.2139 60.7325L79.2668 60.6355C79.197 60.5974 79.1072 60.5636 78.9988 60.5335L78.9692 60.64ZM79.2956 60.684C79.2956 60.6221 79.2831 60.566 79.2546 60.5186C79.2258 60.4706 79.1832 60.4355 79.1297 60.4123L79.0858 60.5137C79.1208 60.5288 79.1444 60.5497 79.1598 60.5754C79.1756 60.6016 79.1851 60.6368 79.1851 60.684H79.2956ZM79.1311 60.4129C79.033 60.3672 78.9108 60.3459 78.7674 60.3459V60.4564C78.901 60.4564 79.0057 60.4764 79.0844 60.5131L79.1311 60.4129ZM78.8223 60.4076L78.8621 60.0717L78.7523 60.0587L78.7126 60.3946L78.8223 60.4076ZM78.8072 60.1205C79.0864 60.1205 79.2804 60.166 79.3991 60.2477L79.4618 60.1567C79.3153 60.0558 79.0938 60.01 78.8072 60.01V60.1205ZM79.4002 60.2485C79.5273 60.3314 79.5988 60.4267 79.6242 60.5333L79.7317 60.5077C79.6981 60.3667 79.6046 60.2499 79.4606 60.156L79.4002 60.2485ZM79.6245 60.5345C79.6553 60.6519 79.6713 60.8059 79.6713 60.9978H79.7818C79.7818 60.8008 79.7654 60.6365 79.7314 60.5065L79.6245 60.5345ZM79.6713 60.9978V62.3149H79.7818V60.9978H79.6713ZM79.2727 61.1563C79.2133 61.1134 79.1323 61.0759 79.0324 61.0426L78.9975 61.1475C79.092 61.179 79.1613 61.2122 79.208 61.2459L79.2727 61.1563ZM79.0343 61.0433C78.9354 61.0062 78.8419 60.9868 78.7542 60.9868V61.0973C78.8256 61.0973 78.9059 61.1132 78.9955 61.1468L79.0343 61.0433ZM78.7542 60.9868C78.6741 60.9868 78.6035 61.0069 78.5473 61.0519L78.6163 61.1382C78.6485 61.1125 78.6928 61.0973 78.7542 61.0973V60.9868ZM78.5473 61.0519C78.4857 61.1012 78.4603 61.1759 78.4603 61.263H78.5707C78.5707 61.1969 78.5895 61.1597 78.6163 61.1382L78.5473 61.0519ZM78.4603 61.263V61.5061H78.5707V61.263H78.4603ZM78.4603 61.5061C78.4603 61.6512 78.5033 61.7694 78.5979 61.8498C78.6908 61.9288 78.8243 61.9636 78.9884 61.9636V61.8531C78.8373 61.8531 78.7343 61.8207 78.6695 61.7657C78.6065 61.7121 78.5707 61.6291 78.5707 61.5061H78.4603ZM78.9884 61.9636C79.0827 61.9636 79.1702 61.956 79.2508 61.9405L79.2299 61.832C79.1573 61.8459 79.0768 61.8531 78.9884 61.8531V61.9636ZM79.2956 61.8862V61.2011H79.1851V61.8862H79.2956Z" fill="#2AB9F6"/>
<path d="M78.251 51.8508H86.5268C87.7473 51.8508 88.7368 52.8402 88.7368 54.0607V54.0607C88.7368 55.2813 87.7473 56.2707 86.5268 56.2707H68.538C66.8915 56.2154 63.5986 55.1491 63.5986 51.3259" stroke="#2AB9F6" stroke-width="1.65746"/>
<path d="M62.2725 47.7684L64.7377 47.7684C66.203 47.7684 67.6082 48.3505 68.6444 49.3866L71.7812 52.5234C72.6442 53.3865 74.0435 53.3865 74.9065 52.5234V52.5234C75.7696 51.6604 75.7696 50.2611 74.9065 49.3981L70.6647 45.1563C69.6286 44.1202 68.2233 43.5381 66.7581 43.5381H63.9576" stroke="#2AB9F6" stroke-width="1.65746"/>
<path fill-rule="evenodd" clip-rule="evenodd" d="M78.5039 32.3565C76.6251 30.4144 73.5789 30.4144 71.7001 32.3565C69.8213 34.2987 69.8213 37.4476 71.7001 39.3897L78.1685 46.8353C78.9089 47.6875 80.2367 47.6875 80.977 46.8353L87.4454 39.3897C89.3243 37.4476 89.3243 34.2987 87.4454 32.3565C85.5666 30.4144 82.4921 30.5028 80.6417 32.3565C79.5728 33.3802 78.9823 32.8511 78.5039 32.3565Z" stroke="#2AB9F6" stroke-width="1.65746"/>
<path d="M47.7888 5.93359C47.7888 5.39453 47.6459 5.01016 47.3599 4.78047C47.0787 4.55078 46.6826 4.43594 46.1716 4.43594H44.1537V7.4875H46.1716C46.6826 7.4875 47.0787 7.36328 47.3599 7.11484C47.6459 6.86641 47.7888 6.47266 47.7888 5.93359ZM49.9334 5.91953C49.9334 7.14297 49.624 8.00781 49.0052 8.51406C48.3865 9.02031 47.5029 9.27344 46.3545 9.27344H44.1537V13H42.0021V2.63594H46.5162C47.5568 2.63594 48.3865 2.90313 49.0052 3.4375C49.624 3.97188 49.9334 4.79922 49.9334 5.91953ZM54.4741 11.5867C55.0601 11.5867 55.5101 11.3781 55.8241 10.9609C56.1382 10.5438 56.2952 9.95078 56.2952 9.18203C56.2952 8.41328 56.1382 7.82266 55.8241 7.41016C55.5101 6.99297 55.0601 6.78438 54.4741 6.78438C53.8882 6.78438 53.4359 6.99297 53.1171 7.41016C52.8031 7.82266 52.646 8.41328 52.646 9.18203C52.646 9.95078 52.8031 10.5438 53.1171 10.9609C53.4359 11.3781 53.8882 11.5867 54.4741 11.5867ZM58.3976 9.18203C58.3976 10.307 58.0741 11.2703 57.4273 12.0719C56.7804 12.8688 55.7984 13.2672 54.4812 13.2672C53.164 13.2672 52.182 12.8688 51.5351 12.0719C50.8882 11.2703 50.5648 10.307 50.5648 9.18203C50.5648 8.07578 50.8882 7.11719 51.5351 6.30625C52.182 5.49531 53.164 5.08984 54.4812 5.08984C55.7984 5.08984 56.7804 5.49531 57.4273 6.30625C58.0741 7.11719 58.3976 8.07578 58.3976 9.18203ZM63.3523 5.33594H65.3843L66.5515 10.8555L67.7468 5.33594H69.8351L67.6132 13H65.553L64.3507 7.41719L63.1343 13H61.053L58.9015 5.33594H61.053L62.2483 10.8344L63.3523 5.33594ZM73.8254 6.78438C73.3614 6.78438 73.0004 6.92969 72.7426 7.22031C72.4895 7.51094 72.3301 7.90469 72.2645 8.40156H75.3793C75.3465 7.87188 75.1848 7.47109 74.8942 7.19922C74.6083 6.92266 74.252 6.78438 73.8254 6.78438ZM73.8254 5.13203C74.4629 5.13203 75.0372 5.25156 75.5481 5.49063C76.059 5.72969 76.4809 6.10703 76.8137 6.62266C77.1137 7.07734 77.3083 7.60469 77.3973 8.20469C77.4489 8.55625 77.47 9.0625 77.4606 9.72344H72.2153C72.2434 10.4922 72.4848 11.0313 72.9395 11.3406C73.2161 11.5328 73.5489 11.6289 73.9379 11.6289C74.3504 11.6289 74.6856 11.5117 74.9434 11.2773C75.084 11.1508 75.2083 10.975 75.3161 10.75H77.3622C77.3106 11.2047 77.0739 11.6664 76.652 12.1352C75.9958 12.8805 75.077 13.2531 73.8958 13.2531C72.9208 13.2531 72.0606 12.9391 71.3153 12.3109C70.57 11.6828 70.1973 10.6609 70.1973 9.24531C70.1973 7.91875 70.5325 6.90156 71.2028 6.19375C71.8778 5.48594 72.752 5.13203 73.8254 5.13203ZM82.6201 5.15313C82.6576 5.15313 82.6881 5.15547 82.7115 5.16016C82.7397 5.16016 82.7983 5.1625 82.8873 5.16719V7.22031C82.7608 7.20625 82.6483 7.19688 82.5498 7.19219C82.4514 7.1875 82.3717 7.18516 82.3108 7.18516C81.5045 7.18516 80.9631 7.44766 80.6865 7.97266C80.5318 8.26797 80.4545 8.72266 80.4545 9.33672V13H78.4365V5.33594H80.349V6.67188C80.6584 6.16094 80.9279 5.81172 81.1576 5.62422C81.5326 5.31016 82.0201 5.15313 82.6201 5.15313ZM86.948 6.78438C86.4839 6.78438 86.123 6.92969 85.8652 7.22031C85.6121 7.51094 85.4527 7.90469 85.3871 8.40156H88.5019C88.4691 7.87188 88.3074 7.47109 88.0168 7.19922C87.7308 6.92266 87.3746 6.78438 86.948 6.78438ZM86.948 5.13203C87.5855 5.13203 88.1597 5.25156 88.6707 5.49063C89.1816 5.72969 89.6035 6.10703 89.9363 6.62266C90.2363 7.07734 90.4308 7.60469 90.5199 8.20469C90.5714 8.55625 90.5925 9.0625 90.5832 9.72344H85.3378C85.366 10.4922 85.6074 11.0313 86.0621 11.3406C86.3386 11.5328 86.6714 11.6289 87.0605 11.6289C87.473 11.6289 87.8082 11.5117 88.066 11.2773C88.2066 11.1508 88.3308 10.975 88.4386 10.75H90.4847C90.4332 11.2047 90.1964 11.6664 89.7746 12.1352C89.1183 12.8805 88.1996 13.2531 87.0183 13.2531C86.0433 13.2531 85.1832 12.9391 84.4378 12.3109C83.6925 11.6828 83.3199 10.6609 83.3199 9.24531C83.3199 7.91875 83.655 6.90156 84.3253 6.19375C85.0003 5.48594 85.8746 5.13203 86.948 5.13203ZM94.4068 5.15313C94.8708 5.15313 95.2833 5.25625 95.6443 5.4625C96.0052 5.66406 96.2982 5.94531 96.5232 6.30625V2.65H98.5552V13H96.6075V11.9383C96.3216 12.393 95.9958 12.7234 95.6302 12.9297C95.2646 13.1359 94.8099 13.2391 94.2661 13.2391C93.3708 13.2391 92.6161 12.8781 92.0021 12.1563C91.3927 11.4297 91.088 10.4992 91.088 9.36484C91.088 8.05703 91.388 7.02813 91.988 6.27813C92.5927 5.52813 93.3989 5.15313 94.4068 5.15313ZM94.8427 11.5516C95.4099 11.5516 95.8411 11.3406 96.1364 10.9188C96.4318 10.4969 96.5794 9.95078 96.5794 9.28047C96.5794 8.34297 96.3427 7.67266 95.8693 7.26953C95.5786 7.02578 95.2411 6.90391 94.8568 6.90391C94.2708 6.90391 93.8396 7.12656 93.563 7.57188C93.2911 8.0125 93.1552 8.56094 93.1552 9.21719C93.1552 9.925 93.2935 10.4922 93.57 10.9188C93.8513 11.3406 94.2755 11.5516 94.8427 11.5516ZM105.935 4.43594V6.72109H108.481C108.935 6.72109 109.303 6.63672 109.584 6.46797C109.87 6.29453 110.013 5.98984 110.013 5.55391C110.013 5.07109 109.826 4.75234 109.451 4.59766C109.127 4.48984 108.715 4.43594 108.213 4.43594H105.935ZM105.935 8.43672V11.2H108.481C108.935 11.2 109.289 11.1391 109.542 11.0172C110.002 10.7922 110.231 10.3609 110.231 9.72344C110.231 9.18438 110.009 8.81406 109.563 8.6125C109.315 8.5 108.966 8.44141 108.516 8.43672H105.935ZM108.902 2.63594C110.173 2.65469 111.073 3.02266 111.602 3.73984C111.921 4.18047 112.081 4.70781 112.081 5.32188C112.081 5.95469 111.921 6.46328 111.602 6.84766C111.424 7.06328 111.162 7.26016 110.815 7.43828C111.345 7.63047 111.743 7.93516 112.01 8.35234C112.282 8.76953 112.418 9.27578 112.418 9.87109C112.418 10.4852 112.263 11.0359 111.954 11.5234C111.757 11.8469 111.511 12.1188 111.216 12.3391C110.883 12.5922 110.489 12.7656 110.034 12.8594C109.584 12.9531 109.095 13 108.565 13H103.868V2.63594H108.902ZM114.444 14.4695L114.697 14.4836C114.894 14.493 115.082 14.4859 115.26 14.4625C115.438 14.4391 115.588 14.3852 115.71 14.3008C115.827 14.2211 115.935 14.0547 116.033 13.8016C116.137 13.5484 116.179 13.3937 116.16 13.3375L113.347 5.33594H115.576L117.25 10.9891L118.832 5.33594H120.962L118.333 12.8734C117.826 14.3266 117.426 15.2266 117.13 15.5734C116.835 15.925 116.244 16.1008 115.358 16.1008C115.18 16.1008 115.037 16.0984 114.93 16.0937C114.822 16.0937 114.66 16.0867 114.444 16.0727V14.4695Z" fill="#2AB9F6"/>
</svg>
