<svg width="105" height="105" viewBox="0 0 105 105" fill="none" xmlns="http://www.w3.org/2000/svg">
<g id="receiveaudiocallicon">
<path id="Stroke 1" fill-rule="evenodd" clip-rule="evenodd" d="M102.291 52.6454C102.291 80.0638 80.0638 102.291 52.6454 102.291C25.2269 102.291 3 80.0638 3 52.6454C3 25.2269 25.2269 3 52.6454 3C80.0638 3 102.291 25.2269 102.291 52.6454Z" stroke="white" stroke-width="5"/>
<g id="Group 2">
<path id="Fill 3" fill-rule="evenodd" clip-rule="evenodd" d="M70.0216 72.847L60.0189 62.8451L62.6202 60.2449L72.6229 70.2461C72.6229 70.2461 70.0223 72.8477 70.0216 72.847ZM66.4598 74.1682C64.2567 76.371 60.3631 76.7349 55.4959 75.1927C50.286 73.5419 44.7209 69.9376 39.826 65.0435C34.9311 60.1494 31.3263 54.5851 29.6759 49.3768C28.1335 44.5103 28.4974 40.6166 30.6998 38.4131H30.7006L30.9762 38.1367L38.7386 45.8987L38.0269 46.611C38.0269 46.6118 38.0261 46.6125 38.0254 46.6125C35.0762 49.5649 38.6198 56.1973 43.6467 61.2234C47.409 64.9852 52.0712 67.9164 55.4171 67.9164C56.5424 67.9164 57.5182 67.5846 58.2621 66.8423C58.2621 66.8416 58.2621 66.8416 58.2621 66.8416L58.9738 66.1299L66.7362 73.8919L66.4598 74.1682ZM34.6226 32.2517L44.6261 42.2529L42.0262 44.8552L42.0247 44.8538L41.9876 44.8166L37.0226 39.8532L32.022 34.8526L34.6226 32.2517ZM64.7854 58.0793C63.5916 56.8856 61.6488 56.8856 60.455 58.0793L57.8537 60.6802C57.0383 61.4954 56.7809 62.6584 57.0784 63.6945L56.0968 64.676C56.0968 64.6767 56.0968 64.6767 56.0961 64.6767C55.3996 65.3745 51.059 64.3041 45.8119 59.0585C40.5662 53.813 39.4956 49.4737 40.1921 48.7759L41.1744 47.7937C41.4523 47.8732 41.7381 47.9141 42.024 47.9141C42.8087 47.9141 43.5927 47.6151 44.19 47.0186L46.7913 44.4185C47.9851 43.2241 47.9851 41.2823 46.7913 40.088L36.7878 30.0868C36.2095 29.5086 35.4409 29.1899 34.6226 29.1899C33.8044 29.1899 33.0364 29.5086 32.4574 30.0868L29.8561 32.6877C29.0415 33.5029 28.784 34.6667 29.0808 35.7028C29.0808 35.7028 28.2495 36.5421 28.2079 36.5953C25.441 39.6702 24.9218 44.5125 26.7559 50.3013C28.5529 55.9698 32.4253 61.9737 37.6608 67.2084C42.8962 72.4423 48.9018 76.3149 54.5705 78.1115C56.848 78.8326 58.9782 79.1899 60.913 79.1899C64.0846 79.1899 66.7297 78.2282 68.625 76.3331L69.1705 75.7869C69.444 75.8664 69.7292 75.908 70.0216 75.908C70.8399 75.908 71.6085 75.5901 72.1868 75.0119L74.7882 72.4102C75.982 71.2173 75.982 69.2748 74.7882 68.0805L64.7854 58.0793Z" fill="white"/>
<path id="Fill 5" fill-rule="evenodd" clip-rule="evenodd" d="M65.1014 50.9213C65.1014 51.6297 65.6988 52.2048 66.436 52.2048C67.1725 52.2048 67.7699 51.6297 67.7699 50.9213C67.7699 47.4701 66.3724 44.2254 63.8348 41.785C61.2972 39.3446 57.9233 38 54.3346 38C53.5974 38 53 38.5745 53 39.2835C53 39.9918 53.5974 40.5663 54.3346 40.5663C57.2103 40.5663 59.9137 41.6432 61.948 43.5995C63.9816 45.5553 65.1014 48.1558 65.1014 50.9213Z" fill="white"/>
<path id="Fill 7" fill-rule="evenodd" clip-rule="evenodd" d="M68.5031 35.5128C64.1048 31.4354 58.2571 29.1899 52.0381 29.1899C51.1885 29.1899 50.5 29.8289 50.5 30.6158C50.5 31.4028 51.1885 32.0417 52.0381 32.0417C57.4361 32.0411 62.5111 33.9898 66.3285 37.5288C70.1452 41.0677 72.2472 45.7718 72.2472 50.7761C72.2472 51.5644 72.9357 52.202 73.7853 52.202C74.6342 52.202 75.3227 51.5644 75.3227 50.7761C75.3234 45.0107 72.9006 39.5902 68.5031 35.5128Z" fill="white"/>
<path id="Fill 9" fill-rule="evenodd" clip-rule="evenodd" d="M54.2037 45.2173C53.5388 45.2173 53 45.7386 53 46.3832C53.0006 47.0267 53.5394 47.5486 54.2037 47.548H54.2042C55.1947 47.548 56.0533 47.8922 56.7543 48.5718C57.4449 49.2414 57.8101 50.0953 57.8101 51.0419C57.8101 51.6854 58.3488 52.2078 59.0137 52.2078C59.678 52.2078 60.2168 51.6854 60.2168 51.0419C60.2174 49.4635 59.6081 48.0399 58.4555 46.9229C57.3034 45.8069 55.8332 45.2173 54.2037 45.2173Z" fill="white"/>
</g>
</g>
</svg>
