<svg width="105" height="105" viewBox="0 0 105 105" fill="none" xmlns="http://www.w3.org/2000/svg">
<g id="receivevideocallicon">
<path id="Stroke 1" fill-rule="evenodd" clip-rule="evenodd" d="M61.7057 56.9716V59.2766C61.7057 63.1773 58.5142 66.3688 54.6135 66.3688H37.5922C33.6915 66.3688 30.5 63.1773 30.5 59.2766V45.0922C30.5 41.1915 33.6915 38 37.5922 38H54.6135C58.5142 38 61.7057 41.1915 61.7057 45.0922V47.2199L76.2447 38.3546V66.0142L61.7057 56.9716Z" stroke="white" stroke-width="2"/>
<path id="Stroke 3" fill-rule="evenodd" clip-rule="evenodd" d="M102.291 52.6454C102.291 80.0638 80.0638 102.291 52.6454 102.291C25.2269 102.291 3 80.0638 3 52.6454C3 25.2269 25.2269 3 52.6454 3C80.0638 3 102.291 25.2269 102.291 52.6454Z" stroke="white" stroke-width="5"/>
</g>
</svg>
