<svg width="12" height="12" viewBox="0 0 12 12" fill="none" xmlns="http://www.w3.org/2000/svg">
<path fill-rule="evenodd" clip-rule="evenodd" d="M8.38799 7.45997C8.9743 6.68055 9.3218 5.71128 9.3218 4.66084C9.3218 2.08673 7.23505 0 4.6609 0C2.08676 0 0 2.08673 0 4.66084C0 7.23496 2.08676 9.32169 4.6609 9.32169C5.71126 9.32169 6.68048 8.97425 7.45988 8.38803C7.49352 8.46089 7.54036 8.52915 7.60042 8.58921L10.8065 11.7953C11.0795 12.0683 11.5222 12.0683 11.7952 11.7953C12.0683 11.5222 12.0683 11.0796 11.7952 10.8065L8.58914 7.60049C8.5291 7.54044 8.46084 7.49361 8.38799 7.45997ZM4.6609 8.38948C6.72022 8.38948 8.38962 6.72009 8.38962 4.6608C8.38962 2.60151 6.72022 0.932129 4.6609 0.932129C2.60159 0.932129 0.93218 2.60151 0.93218 4.6608C0.93218 6.72009 2.60159 8.38948 4.6609 8.38948Z" fill="#47525D"/>
</svg>
