<svg width="52" height="52" viewBox="0 0 52 52" fill="none" xmlns="http://www.w3.org/2000/svg">
<g id="silenticon">
<path id="Line" d="M39.7885 13.0751L40.0556 12.808L39.5215 12.2739L39.2544 12.541L12.8181 38.9773L12.551 39.2444L13.0851 39.7785L13.3522 39.5114L39.7885 13.0751Z" fill="white"/>
<path id="Oval 1" d="M50.8514 26.1772C50.8514 12.4111 39.6918 1.25146 25.9257 1.25146C12.1596 1.25146 1 12.4111 1 26.1772C1 39.9432 12.1596 51.1029 25.9257 51.1029C39.6918 51.1029 50.8514 39.9432 50.8514 26.1772Z" stroke="white" stroke-width="1.26126"/>
<path id="Path 2" fill-rule="evenodd" clip-rule="evenodd" d="M30.8352 14.4624V15.2249V21.8718V22.0282L30.7246 22.1388L21.5096 31.3538L21.399 31.4644H21.2426H15.7287H15.3511V31.0867V21.2675V20.8899H15.7287H22.3992L30.2287 14.9245L30.8352 14.4624ZM30.0799 21.7153L30.1905 21.6047L30.0799 21.8718V21.7153ZM21.0862 30.7091L30.0799 21.7153V15.9875L30.6864 15.5253L30.0799 15.2249V15.9875L22.7555 21.5679L22.6541 21.6452H22.5267H16.1064V21.2675L15.7287 21.6452H16.1064V30.7091H15.7287L16.1064 31.0867V30.7091H21.0862ZM21.0862 30.7091L20.9755 30.8197L21.2426 30.7091H21.0862Z" fill="white"/>
<path id="Path 3" d="M30.2215 37.424L30.8353 37.9158V37.1293V24.1377H30.08V37.1293L30.6938 36.8346L23.1332 30.7765L22.6609 31.3659L30.2215 37.424Z" fill="white"/>
</g>
</svg>
