<svg width="37" height="37" viewBox="0 0 37 37" fill="none" xmlns="http://www.w3.org/2000/svg">
<path d="M18.4826 1.61475C8.9882 1.61475 1.2998 9.17125 1.2998 18.4819C1.2998 27.7926 8.9882 35.3491 18.4826 35.3491C27.9942 35.3491 35.6998 27.7926 35.6998 18.4819C35.6998 9.17125 27.9942 1.61475 18.4826 1.61475Z" stroke="#47525D" stroke-width="2.15"/>
<path d="M24.5214 16.7955C25.949 16.7955 27.1014 15.6654 27.1014 14.2654C27.1014 12.8655 25.949 11.7354 24.5214 11.7354C23.0938 11.7354 21.9414 12.8655 21.9414 14.2654C21.9414 15.6654 23.0938 16.7955 24.5214 16.7955Z" fill="#47525D"/>
<path d="M12.4794 16.7955C13.907 16.7955 15.0594 15.6654 15.0594 14.2654C15.0594 12.8655 13.907 11.7354 12.4794 11.7354C11.0518 11.7354 9.89941 12.8655 9.89941 14.2654C9.89941 15.6654 11.0518 16.7955 12.4794 16.7955Z" fill="#47525D"/>
<path d="M18.5007 27.759C21.9923 27.759 25.0367 25.8868 26.6707 23.1205C26.9975 22.5639 26.5847 21.8555 25.9139 21.8555H11.0875C10.4339 21.8555 10.0039 22.5639 10.3307 23.1205C11.9647 25.8868 15.0091 27.759 18.5007 27.759Z" fill="#47525D"/>
</svg>
