<svg width="35" height="34" viewBox="0 0 35 34" fill="none" xmlns="http://www.w3.org/2000/svg">
<ellipse cx="1.72559" cy="1.72589" rx="1.72559" ry="1.72589" fill="#53A8CB"/>
<ellipse cx="32.7861" cy="1.72589" rx="1.72559" ry="1.72589" fill="#53A8CB"/>
<rect x="15.5303" width="3.45118" height="3.45178" fill="#53A8CB"/>
<rect x="29.335" y="13.8071" width="3.45118" height="3.45178" fill="#53A8CB"/>
<path d="M31.0606 15.5327C31.0606 7.90724 24.88 1.72559 17.2559 1.72559C9.63175 1.72559 3.45117 7.90724 3.45117 15.5327" stroke="#53A8CB" stroke-width="0.498217"/>
<rect x="1.72559" y="13.8071" width="3.45118" height="3.45178" fill="#53A8CB"/>
<rect x="3.27832" y="1.38086" width="27.9545" height="0.690355" fill="#53A8CB"/>
<path fill-rule="evenodd" clip-rule="evenodd" d="M15.7024 4.31445H17.0828V15.5414C16.2108 15.628 15.5298 16.3638 15.5298 17.2587C15.5298 18.1536 16.2108 18.8895 17.0828 18.9761V23.2992H12.9414C12.9414 23.2992 12.5833 21.1292 12.2512 19.7612C11.9115 18.3621 11.2158 16.2231 11.2158 16.2231C11.2158 16.2231 13.7779 12.8052 14.667 10.2688C15.4477 8.04148 15.7024 4.31445 15.7024 4.31445ZM17.428 18.9761V23.2993H21.5694C21.5694 23.2993 21.9276 21.1292 22.2597 19.7612C22.5993 18.3622 23.295 16.2231 23.295 16.2231C23.295 16.2231 20.7329 12.8052 19.8439 10.2688C19.0631 8.04151 18.8085 4.31448 18.8085 4.31448H17.428V15.5414C18.3 15.628 18.981 16.3638 18.981 17.2587C18.981 18.1536 18.3 18.8895 17.428 18.9761Z" fill="#53A8CB"/>
<rect x="12.0791" y="23.6445" width="10.3535" height="10.3553" fill="#53A8CB"/>
</svg>
