<svg width="21" height="21" viewBox="0 0 21 21" fill="none" xmlns="http://www.w3.org/2000/svg">
<rect x="0.7" y="0.7" width="19.6" height="19.6" rx="9.8" stroke="#47525D" stroke-width="1.4"/>
<path fill-rule="evenodd" clip-rule="evenodd" d="M15.666 7.63618C15.4248 7.39497 15.0337 7.39497 14.7925 7.63618L9.11488 13.3138L6.05775 10.2567C5.81654 10.0154 5.42547 10.0154 5.18427 10.2567C4.94306 10.4979 4.94306 10.8889 5.18427 11.1301L8.67146 14.6173C8.67365 14.6196 8.67586 14.6218 8.67808 14.6241C8.77138 14.7173 8.88709 14.7746 9.00788 14.7957C9.19943 14.8292 9.40375 14.772 9.55169 14.6241C9.55436 14.6214 9.55699 14.6187 9.5596 14.616L15.666 8.50966C15.9072 8.26846 15.9072 7.87738 15.666 7.63618Z" fill="#47525D"/>
</svg>
