<svg width="29" height="24" viewBox="0 0 29 24" fill="none" xmlns="http://www.w3.org/2000/svg">
<path fill-rule="evenodd" clip-rule="evenodd" d="M25.5837 3.79458C26.8127 3.04572 27.7557 1.85829 28.2 0.44377C27.0493 1.13716 25.7778 1.6416 24.4194 1.91202C23.3369 0.734994 21.7896 0 20.0772 0C16.7937 0 14.1298 2.71289 14.1298 6.0585C14.1298 6.53347 14.1808 6.99458 14.283 7.43835C9.33815 7.18526 4.95504 4.77573 2.01878 1.10596C1.50643 2.0039 1.21365 3.04572 1.21365 4.15514C1.21365 6.25611 2.2639 8.11094 3.86054 9.19782C2.88689 9.16835 1.96772 8.89273 1.16429 8.44203V8.51657C1.16429 11.4531 3.21541 13.9025 5.9389 14.4572C5.44016 14.5993 4.91419 14.6704 4.37119 14.6704C3.9882 14.6704 3.61372 14.634 3.25116 14.5629C4.00863 16.969 6.20444 18.7215 8.80877 18.7683C6.77296 20.3943 4.20608 21.3634 1.41962 21.3634C0.939602 21.3634 0.464694 21.3356 0 21.2802C2.63327 22.9963 5.76187 24 9.12027 24C20.0653 24 26.0484 14.7692 26.0484 6.76229C26.0484 6.4988 26.0433 6.23531 26.0331 5.97703C27.1957 5.12242 28.2051 4.05633 29 2.84117C27.9344 3.32307 26.7872 3.64897 25.5837 3.79458Z" fill="#00AAEC"/>
</svg>
