<svg width="34" height="43" viewBox="0 0 34 43" fill="none" xmlns="http://www.w3.org/2000/svg">
<path fill-rule="evenodd" clip-rule="evenodd" d="M9.375 2.1875C9.375 1.08293 10.2704 0.1875 11.375 0.1875H21.875C22.9796 0.1875 23.875 1.08293 23.875 2.1875V6.74719H21.875V2.1875L11.375 2.1875V5.82058V9.91724H30.25C31.9069 9.91724 33.25 11.2604 33.25 12.9172V27.4495C33.25 29.1064 31.9069 30.4496 30.25 30.4496H24.4375V28.4496H30.25C30.8023 28.4496 31.25 28.0018 31.25 27.4495V18.4044H24.4375V16.4044H31.25V12.9172C31.25 12.365 30.8023 11.9172 30.25 11.9172H3C2.44772 11.9172 2 12.365 2 12.9172V16.4044H8.8125V18.4044H2V27.4496C2 28.0018 2.44772 28.4496 3 28.4496H8.8125V30.4496H3C1.34315 30.4496 0 29.1064 0 27.4496V12.9172C0 11.2604 1.34314 9.91724 3 9.91724H9.375V5.82058V2.1875ZM12.8529 14.7826C11.6664 14.7826 10.9496 16.0949 11.5908 17.0932L13.9259 20.7288C13.948 20.7632 13.9711 20.7968 13.9951 20.8296L11.6695 30.9893L11.4089 31.1516L11.5723 31.414L10.9627 34.077L10.861 34.5213L11.1297 34.8895L15.8172 41.314L16.625 42.4212L17.4328 41.314L22.1203 34.8895L22.389 34.5213L22.2873 34.077L19.2549 20.8296C19.2789 20.7968 19.302 20.7632 19.3241 20.7288L21.6592 17.0932C22.3004 16.0949 21.5836 14.7826 20.3971 14.7826H12.8529ZM13.4333 32.247L13.014 34.0789L16.625 39.028L20.236 34.0789L19.0202 28.7676L13.4333 32.247ZM18.5482 26.7055L17.3905 21.6479H15.8595L14.0623 29.4992L18.5482 26.7055ZM15.6087 19.648L13.7683 16.7826H19.4817L17.6413 19.6479L15.6087 19.648Z" fill="#47525D"/>
</svg>
