<svg width="526" height="337" viewBox="0 0 526 337" fill="none" xmlns="http://www.w3.org/2000/svg">
<path fill-rule="evenodd" clip-rule="evenodd" d="M260.275 32.8095C292.054 30.1145 308.367 53.7908 338.557 57.1338C375.092 61.1795 428.03 37.5053 451.403 53.974C474.279 70.0917 427.979 99.4773 430.671 122.037C433.313 144.169 521.61 167.687 513.585 190.289C505.689 212.53 468.796 218.467 438.143 233.043C408.308 247.231 386.2 288.236 350.914 292.837C315.929 297.398 219.37 280.256 191.176 270.102C163.975 260.305 59.1259 296.558 36.594 283.237C9.44375 267.184 63.0214 197.335 48.4275 175.517C34.2137 154.268 47.0624 124.31 73.1659 103.82C99.0234 83.5226 146.89 83.8439 182.368 70.3794C210.761 59.6039 228.8 35.4788 260.275 32.8095Z" fill="white"/>
</svg>
