<svg width="52" height="52" viewBox="0 0 52 52" fill="none" xmlns="http://www.w3.org/2000/svg">
<g id="volumeicon">
<path id="Bounding Circle" d="M51.1125 26.177C51.1125 12.2668 39.836 0.990234 25.9257 0.990234C12.0154 0.990234 0.738892 12.2668 0.738892 26.177C0.738892 40.0873 12.0154 51.3638 25.9257 51.3638C39.836 51.3638 51.1125 40.0873 51.1125 26.177Z" stroke="white" stroke-width="1.26126"/>
<path id="Vibe 3" d="M36.8581 12.5525C37.0054 12.7882 37.1699 13.0652 37.3474 13.3814C37.8559 14.2872 38.3649 15.323 38.8402 16.4708C41.7773 23.5648 42.0647 31.0508 37.9946 38.0545C37.5981 38.7368 37.1612 39.41 36.683 40.0737L37.3023 40.5198C37.795 39.836 38.2454 39.1419 38.6545 38.438C42.8619 31.1982 42.5653 23.4726 39.5453 16.1788C39.058 15.0019 38.5357 13.9391 38.0129 13.0078C37.8295 12.681 37.6588 12.3936 37.5053 12.148C37.4123 11.9991 37.345 11.8963 37.3078 11.8418L36.6775 12.2722C36.709 12.3184 36.7706 12.4125 36.8581 12.5525Z" fill="white"/>
<path id="Vibe 2" d="M32.6041 17.0449C32.7067 17.209 32.8214 17.4022 32.9452 17.6228C33.3005 18.2555 33.6562 18.9794 33.9883 19.7816C36.04 24.7368 36.2406 29.9617 33.4009 34.8481C33.1241 35.3243 32.8191 35.7943 32.4853 36.2577L33.1045 36.7038C33.4529 36.2203 33.7715 35.7294 34.0608 35.2316C37.0377 30.109 36.8279 24.6447 34.6935 19.4896C34.3493 18.6582 33.9803 17.9074 33.6108 17.2492C33.481 17.0179 33.3602 16.8145 33.2514 16.6404C33.1852 16.5345 33.1371 16.461 33.11 16.4214L32.4797 16.8518C32.501 16.883 32.5435 16.9479 32.6041 17.0449Z" fill="white"/>
<path id="Vibe 1" d="M28.543 21.101C28.7449 21.4607 28.9473 21.8725 29.1364 22.3292C30.3025 25.1457 30.4163 28.1094 28.807 30.8785C28.65 31.1487 28.4769 31.4154 28.2874 31.6785L28.9066 32.1246C29.1107 31.8414 29.2974 31.5538 29.4669 31.262C31.2134 28.2567 31.0904 25.0536 29.8415 22.0372C29.6404 21.5514 29.4247 21.1125 29.2085 20.7274C29.0774 20.4938 28.974 20.3283 28.9122 20.2378L28.2819 20.6682C28.3315 20.7409 28.4232 20.8876 28.543 21.101Z" fill="white"/>
<path id="Speaker" fill-rule="evenodd" clip-rule="evenodd" d="M9.89771 21.2162V20.8345H10.2793H17.0196L24.9312 14.8067L25.5439 14.3398L25.5441 15.1102L25.5478 37.2441L25.5479 38.0145L24.935 37.5477L17.0197 31.5199H10.2793H9.89771V31.1382V21.2162ZM17.2773 21.5978H17.1485H10.6609V21.2162L10.2793 21.5978H10.6609V30.7566H10.2793L10.6609 31.1382V30.7566H17.1485H17.2772L17.3797 30.8346L24.7844 36.4737L24.7845 37.2442L25.3974 36.9405L24.7844 36.4737L24.7809 15.8807L25.3937 15.4138L24.7808 15.1103L24.7809 15.8807L17.3797 21.5197L17.2773 21.5978Z" fill="white"/>
</g>
</svg>
