<svg width="24" height="17" viewBox="0 0 24 17" fill="none" xmlns="http://www.w3.org/2000/svg">
<path fill-rule="evenodd" clip-rule="evenodd" d="M9.522 11.6349L9.52125 4.84384L16.0058 8.25109L9.522 11.6349ZM23.76 3.66708C23.76 3.66708 23.5252 2.0016 22.806 1.26818C21.8932 0.305149 20.8703 0.300617 20.4015 0.244724C17.043 0 12.0052 0 12.0052 0H11.9948C11.9948 0 6.957 0 3.5985 0.244724C3.129 0.300617 2.10675 0.305149 1.19325 1.26818C0.474 2.0016 0.24 3.66708 0.24 3.66708C0.24 3.66708 0 5.62336 0 7.57888V9.41279C0 11.3691 0.24 13.3246 0.24 13.3246C0.24 13.3246 0.474 14.9901 1.19325 15.7235C2.10675 16.6865 3.306 16.6563 3.84 16.7568C5.76 16.9426 12 17 12 17C12 17 17.043 16.9924 20.4015 16.7477C20.8703 16.6911 21.8932 16.6865 22.806 15.7235C23.5252 14.9901 23.76 13.3246 23.76 13.3246C23.76 13.3246 24 11.3691 24 9.41279V7.57888C24 5.62336 23.76 3.66708 23.76 3.66708Z" fill="#CE1312"/>
</svg>
