<svg width="80" height="80" viewBox="0 0 80 80" fill="none" xmlns="http://www.w3.org/2000/svg">
<g id="audiocall">
<rect id="Rectangle" x="1" y="1" width="78" height="78" rx="39" stroke="white" stroke-width="2"/>
<g id="listaudiocallicon">
<g id="Group 2">
<path id="Fill 3" fill-rule="evenodd" clip-rule="evenodd" d="M53.1046 52.0436L46.5657 45.5662L48.2662 43.8823L54.8051 50.3592C54.8051 50.3592 53.1051 52.0441 53.1046 52.0436ZM50.7762 52.8993C49.336 54.3259 46.7907 54.5615 43.6089 53.5628C40.2031 52.4937 36.5651 50.1595 33.3653 46.99C30.1654 43.8204 27.8089 40.2169 26.7301 36.8439C25.7218 33.6923 25.9596 31.1706 27.3994 29.7436H27.3999L27.5801 29.5646L32.6545 34.5914L32.1892 35.0527C32.1892 35.0532 32.1887 35.0537 32.1882 35.0537C30.2603 36.9657 32.5768 41.261 35.8629 44.516C38.3224 46.9522 41.3702 48.8505 43.5575 48.8505C44.2931 48.8505 44.9309 48.6356 45.4172 48.1549C45.4172 48.1544 45.4172 48.1544 45.4172 48.1544L45.8825 47.6936L50.9569 52.7203L50.7762 52.8993ZM29.9638 25.7534L36.5032 32.2303L34.8036 33.9156L34.8026 33.9147L34.7783 33.8906L31.5327 30.6762L28.2637 27.4378L29.9638 25.7534ZM49.6816 42.4798C48.9012 41.7068 47.6312 41.7068 46.8508 42.4798L45.1502 44.1642C44.6172 44.6921 44.4489 45.4453 44.6435 46.1164L44.0018 46.752C44.0018 46.7524 44.0018 46.7524 44.0013 46.7524C43.546 47.2043 40.7085 46.5111 37.2783 43.114C33.8492 39.7168 33.1493 36.9067 33.6046 36.4548L34.2468 35.8187C34.4284 35.8702 34.6153 35.8966 34.8022 35.8966C35.3151 35.8966 35.8276 35.703 36.2181 35.3167L37.9186 33.6328C38.699 32.8593 38.699 31.6018 37.9186 30.8283L31.3792 24.3513C31.0011 23.9769 30.4987 23.7705 29.9638 23.7705C29.4289 23.7705 28.9269 23.9769 28.5483 24.3513L26.8478 26.0357C26.3153 26.5637 26.147 27.3173 26.341 27.9884C26.341 27.9884 25.7976 28.5319 25.7704 28.5664C23.9616 30.5577 23.6222 33.6937 24.8212 37.4426C25.9959 41.1137 28.5274 45.0019 31.9498 48.392C35.3723 51.7816 39.2983 54.2895 43.004 55.453C44.4928 55.9201 45.8854 56.1515 47.1501 56.1515C49.2235 56.1515 50.9526 55.5286 52.1916 54.3013L52.5482 53.9476C52.727 53.9991 52.9134 54.026 53.1046 54.026C53.6395 54.026 54.142 53.8201 54.52 53.4457L56.2206 51.7608C57.001 50.9882 57.001 49.7302 56.2206 48.9567L49.6816 42.4798Z" fill="white"/>
<path id="Fill 5" fill-rule="evenodd" clip-rule="evenodd" d="M49.8884 37.8442C49.8884 38.3029 50.2789 38.6754 50.7608 38.6754C51.2423 38.6754 51.6329 38.3029 51.6329 37.8442C51.6329 35.6091 50.7193 33.5077 49.0604 31.9273C47.4016 30.3468 45.196 29.4761 42.85 29.4761C42.3681 29.4761 41.9775 29.8481 41.9775 30.3073C41.9775 30.766 42.3681 31.1381 42.85 31.1381C44.7298 31.1381 46.4971 31.8355 47.827 33.1024C49.1564 34.369 49.8884 36.0532 49.8884 37.8442Z" fill="white"/>
<path id="Fill 7" fill-rule="evenodd" clip-rule="evenodd" d="M52.1116 27.8653C49.2365 25.2247 45.4137 23.7705 41.3482 23.7705C40.7928 23.7705 40.3428 24.1843 40.3428 24.6939C40.3428 25.2036 40.7928 25.6174 41.3482 25.6174C44.877 25.617 48.1946 26.879 50.6901 29.1709C53.1851 31.4628 54.5592 34.5093 54.5592 37.7501C54.5592 38.2606 55.0093 38.6735 55.5647 38.6735C56.1197 38.6735 56.5697 38.2606 56.5697 37.7501C56.5702 34.0163 54.9863 30.5059 52.1116 27.8653Z" fill="white"/>
<path id="Fill 9" fill-rule="evenodd" clip-rule="evenodd" d="M42.7644 34.1499C42.3297 34.1499 41.9775 34.4875 41.9775 34.905C41.9779 35.3217 42.3301 35.6597 42.7644 35.6593H42.7648C43.4122 35.6593 43.9735 35.8823 44.4318 36.3224C44.8833 36.756 45.1219 37.309 45.1219 37.922C45.1219 38.3388 45.4742 38.6771 45.9088 38.6771C46.3431 38.6771 46.6953 38.3388 46.6953 37.922C46.6956 36.8998 46.2973 35.9779 45.5438 35.2545C44.7907 34.5318 43.8296 34.1499 42.7644 34.1499Z" fill="white"/>
</g>
</g>
</g>
</svg>
