<svg width="80" height="80" viewBox="0 0 80 80" fill="none" xmlns="http://www.w3.org/2000/svg">
<g id="chat">
<rect id="Rectangle" x="1" y="1" width="78" height="78" rx="39" stroke="white" stroke-width="2"/>
<g id="listchaticon">
<g id="Group 3">
<path id="Stroke 3" fill-rule="evenodd" clip-rule="evenodd" d="M34.0918 48.577C34.5034 48.2599 35.7221 48.2419 36.5649 48.2419C44.7485 48.2419 51.3827 42.844 51.3827 36.1852C51.3827 29.5263 44.7485 24.1284 36.5649 24.1284C28.3813 24.1284 21.7471 29.5263 21.7471 36.1852C21.7471 40.1016 24.0418 43.582 27.5973 45.7838C27.5973 45.7838 28.6252 50.3382 24.3766 52.3202C25.0456 52.3202 28.6861 52.7411 34.0918 48.577Z" stroke="white" stroke-width="2"/>
<path id="Fill 5" fill-rule="evenodd" clip-rule="evenodd" d="M36.9375 51.3014C36.9375 51.3014 53.6146 52.2784 54.5676 35.1807C54.5676 35.1807 57.1883 36.4019 57.6648 42.264C57.6648 42.264 57.6648 48.6146 53.3764 51.5456C53.3764 51.5456 53.6146 54.2324 55.9971 56.6749C55.9971 56.6749 51.4704 56.9192 47.182 53.4996C47.182 53.4996 43.6083 54.2324 36.9375 51.3014Z" fill="white"/>
</g>
</g>
</g>
</svg>
