<svg width="39" height="42" viewBox="0 0 39 42" fill="none" xmlns="http://www.w3.org/2000/svg">
<path fill-rule="evenodd" clip-rule="evenodd" d="M19.7898 10.4035C19.7898 10.4035 3.507 1.36986 2.55068 0.83912C1.59278 0.308385 0.639648 0.630333 0.639648 1.73962C0.639648 3.58842 0.639648 21.0246 0.639648 21.0246C0.639648 21.0246 0.639648 39.8697 0.639648 40.7016C0.639648 41.532 1.32068 41.8922 2.15288 41.4316C2.98349 40.971 19.7898 31.6457 19.7898 31.6457C19.7898 31.6457 22.0729 30.3797 23.2144 29.7467C25.0516 28.728 28.726 26.6905 28.726 26.6905C28.726 26.6905 36.3081 22.4829 37.3169 21.9251C38.3241 21.3657 38.2271 20.599 37.3774 20.1576C36.5261 19.7177 28.726 15.3602 28.726 15.3602L19.7898 10.4035Z" fill="url(#paint0_linear)"/>
<path fill-rule="evenodd" clip-rule="evenodd" d="M22.7968 20.9601L1.38583 0.640137C0.886313 0.756327 0.586914 1.13048 0.586914 1.76014C0.586914 3.59973 0.586914 21.0338 0.586914 20.9601C0.586914 21.0338 0.586914 39.8767 0.586914 40.6401C0.586914 41.1744 0.801978 41.4922 1.06626 41.6001L22.7968 20.9601Z" fill="url(#paint1_linear)"/>
<mask id="mask0" mask-type="alpha" maskUnits="userSpaceOnUse" x="0" y="0" width="23" height="42">
<path fill-rule="evenodd" clip-rule="evenodd" d="M22.7968 20.9601L1.38583 0.640137C0.886313 0.756327 0.586914 1.13048 0.586914 1.76014C0.586914 3.59973 0.586914 21.0338 0.586914 20.9601C0.586914 21.0338 0.586914 39.8767 0.586914 40.6401C0.586914 41.1744 0.801978 41.4922 1.06626 41.6001L22.7968 20.9601Z" fill="white"/>
</mask>
<g mask="url(#mask0)">
</g>
<mask id="mask1" mask-type="alpha" maskUnits="userSpaceOnUse" x="1" y="20" width="28" height="22">
<path fill-rule="evenodd" clip-rule="evenodd" d="M1.94799 41.486L14.3235 34.6784C17.3711 32.9875 19.7896 31.6455 19.7896 31.6455L28.7893 26.7915L22.7977 20.9616L1.06747 41.6042C1.30967 41.6822 1.73656 41.6396 2.06961 41.475" fill="white"/>
</mask>
<g mask="url(#mask1)">
<path fill-rule="evenodd" clip-rule="evenodd" d="M19.7609 10.3996C19.7296 10.4718 3.45314 1.42158 2.50431 0.959648C1.53967 0.358162 0.586914 0.680701 0.586914 1.75965C0.586914 3.64422 0.586914 21.1124 0.586914 21.1196C0.586914 21.1124 0.586914 39.9921 0.586914 40.7996C0.586914 41.6575 1.26768 42.0183 2.02496 41.5996C2.92984 41.0954 19.7296 31.753 19.7609 31.6796L28.7088 26.7196C28.6623 26.7888 36.2414 22.5734 37.1773 22.0796C38.2567 21.4541 38.1597 20.6861 37.3371 20.3196C36.4593 19.8031 28.6623 15.4376 28.7088 15.3596L19.7609 10.3996Z" fill="url(#paint2_linear)"/>
</g>
<path fill-rule="evenodd" clip-rule="evenodd" d="M2.52116 0.823395C2.10898 0.602343 1.69945 0.539108 1.36816 0.628481L22.7969 20.978L28.7253 15.3602L19.7891 10.4035C19.7891 10.4035 11.3664 5.73064 6.28079 2.90906L2.52116 0.823395Z" fill="url(#paint3_linear)"/>
<mask id="mask2" mask-type="alpha" maskUnits="userSpaceOnUse" x="1" y="0" width="28" height="21">
<path fill-rule="evenodd" clip-rule="evenodd" d="M2.52116 0.823395C2.10898 0.602343 1.69945 0.539108 1.36816 0.628481L22.7969 20.978L28.7253 15.3602L19.7891 10.4035C19.7891 10.4035 11.3664 5.73064 6.28079 2.90906L2.52116 0.823395Z" fill="white"/>
</mask>
<g mask="url(#mask2)">
</g>
<defs>
<linearGradient id="paint0_linear" x1="13.0866" y1="11.0901" x2="26.7124" y2="31.0057" gradientUnits="userSpaceOnUse">
<stop stop-color="#FF177B"/>
<stop offset="1" stop-color="#FFEC73"/>
</linearGradient>
<linearGradient id="paint1_linear" x1="-7.28531" y1="-24.9954" x2="-31.7127" y2="26.802" gradientUnits="userSpaceOnUse">
<stop stop-color="#064AA2"/>
<stop offset="1" stop-color="#63FFD4"/>
</linearGradient>
<linearGradient id="paint2_linear" x1="20.6445" y1="5.54318" x2="-9.39503" y2="23.4776" gradientUnits="userSpaceOnUse">
<stop stop-color="#FF4521"/>
<stop offset="1" stop-color="#8A33DB"/>
</linearGradient>
<linearGradient id="paint3_linear" x1="-15.5975" y1="2.19989" x2="-4.88136" y2="30.0622" gradientUnits="userSpaceOnUse">
<stop stop-color="#00A3B5"/>
<stop offset="1" stop-color="#D6FFA1"/>
</linearGradient>
</defs>
</svg>
