<svg width="80" height="80" viewBox="0 0 80 80" fill="none" xmlns="http://www.w3.org/2000/svg">
<g id="temporarychat">
<rect id="Rectangle" x="1" y="1" width="78" height="78" rx="39" stroke="white" stroke-width="2"/>
<g id="Group 3">
<g id="Group 9">
<path id="Stroke 3" fill-rule="evenodd" clip-rule="evenodd" d="M37.1627 52.4731C37.6349 52.091 39.0331 52.0692 40 52.0692C49.3888 52.0692 57 45.5619 57 37.5346C57 29.5073 49.3888 23 40 23C30.6112 23 23 29.5073 23 37.5346C23 42.2559 25.6326 46.4516 29.7117 49.106C29.7117 49.106 30.891 54.5963 26.0167 56.9857C26.7843 56.9857 30.9609 57.493 37.1627 52.4731Z" stroke="white" stroke-width="2.02314"/>
<g id="Group 8">
<rect id="Rectangle_2" x="40" y="33.0454" width="1.54545" height="6.18182" rx="0.772727" fill="white"/>
<rect id="Rectangle_3" x="33.0452" y="30.7273" width="13.9091" height="13.9091" rx="6.95455" stroke="white" stroke-width="1.54545"/>
<rect id="Rectangle_4" x="36.9092" y="37.6816" width="4.63636" height="1.54545" rx="0.772727" fill="white"/>
</g>
</g>
</g>
</g>
</svg>
