<svg width="127" height="18" viewBox="0 0 127 18" fill="none" xmlns="http://www.w3.org/2000/svg">
<path d="M9.83496 8.75293C9.83496 9.64941 9.58008 10.335 9.07031 10.8096C8.56641 11.2783 7.85156 11.5127 6.92578 11.5127C6.00586 11.5127 5.26758 11.2051 4.71094 10.5898C4.16016 9.96875 3.88477 9.125 3.88477 8.05859V7.0918C3.88477 6.06055 4.16309 5.2373 4.71973 4.62207C5.28223 4.00098 6.01758 3.69043 6.92578 3.69043C7.86328 3.69043 8.58398 3.93066 9.08789 4.41113C9.5918 4.8916 9.84375 5.56836 9.84375 6.44141H8.56055C8.56055 5.86133 8.41992 5.44824 8.13867 5.20215C7.86328 4.9502 7.45898 4.82422 6.92578 4.82422C6.375 4.82422 5.94141 5.02637 5.625 5.43066C5.30859 5.83496 5.15039 6.39746 5.15039 7.11816V8.11133C5.15039 8.81445 5.30859 9.36816 5.625 9.77246C5.94141 10.1768 6.375 10.3789 6.92578 10.3789C7.46484 10.3789 7.86914 10.2559 8.13867 10.0098C8.41406 9.76367 8.55176 9.34473 8.55176 8.75293H9.83496ZM1.81055 7.59277C1.81055 8.60059 2.04492 9.53516 2.51367 10.3965C2.98242 11.252 3.61816 11.9229 4.4209 12.4092C5.22949 12.8955 6.10254 13.1387 7.04004 13.1387C7.97754 13.1387 8.84766 12.8955 9.65039 12.4092C10.4531 11.9229 11.0889 11.252 11.5576 10.3965C12.0264 9.53516 12.2607 8.60059 12.2607 7.59277C12.2607 6.59668 12.0293 5.67383 11.5664 4.82422C11.1035 3.97461 10.4678 3.30664 9.65918 2.82031C8.85645 2.32812 7.9834 2.08203 7.04004 2.08203C6.10254 2.08203 5.22949 2.3252 4.4209 2.81152C3.6123 3.29199 2.97363 3.95996 2.50488 4.81543C2.04199 5.6709 1.81055 6.59668 1.81055 7.59277ZM0.799805 7.59277C0.799805 6.40918 1.07227 5.31055 1.61719 4.29688C2.16797 3.2832 2.92676 2.48633 3.89355 1.90625C4.86621 1.32031 5.91504 1.02734 7.04004 1.02734C8.16504 1.02734 9.21094 1.32031 10.1777 1.90625C11.1445 2.48633 11.9004 3.2832 12.4453 4.29688C12.9961 5.31055 13.2715 6.40918 13.2715 7.59277C13.2715 8.74707 13.0078 9.82812 12.4805 10.8359C11.9531 11.8438 11.2031 12.6553 10.2305 13.2705C9.26367 13.8799 8.2002 14.1846 7.04004 14.1846C5.88574 14.1846 4.82227 13.8828 3.84961 13.2793C2.88281 12.6699 2.13281 11.8613 1.59961 10.8535C1.06641 9.8457 0.799805 8.75879 0.799805 7.59277ZM28.0635 14H19.6787V12.8311L24.1084 7.90918C24.7646 7.16504 25.2158 6.56152 25.4619 6.09863C25.7139 5.62988 25.8398 5.14648 25.8398 4.64844C25.8398 3.98047 25.6377 3.43262 25.2334 3.00488C24.8291 2.57715 24.29 2.36328 23.6162 2.36328C22.8076 2.36328 22.1777 2.59473 21.7266 3.05762C21.2812 3.51465 21.0586 4.15332 21.0586 4.97363H19.4326C19.4326 3.7959 19.8105 2.84375 20.5664 2.11719C21.3281 1.39062 22.3447 1.02734 23.6162 1.02734C24.8057 1.02734 25.7461 1.34082 26.4375 1.96777C27.1289 2.58887 27.4746 3.41797 27.4746 4.45508C27.4746 5.71484 26.6719 7.21484 25.0664 8.95508L21.6387 12.6729H28.0635V14ZM37.8105 8.54199C37.8105 10.4463 37.4854 11.8613 36.835 12.7871C36.1846 13.7129 35.168 14.1758 33.7852 14.1758C32.4199 14.1758 31.4092 13.7246 30.7529 12.8223C30.0967 11.9141 29.7568 10.5605 29.7334 8.76172V6.59082C29.7334 4.70996 30.0586 3.3125 30.709 2.39844C31.3594 1.48438 32.3789 1.02734 33.7676 1.02734C35.1445 1.02734 36.1582 1.46973 36.8086 2.35449C37.459 3.2334 37.793 4.59277 37.8105 6.43262V8.54199ZM36.1846 6.31836C36.1846 4.94141 35.9912 3.93945 35.6045 3.3125C35.2178 2.67969 34.6055 2.36328 33.7676 2.36328C32.9355 2.36328 32.3291 2.67676 31.9482 3.30371C31.5674 3.93066 31.3711 4.89453 31.3594 6.19531V8.79688C31.3594 10.1797 31.5586 11.2021 31.957 11.8643C32.3613 12.5205 32.9707 12.8486 33.7852 12.8486C34.5879 12.8486 35.1826 12.5381 35.5693 11.917C35.9619 11.2959 36.167 10.3174 36.1846 8.98145V6.31836ZM48.2783 14H39.8936V12.8311L44.3232 7.90918C44.9795 7.16504 45.4307 6.56152 45.6768 6.09863C45.9287 5.62988 46.0547 5.14648 46.0547 4.64844C46.0547 3.98047 45.8525 3.43262 45.4482 3.00488C45.0439 2.57715 44.5049 2.36328 43.8311 2.36328C43.0225 2.36328 42.3926 2.59473 41.9414 3.05762C41.4961 3.51465 41.2734 4.15332 41.2734 4.97363H39.6475C39.6475 3.7959 40.0254 2.84375 40.7812 2.11719C41.543 1.39062 42.5596 1.02734 43.8311 1.02734C45.0205 1.02734 45.9609 1.34082 46.6523 1.96777C47.3438 2.58887 47.6895 3.41797 47.6895 4.45508C47.6895 5.71484 46.8867 7.21484 45.2812 8.95508L41.8535 12.6729H48.2783V14ZM58.0254 8.54199C58.0254 10.4463 57.7002 11.8613 57.0498 12.7871C56.3994 13.7129 55.3828 14.1758 54 14.1758C52.6348 14.1758 51.624 13.7246 50.9678 12.8223C50.3115 11.9141 49.9717 10.5605 49.9482 8.76172V6.59082C49.9482 4.70996 50.2734 3.3125 50.9238 2.39844C51.5742 1.48438 52.5938 1.02734 53.9824 1.02734C55.3594 1.02734 56.373 1.46973 57.0234 2.35449C57.6738 3.2334 58.0078 4.59277 58.0254 6.43262V8.54199ZM56.3994 6.31836C56.3994 4.94141 56.2061 3.93945 55.8193 3.3125C55.4326 2.67969 54.8203 2.36328 53.9824 2.36328C53.1504 2.36328 52.5439 2.67676 52.1631 3.30371C51.7822 3.93066 51.5859 4.89453 51.5742 6.19531V8.79688C51.5742 10.1797 51.7734 11.2021 52.1719 11.8643C52.5762 12.5205 53.1855 12.8486 54 12.8486C54.8027 12.8486 55.3975 12.5381 55.7842 11.917C56.1768 11.2959 56.3818 10.3174 56.3994 8.98145V6.31836ZM74.8301 14H73.1338V8.08496H66.6826V14H64.9951V1.20312H66.6826V6.70508H73.1338V1.20312H74.8301V14ZM79.3389 14H77.7129V4.49023H79.3389V14ZM77.5811 1.96777C77.5811 1.7041 77.6602 1.48145 77.8184 1.2998C77.9824 1.11816 78.2227 1.02734 78.5391 1.02734C78.8555 1.02734 79.0957 1.11816 79.2598 1.2998C79.4238 1.48145 79.5059 1.7041 79.5059 1.96777C79.5059 2.23145 79.4238 2.45117 79.2598 2.62695C79.0957 2.80273 78.8555 2.89062 78.5391 2.89062C78.2227 2.89062 77.9824 2.80273 77.8184 2.62695C77.6602 2.45117 77.5811 2.23145 77.5811 1.96777ZM91.6172 9.93945C91.459 11.293 90.958 12.3389 90.1143 13.0771C89.2764 13.8096 88.1602 14.1758 86.7656 14.1758C85.2539 14.1758 84.041 13.6338 83.127 12.5498C82.2188 11.4658 81.7646 10.0156 81.7646 8.19922V6.96875C81.7646 5.7793 81.9756 4.7334 82.3975 3.83105C82.8252 2.92871 83.4287 2.2373 84.208 1.75684C84.9873 1.27051 85.8896 1.02734 86.915 1.02734C88.2744 1.02734 89.3643 1.4082 90.1846 2.16992C91.0049 2.92578 91.4824 3.97461 91.6172 5.31641H89.9209C89.7744 4.29688 89.4551 3.55859 88.9629 3.10156C88.4766 2.64453 87.7939 2.41602 86.915 2.41602C85.8369 2.41602 84.9902 2.81445 84.375 3.61133C83.7656 4.4082 83.4609 5.54199 83.4609 7.0127V8.25195C83.4609 9.64062 83.751 10.7451 84.3311 11.5654C84.9111 12.3857 85.7227 12.7959 86.7656 12.7959C87.7031 12.7959 88.4209 12.585 88.9189 12.1631C89.4229 11.7354 89.7568 10.9941 89.9209 9.93945H91.6172ZM95.2998 5.6416C96.0205 4.75684 96.958 4.31445 98.1123 4.31445C100.122 4.31445 101.136 5.44824 101.153 7.71582V14H99.5273V7.70703C99.5215 7.02148 99.3633 6.51465 99.0527 6.18652C98.748 5.8584 98.2705 5.69434 97.6201 5.69434C97.0928 5.69434 96.6299 5.83496 96.2314 6.11621C95.833 6.39746 95.5225 6.7666 95.2998 7.22363V14H93.6738V0.5H95.2998V5.6416ZM109.459 14C109.365 13.8125 109.289 13.4785 109.23 12.998C108.475 13.7832 107.572 14.1758 106.523 14.1758C105.586 14.1758 104.815 13.9121 104.212 13.3848C103.614 12.8516 103.315 12.1777 103.315 11.3633C103.315 10.373 103.69 9.60547 104.44 9.06055C105.196 8.50977 106.257 8.23438 107.622 8.23438H109.204V7.4873C109.204 6.91895 109.034 6.46777 108.694 6.13379C108.354 5.79395 107.854 5.62402 107.191 5.62402C106.611 5.62402 106.125 5.77051 105.732 6.06348C105.34 6.35645 105.144 6.71094 105.144 7.12695H103.509C103.509 6.65234 103.676 6.19531 104.01 5.75586C104.35 5.31055 104.807 4.95898 105.381 4.70117C105.961 4.44336 106.597 4.31445 107.288 4.31445C108.384 4.31445 109.242 4.58984 109.863 5.14062C110.484 5.68555 110.807 6.43848 110.83 7.39941V11.7764C110.83 12.6494 110.941 13.3438 111.164 13.8594V14H109.459ZM106.761 12.7607C107.271 12.7607 107.754 12.6289 108.211 12.3652C108.668 12.1016 108.999 11.7588 109.204 11.3369V9.38574H107.93C105.938 9.38574 104.941 9.96875 104.941 11.1348C104.941 11.6445 105.111 12.043 105.451 12.3301C105.791 12.6172 106.228 12.7607 106.761 12.7607ZM115.585 2.1875V4.49023H117.36V5.74707H115.585V11.6445C115.585 12.0254 115.664 12.3125 115.822 12.5059C115.98 12.6934 116.25 12.7871 116.631 12.7871C116.818 12.7871 117.076 12.752 117.404 12.6816V14C116.977 14.1172 116.561 14.1758 116.156 14.1758C115.43 14.1758 114.882 13.9561 114.513 13.5166C114.144 13.0771 113.959 12.4531 113.959 11.6445V5.74707H112.228V4.49023H113.959V2.1875H115.585ZM122.379 11.6182L124.594 4.49023H126.334L122.511 15.4678C121.919 17.0498 120.979 17.8408 119.689 17.8408L119.382 17.8145L118.775 17.7002V16.3818L119.215 16.417C119.766 16.417 120.193 16.3057 120.498 16.083C120.809 15.8604 121.063 15.4531 121.263 14.8613L121.623 13.8945L118.23 4.49023H120.006L122.379 11.6182Z" fill="#4A4A4A"/>
</svg>
