<svg width="25" height="24" viewBox="0 0 25 24" fill="none" xmlns="http://www.w3.org/2000/svg">
<path fill-rule="evenodd" clip-rule="evenodd" d="M18.9995 18.2687L15.6386 14.908L16.5126 14.0344L19.8735 17.3948C19.8735 17.3948 18.9997 18.2689 18.9995 18.2687ZM7.10544 4.62891L10.4666 7.9893L9.59305 8.8637L9.59256 8.86321L9.58006 8.85071L7.91186 7.18301L6.23164 5.50281L7.10544 4.62891ZM17.2404 13.3069C16.8392 12.9059 16.1865 12.9059 15.7853 13.3069L14.9113 14.1808C14.6373 14.4547 14.5508 14.8455 14.6508 15.1936L14.321 15.5234C14.321 15.5237 14.321 15.5237 14.3208 15.5237C14.0867 15.7581 12.6283 15.3985 10.8652 13.636C9.1027 11.8734 8.74299 10.4155 8.977 10.181L9.30706 9.85098C9.40042 9.87768 9.49648 9.8914 9.59253 9.8914C9.85619 9.8914 10.1196 9.79095 10.3203 9.59054L11.1943 8.71688C11.5955 8.31557 11.5955 7.66314 11.1943 7.26184L7.83317 3.90145C7.63886 3.70716 7.38059 3.6001 7.10566 3.6001C6.83073 3.6001 6.5727 3.70716 6.37814 3.90145L5.5041 4.77535C5.23039 5.04926 5.1439 5.44028 5.24362 5.78842C5.24362 5.78842 4.96428 6.07041 4.95032 6.0883C4.02065 7.12145 3.84618 8.74848 4.46245 10.6935C5.06622 12.5981 6.36736 14.6155 8.12648 16.3743C9.88559 18.1329 11.9035 19.4341 13.8081 20.0377C14.5734 20.28 15.2891 20.4001 15.9392 20.4001C17.0049 20.4001 17.8936 20.0769 18.5305 19.4402L18.7138 19.2567C18.8057 19.2834 18.9015 19.2974 18.9997 19.2974C19.2747 19.2974 19.5329 19.1905 19.7272 18.9963L20.6013 18.1221C21.0024 17.7213 21.0024 17.0686 20.6013 16.6673L17.2404 13.3069Z" fill="#47525D"/>
<path fill-rule="evenodd" clip-rule="evenodd" d="M17.3466 10.9016C17.3466 11.1396 17.5473 11.3329 17.795 11.3329C18.0425 11.3329 18.2432 11.1396 18.2432 10.9016C18.2432 9.742 17.7737 8.65178 16.921 7.83181C16.0684 7.01183 14.9347 6.56006 13.7289 6.56006C13.4812 6.56006 13.2805 6.75309 13.2805 6.9913C13.2805 7.2293 13.4812 7.42233 13.7289 7.42233C14.6952 7.42233 15.6035 7.78417 16.287 8.4415C16.9704 9.09863 17.3466 9.97241 17.3466 10.9016Z" fill="#47525D"/>
<path fill-rule="evenodd" clip-rule="evenodd" d="M18.4892 5.72458C17.0114 4.35457 15.0466 3.6001 12.957 3.6001C12.6715 3.6001 12.4402 3.81478 12.4402 4.0792C12.4402 4.34362 12.6715 4.5583 12.957 4.5583C14.7707 4.55808 16.4759 5.21285 17.7586 6.40194C19.041 7.59103 19.7473 9.17161 19.7473 10.853C19.7473 11.1179 19.9786 11.3321 20.2641 11.3321C20.5493 11.3321 20.7806 11.1179 20.7806 10.853C20.7809 8.91586 19.9668 7.09458 18.4892 5.72458Z" fill="#47525D"/>
<path fill-rule="evenodd" clip-rule="evenodd" d="M13.6849 8.98535C13.4615 8.98535 13.2805 9.16052 13.2805 9.3771C13.2807 9.59331 13.4617 9.76867 13.6849 9.76848H13.6851C14.0179 9.76848 14.3064 9.88414 14.542 10.1125C14.774 10.3375 14.8967 10.6244 14.8967 10.9424C14.8967 11.1586 15.0777 11.3342 15.3011 11.3342C15.5243 11.3342 15.7054 11.1586 15.7054 10.9424C15.7056 10.4121 15.5008 9.93376 15.1135 9.55843C14.7265 9.18347 14.2325 8.98535 13.6849 8.98535Z" fill="#47525D"/>
</svg>
