<svg width="25" height="24" viewBox="0 0 25 24" fill="none" xmlns="http://www.w3.org/2000/svg">
<path fill-rule="evenodd" clip-rule="evenodd" d="M12.5 4.7998C9.18629 4.7998 6.5 7.4861 6.5 10.7998C6.5 13.8282 8.7437 16.3327 11.6595 16.7414V19.7999L16.5109 15.2742L16.4917 15.2794C17.724 14.1806 18.5 12.5808 18.5 10.7998C18.5 7.4861 15.8137 4.7998 12.5 4.7998Z" fill="#47525D"/>
<path d="M11.6595 16.7414H12.3795V16.1153L11.7594 16.0284L11.6595 16.7414ZM11.6595 19.7999H10.9395V21.4562L12.1506 20.3264L11.6595 19.7999ZM16.5109 15.2742L17.002 15.8007L16.3219 14.5795L16.5109 15.2742ZM16.4917 15.2794L16.0125 14.7421L16.6807 15.9742L16.4917 15.2794ZM7.22 10.7998C7.22 7.88374 9.58394 5.5198 12.5 5.5198V4.0798C8.78865 4.0798 5.78 7.08845 5.78 10.7998H7.22ZM11.7594 16.0284C9.19423 15.6688 7.22 13.4642 7.22 10.7998H5.78C5.78 14.1923 8.29316 16.9965 11.5595 17.4544L11.7594 16.0284ZM12.3795 19.7999V16.7414H10.9395V19.7999H12.3795ZM16.0198 14.7477L11.1683 19.2735L12.1506 20.3264L17.002 15.8007L16.0198 14.7477ZM16.6807 15.9742L16.6999 15.969L16.3219 14.5795L16.3027 14.5847L16.6807 15.9742ZM17.78 10.7998C17.78 12.367 17.0981 13.774 16.0125 14.7421L16.9709 15.8168C18.3499 14.5871 19.22 12.7946 19.22 10.7998H17.78ZM12.5 5.5198C15.4161 5.5198 17.78 7.88374 17.78 10.7998H19.22C19.22 7.08845 16.2114 4.0798 12.5 4.0798V5.5198Z" fill="#47525D"/>
</svg>
