<svg width="36" height="36" viewBox="0 0 36 36" fill="none" xmlns="http://www.w3.org/2000/svg">
<rect x="1" y="1" width="34" height="34" rx="17" fill="#53A8CB" stroke="#53A8CB" stroke-width="2"/>
<path fill-rule="evenodd" clip-rule="evenodd" d="M24.8736 15.1077C24.8736 17.4867 22.9931 19.4154 20.6736 19.4154C18.3542 19.4154 16.4736 17.4867 16.4736 15.1077C16.4736 12.7288 18.3542 10.8 20.6736 10.8C22.9931 10.8 24.8736 12.7288 24.8736 15.1077Z" stroke="white" stroke-width="1.2" stroke-linecap="round"/>
<path d="M14.9453 24.8979C14.9453 21.87 17.5094 19.4154 20.6726 19.4154C23.8357 19.4154 26.3999 21.87 26.3999 24.8979" stroke="white" stroke-width="1.2" stroke-linecap="round"/>
<path fill-rule="evenodd" clip-rule="evenodd" d="M15.7097 18.2406C15.7097 19.7544 14.5132 20.9819 13.0368 20.9819C11.5608 20.9819 10.3643 19.7544 10.3643 18.2406C10.3643 16.7265 11.5608 15.4994 13.0368 15.4994C14.5132 15.4994 15.7097 16.7265 15.7097 18.2406Z" stroke="white" stroke-width="1.2" stroke-linecap="round"/>
<path d="M9.60059 24.8979C9.60059 22.7351 11.2029 20.9818 13.1795 20.9818C14.1677 20.9818 15.0621 21.42 15.7097 22.1283" stroke="white" stroke-width="1.2" stroke-linecap="round"/>
</svg>
