<svg width="36" height="36" viewBox="0 0 36 36" fill="none" xmlns="http://www.w3.org/2000/svg">
<rect x="1" y="1" width="34" height="34" rx="17" stroke="#53A8CB" stroke-width="2"/>
<path fill-rule="evenodd" clip-rule="evenodd" d="M18.0196 9.59998C15.2328 9.59998 12.9588 11.8588 12.9588 14.6494C12.9588 16.4494 13.9047 18.028 15.3242 18.9221C12.3647 19.8377 9.89821 22.31 9.60059 26.339L10.7575 26.4245C11.0783 22.0828 14.3188 19.8367 17.6605 19.6863C17.7792 19.6947 17.8989 19.6989 18.0196 19.6989C18.1406 19.6989 18.2605 19.6947 18.3794 19.6863C21.7215 19.8363 24.9627 22.0823 25.2834 26.4245L26.4404 26.339C26.1427 22.3095 23.6756 19.8371 20.7157 18.9217C22.1348 18.0276 23.0805 16.4491 23.0805 14.6494C23.0805 11.8588 20.8065 9.59998 18.0196 9.59998ZM18.3583 18.5243C20.3505 18.3527 21.9204 16.6817 21.9204 14.6494C21.9204 12.5033 20.1696 10.7601 18.0196 10.7601C15.8697 10.7601 14.1189 12.5033 14.1189 14.6494C14.1189 16.6819 15.6891 18.353 17.6815 18.5243C17.907 18.5161 18.1328 18.5161 18.3583 18.5243Z" fill="#47525D"/>
</svg>
