<svg width="20" height="20" viewBox="0 0 20 20" fill="none" xmlns="http://www.w3.org/2000/svg">
<path fill-rule="evenodd" clip-rule="evenodd" d="M15.4164 15.224L12.6156 12.4234L13.344 11.6954L16.1447 14.4957C16.1447 14.4957 15.4166 15.2242 15.4164 15.224ZM14.4191 15.5939C13.8022 16.2107 12.712 16.3126 11.3492 15.8808C9.89037 15.4185 8.33215 14.4094 6.96158 13.039C5.59101 11.6686 4.58166 10.1107 4.11956 8.65231C3.68769 7.28971 3.78958 6.19947 4.40626 5.58248H4.40646L4.48365 5.5051L6.65712 7.67844L6.45782 7.87791C6.45782 7.87811 6.45762 7.87832 6.45742 7.87832C5.63164 8.70498 6.62384 10.5621 8.03137 11.9694C9.08482 13.0227 10.3902 13.8434 11.3271 13.8434C11.6422 13.8434 11.9154 13.7505 12.1237 13.5427C12.1237 13.5425 12.1237 13.5425 12.1237 13.5425L12.323 13.3432L14.4964 15.5165L14.4191 15.5939ZM5.50463 3.85729L8.3056 6.65762L7.57764 7.38628L7.57723 7.38587L7.56682 7.37546L6.17664 5.98571L4.77647 4.58555L5.50463 3.85729ZM13.9502 11.089C13.6159 10.7548 13.072 10.7548 12.7377 11.089L12.0093 11.8173C11.781 12.0455 11.709 12.3712 11.7923 12.6613L11.5174 12.9361C11.5174 12.9363 11.5174 12.9363 11.5172 12.9363C11.3222 13.1317 10.1068 12.832 8.63763 11.3632C7.16884 9.89445 6.86908 8.67946 7.06408 8.48408L7.33914 8.20906C7.41694 8.23132 7.49698 8.24275 7.57703 8.24275C7.79674 8.24275 8.01625 8.15904 8.18349 7.99204L8.91186 7.26399C9.24613 6.92956 9.24613 6.38587 8.91186 6.05145L6.11089 3.25112C5.94896 3.08922 5.73374 3 5.50463 3C5.27552 3 5.0605 3.08922 4.89837 3.25112L4.17 3.97938C3.94191 4.20764 3.86983 4.53348 3.95294 4.8236C3.95294 4.8236 3.72015 5.0586 3.70852 5.0735C2.93379 5.93446 2.7884 7.29032 3.30196 8.91119C3.8051 10.4984 4.88939 12.1795 6.35532 13.6452C7.82125 15.1107 9.50281 16.195 11.09 16.698C11.7277 16.9 12.3242 17 12.8659 17C13.754 17 14.4946 16.7307 15.0253 16.2001L15.1781 16.0472C15.2546 16.0694 15.3345 16.0811 15.4164 16.0811C15.6455 16.0811 15.8607 15.992 16.0226 15.8301L16.751 15.1017C17.0853 14.7677 17.0853 14.2238 16.751 13.8893L13.9502 11.089Z" fill="#47525D"/>
<path fill-rule="evenodd" clip-rule="evenodd" d="M14.0388 9.08477C14.0388 9.28311 14.2061 9.44414 14.4125 9.44414C14.6187 9.44414 14.786 9.28311 14.786 9.08477C14.786 8.11841 14.3947 7.2099 13.6841 6.52659C12.9736 5.84328 12.0289 5.4668 11.0241 5.4668C10.8177 5.4668 10.6504 5.62766 10.6504 5.82616C10.6504 6.0245 10.8177 6.18536 11.0241 6.18536C11.8293 6.18536 12.5862 6.48689 13.1558 7.03467C13.7253 7.58227 14.0388 8.31042 14.0388 9.08477Z" fill="#47525D"/>
<path fill-rule="evenodd" clip-rule="evenodd" d="M14.9911 4.7704C13.7595 3.62873 12.1222 3 10.3809 3C10.143 3 9.9502 3.1789 9.9502 3.39925C9.9502 3.6196 10.143 3.79851 10.3809 3.79851C11.8923 3.79831 13.3133 4.34396 14.3822 5.33487C15.4508 6.32577 16.0394 7.64293 16.0394 9.04411C16.0394 9.26484 16.2322 9.44337 16.4701 9.44337C16.7078 9.44337 16.9005 9.26484 16.9005 9.04411C16.9008 7.4298 16.2224 5.91207 14.9911 4.7704Z" fill="#47525D"/>
<path fill-rule="evenodd" clip-rule="evenodd" d="M10.9874 7.48779C10.8012 7.48779 10.6504 7.63377 10.6504 7.81425C10.6506 7.99443 10.8014 8.14056 10.9874 8.1404H10.9876C11.2649 8.1404 11.5053 8.23678 11.7016 8.42706C11.895 8.61454 11.9972 8.85363 11.9972 9.11869C11.9972 9.29886 12.1481 9.44515 12.3342 9.44515C12.5202 9.44515 12.6711 9.29886 12.6711 9.11869C12.6713 8.67672 12.5007 8.27813 12.1779 7.96536C11.8553 7.65289 11.4437 7.48779 10.9874 7.48779Z" fill="#47525D"/>
</svg>
