<svg width="20" height="20" viewBox="0 0 20 20" fill="none" xmlns="http://www.w3.org/2000/svg">
<path d="M8.00287 13.6644L7.70252 13.2646L8.00287 13.6644ZM5.37087 12.5603L5.85799 12.4475L5.81034 12.2416L5.62939 12.1323L5.37087 12.5603ZM4.06563 15.144L3.85855 14.6889C3.64436 14.7864 3.52712 15.02 3.57699 15.25C3.62685 15.48 3.83032 15.644 4.06563 15.644V15.144ZM8.30321 14.0641C8.26389 14.0937 8.24777 14.0894 8.30013 14.0766C8.34264 14.0662 8.40427 14.0565 8.48489 14.049C8.64626 14.0339 8.83417 14.0319 9.00511 14.0319V13.0319C8.83449 13.0319 8.60467 13.0335 8.392 13.0533C8.28561 13.0632 8.17115 13.0788 8.06346 13.105C7.96564 13.1288 7.82524 13.1724 7.70252 13.2646L8.30321 14.0641ZM9.00511 14.0319C12.4838 14.0319 15.5102 11.7759 15.5102 8.76596H14.5102C14.5102 11.0204 12.1594 13.0319 9.00511 13.0319V14.0319ZM15.5102 8.76596C15.5102 5.75604 12.4838 3.5 9.00511 3.5V4.5C12.1594 4.5 14.5102 6.51148 14.5102 8.76596H15.5102ZM9.00511 3.5C5.52639 3.5 2.5 5.75604 2.5 8.76596H3.5C3.5 6.51148 5.8508 4.5 9.00511 4.5V3.5ZM2.5 8.76596C2.5 10.5289 3.55898 12.0499 5.11234 12.9882L5.62939 12.1323C4.30094 11.3298 3.5 10.0993 3.5 8.76596H2.5ZM5.37087 12.5603C4.88374 12.673 4.88368 12.6727 4.88363 12.6725C4.88362 12.6724 4.88356 12.6722 4.88353 12.6721C4.88347 12.6718 4.88342 12.6716 4.88337 12.6714C4.88327 12.6709 4.8832 12.6706 4.88315 12.6704C4.88305 12.67 4.88305 12.6699 4.88312 12.6703C4.88328 12.671 4.88377 12.6733 4.88452 12.6771C4.88602 12.6848 4.88856 12.6984 4.89154 12.7172C4.89753 12.7551 4.90522 12.8135 4.91017 12.8873C4.92017 13.0363 4.9184 13.2394 4.87389 13.459C4.78805 13.8825 4.54575 14.3762 3.85855 14.6889L4.27272 15.5991C5.30732 15.1284 5.71763 14.3302 5.85396 13.6577C5.92053 13.3293 5.92223 13.0334 5.90793 12.8203C5.90073 12.713 5.88933 12.6247 5.87926 12.561C5.87422 12.5292 5.86949 12.5033 5.86573 12.4842C5.86385 12.4746 5.86221 12.4667 5.86089 12.4606C5.86023 12.4575 5.85966 12.4549 5.85917 12.4527C5.85893 12.4516 5.85871 12.4507 5.85851 12.4498C5.85841 12.4494 5.85832 12.449 5.85823 12.4486C5.85819 12.4484 5.85813 12.4481 5.85811 12.448C5.85805 12.4478 5.85799 12.4475 5.37087 12.5603ZM4.06563 15.644C4.17913 15.644 4.68458 15.6888 5.4323 15.5074C6.17853 15.3263 7.15658 14.9256 8.30321 14.0641L7.70252 13.2646C6.65842 14.0491 5.80341 14.3883 5.1965 14.5356C4.59107 14.6825 4.22327 14.644 4.06563 14.644V15.644Z" fill="#47525D"/>
<mask id="path-2-inside-1" fill="white">
<path fill-rule="evenodd" clip-rule="evenodd" d="M9.15625 14.7411C9.15625 14.7411 15.9149 15.1273 16.3011 8.36865C16.3011 8.36865 17.3631 8.85141 17.5562 11.1687C17.5562 11.1687 17.5562 13.679 15.8183 14.8376C15.8183 14.8376 15.9149 15.8997 16.8804 16.8652C16.8804 16.8652 15.0459 16.9618 13.308 15.61C13.308 15.61 11.8597 15.8997 9.15625 14.7411Z"/>
</mask>
<path fill-rule="evenodd" clip-rule="evenodd" d="M9.15625 14.7411C9.15625 14.7411 15.9149 15.1273 16.3011 8.36865C16.3011 8.36865 17.3631 8.85141 17.5562 11.1687C17.5562 11.1687 17.5562 13.679 15.8183 14.8376C15.8183 14.8376 15.9149 15.8997 16.8804 16.8652C16.8804 16.8652 15.0459 16.9618 13.308 15.61C13.308 15.61 11.8597 15.8997 9.15625 14.7411Z" fill="white"/>
<path d="M16.3011 8.36865L17.1287 6.54792L14.4709 5.33983L14.3043 8.25455L16.3011 8.36865ZM17.5562 11.1687L19.5562 11.1687V11.0855L19.5493 11.0026L17.5562 11.1687ZM15.8183 14.8376L14.7089 13.1735L13.7188 13.8336L13.8265 15.0187L15.8183 14.8376ZM16.8804 16.8652L16.9855 18.8624L21.47 18.6264L18.2946 15.451L16.8804 16.8652ZM13.308 15.61L14.5359 14.0313L13.8133 13.4694L12.9157 13.6489L13.308 15.61ZM9.15625 14.7411C9.04215 16.7378 9.04315 16.7379 9.04418 16.7379C9.04456 16.7379 9.04562 16.738 9.04637 16.738C9.04789 16.7381 9.04951 16.7382 9.05124 16.7383C9.0547 16.7385 9.05859 16.7387 9.0629 16.7389C9.07152 16.7393 9.08182 16.7398 9.09377 16.7403C9.11765 16.7413 9.14811 16.7423 9.18473 16.7432C9.25792 16.7449 9.3561 16.746 9.47587 16.7443C9.71473 16.7409 10.0434 16.7265 10.434 16.6841C11.2057 16.6004 12.2702 16.4019 13.3748 15.9263C14.4874 15.4473 15.678 14.6699 16.6199 13.4182C17.5708 12.1544 18.1813 10.5218 18.2978 8.48275L14.3043 8.25455C14.2277 9.59481 13.8486 10.4484 13.4237 11.0131C12.9897 11.5898 12.4182 11.9831 11.7929 12.2524C11.1596 12.5251 10.5102 12.6524 10.0026 12.7075C9.75356 12.7345 9.55122 12.7428 9.41896 12.7447C9.35317 12.7456 9.30576 12.7449 9.27976 12.7443C9.26679 12.744 9.25925 12.7437 9.25753 12.7436C9.25668 12.7436 9.25728 12.7436 9.2594 12.7437C9.26046 12.7438 9.2619 12.7439 9.26372 12.744C9.26463 12.744 9.26564 12.7441 9.26674 12.7441C9.26729 12.7442 9.2682 12.7442 9.26847 12.7442C9.2694 12.7443 9.27035 12.7443 9.15625 14.7411ZM16.3011 8.36865C15.4735 10.1894 15.4719 10.1887 15.4704 10.188C15.4699 10.1877 15.4683 10.187 15.4673 10.1866C15.4653 10.1856 15.4633 10.1847 15.4613 10.1838C15.4572 10.1819 15.4533 10.1801 15.4494 10.1782C15.4416 10.1746 15.434 10.1709 15.4266 10.1673C15.4118 10.1601 15.3978 10.153 15.3846 10.1461C15.3583 10.1323 15.3351 10.1192 15.3149 10.107C15.2742 10.0825 15.2454 10.0617 15.2263 10.0465C15.1863 10.0148 15.1919 10.01 15.2223 10.0531C15.2759 10.129 15.4915 10.4747 15.5632 11.3347L19.5493 11.0026C19.4279 9.54539 19.0159 8.49106 18.4902 7.74632C18.2309 7.37906 17.959 7.10875 17.7138 6.91407C17.5921 6.81738 17.4788 6.74081 17.3793 6.68088C17.3296 6.65094 17.2835 6.62519 17.2415 6.60319C17.2205 6.59218 17.2005 6.58212 17.1817 6.57292C17.1723 6.56833 17.1632 6.56395 17.1543 6.55979C17.1499 6.5577 17.1456 6.55568 17.1413 6.5537C17.1391 6.55271 17.137 6.55173 17.1349 6.55077C17.1339 6.55029 17.1323 6.54957 17.1318 6.54934C17.1302 6.54863 17.1287 6.54792 16.3011 8.36865ZM17.5562 11.1687C15.5562 11.1687 15.5562 11.168 15.5563 11.1673C15.5563 11.1671 15.5563 11.1665 15.5563 11.1661C15.5563 11.1652 15.5563 11.1644 15.5563 11.1637C15.5563 11.1621 15.5563 11.1608 15.5563 11.1595C15.5563 11.157 15.5563 11.1551 15.5563 11.1537C15.5564 11.1509 15.5564 11.1503 15.5563 11.1517C15.5563 11.1545 15.556 11.1653 15.5551 11.1831C15.5534 11.2192 15.5494 11.2824 15.5405 11.3659C15.5222 11.5365 15.4853 11.7727 15.4137 12.0272C15.2593 12.5761 15.0156 12.9691 14.7089 13.1735L16.9277 16.5017C18.359 15.5475 18.9842 14.1061 19.2643 13.1101C19.41 12.5922 19.4817 12.1284 19.5177 11.7921C19.5359 11.6222 19.5455 11.4802 19.5506 11.3744C19.5531 11.3214 19.5545 11.2771 19.5553 11.2426C19.5557 11.2253 19.5559 11.2104 19.5561 11.1981C19.5561 11.1919 19.5562 11.1863 19.5562 11.1814C19.5562 11.179 19.5562 11.1767 19.5562 11.1746C19.5562 11.1735 19.5562 11.1725 19.5562 11.1715C19.5562 11.171 19.5562 11.1703 19.5562 11.17C19.5562 11.1693 19.5562 11.1687 17.5562 11.1687ZM15.8183 14.8376C13.8265 15.0187 13.8266 15.0195 13.8267 15.0203C13.8267 15.0206 13.8268 15.0214 13.8268 15.0219C13.8269 15.023 13.827 15.0241 13.8271 15.0253C13.8274 15.0276 13.8276 15.0299 13.8278 15.0323C13.8283 15.0371 13.8288 15.0423 13.8294 15.0477C13.8305 15.0585 13.8318 15.0704 13.8333 15.0835C13.8364 15.1095 13.8404 15.1401 13.8454 15.1747C13.8556 15.244 13.8702 15.3302 13.8914 15.4307C13.9336 15.631 14.0024 15.8923 14.1146 16.1916C14.3392 16.7905 14.744 17.5572 15.4662 18.2794L18.2946 15.451C18.0513 15.2077 17.925 14.9606 17.8599 14.7871C17.8274 14.7002 17.8117 14.6356 17.8056 14.6066C17.8026 14.5925 17.8022 14.5882 17.8033 14.5955C17.8038 14.5993 17.8048 14.606 17.8059 14.6161C17.8065 14.6211 17.8072 14.627 17.8079 14.6337C17.8082 14.6371 17.8086 14.6407 17.809 14.6445C17.8092 14.6464 17.8093 14.6483 17.8095 14.6503C17.8096 14.6513 17.8097 14.6524 17.8098 14.6534C17.8099 14.6539 17.8099 14.6547 17.81 14.655C17.81 14.6558 17.8101 14.6565 15.8183 14.8376ZM16.8804 16.8652C16.7753 14.868 16.776 14.8679 16.7768 14.8679C16.777 14.8679 16.7778 14.8678 16.7783 14.8678C16.7792 14.8678 16.7802 14.8677 16.7811 14.8677C16.7829 14.8676 16.7847 14.8675 16.7863 14.8674C16.7895 14.8673 16.7924 14.8671 16.7949 14.867C16.7998 14.8669 16.8031 14.8667 16.805 14.8667C16.8086 14.8666 16.8062 14.8667 16.7982 14.8667C16.782 14.8667 16.7441 14.8663 16.6876 14.8628C16.5737 14.8559 16.3911 14.8374 16.165 14.7889C15.7103 14.6915 15.1142 14.4812 14.5359 14.0313L12.0801 17.1887C13.2397 18.0906 14.4297 18.5079 15.3268 18.7001C15.7766 18.7965 16.1612 18.8383 16.4456 18.8555C16.5883 18.8642 16.7072 18.8667 16.7982 18.8667C16.8437 18.8667 16.8824 18.8661 16.9138 18.8652C16.9294 18.8648 16.9433 18.8643 16.9553 18.8638C16.9613 18.8636 16.9668 18.8633 16.9718 18.8631C16.9743 18.863 16.9767 18.8629 16.979 18.8628C16.9802 18.8627 16.9813 18.8627 16.9824 18.8626C16.9829 18.8626 16.9837 18.8625 16.984 18.8625C16.9847 18.8625 16.9855 18.8624 16.8804 16.8652ZM13.308 15.61C12.9157 13.6489 12.9168 13.6487 12.9179 13.6484C12.9182 13.6484 12.9193 13.6482 12.92 13.648C12.9214 13.6477 12.9228 13.6475 12.9241 13.6472C12.9269 13.6467 12.9295 13.6462 12.932 13.6457C12.9371 13.6447 12.9419 13.6438 12.9463 13.643C12.9552 13.6414 12.9627 13.6401 12.969 13.6391C12.9814 13.6371 12.9885 13.6361 12.9903 13.6359C12.9941 13.6354 12.9765 13.6378 12.9379 13.6398C12.861 13.6437 12.6983 13.6462 12.4517 13.6206C11.9611 13.5699 11.1189 13.4063 9.94409 12.9028L8.36841 16.5794C9.89706 17.2345 11.1307 17.5053 12.0401 17.5994C12.4935 17.6463 12.8618 17.6488 13.141 17.6346C13.2804 17.6275 13.3971 17.6163 13.4906 17.6045C13.5373 17.5986 13.5782 17.5926 13.6131 17.5869C13.6306 17.584 13.6466 17.5813 13.6611 17.5786C13.6684 17.5773 13.6753 17.576 13.6818 17.5748C13.6851 17.5742 13.6882 17.5736 13.6913 17.573C13.6928 17.5727 13.6943 17.5724 13.6958 17.5721C13.6966 17.5719 13.6977 17.5717 13.698 17.5716C13.6991 17.5714 13.7002 17.5712 13.308 15.61Z" fill="#47525D" mask="url(#path-2-inside-1)"/>
</svg>
